<?xml version="1.0" encoding="utf-8"?>
<!-- Generator: Adobe Illustrator 26.0.3, SVG Export Plug-In . SVG Version: 6.00 Build 0)  -->
<svg version="1.0" id="katman_1" xmlns="http://www.w3.org/2000/svg" xmlns:xlink="http://www.w3.org/1999/xlink" x="0px" y="0px"
	 viewBox="0 0 800 600" style="enable-background:new 0 0 800 600;" xml:space="preserve">
<style type="text/css">
	.st0{fill:#1D1B1B;}
</style>
<path class="st0" d="M133.8,367.6l6.3-18h56.7l6.4,18h37.1l-52-146.5h-39.5l-52,146.5H133.8z M164.5,276.8c1.6-4.1,2.9-8,3.5-12.3
	h0.6c0.8,4.5,2,8.2,3.5,12.5l13.1,39.7h-33.8L164.5,276.8z M356.8,400.8v-51.6l-12.5-3.5c-3.9-1-8.2-1.2-13.7-0.8v-1.2
	c10.9-5.3,20.5-20.7,20.5-38.1c0-11.3-3.5-21.5-9.6-30.1h1c2.7,0.8,4.1,1.2,7.2,1.2h7.8v-23.1h-60.6c-30.9,0-54.1,23.1-54.1,52
	c0,21.9,13.1,43,32.8,48.5l43.8,12.1c3.5,1.2,7.6,2.5,11.7,2.5v3.7h-53.3v-4.7h-33.8v33.2H356.8z M296.8,324.6
	c-11.5,0-18.8-7.6-18.8-19.1c0-11.5,7.4-19,18.8-19c11.5,0,19.3,7.6,19.3,19C316,317,308.2,324.6,296.8,324.6z M429.3,370.6
	c33.4,0,60.6-27,60.6-60c0-33.6-27.2-60-60.6-60s-60.6,26.4-60.6,60C368.7,343.6,395.9,370.6,429.3,370.6z M429.3,337.7
	c-14.1,0-25.4-9.4-25.4-27c0-18.2,11.3-27,25.4-27c14.1,0,25.6,8.8,25.6,27C454.9,328.2,443.5,337.7,429.3,337.7z M542.4,367.6
	v-81.3h33.4v-32.8h-68.6v114.1H542.4z M636,370.6c15.6,0,27.4-4.3,37.9-19.5h1v16.4h34.2V253.5h-34.2v17.6h-1
	c-6.4-12.1-20.3-20.7-37.9-20.7c-31.5,0-54.1,26.6-54.1,60.2C581.9,344,604.5,370.6,636,370.6z M644.2,337.9
	c-16,0-24.8-11.3-24.8-27.2c0-16.2,8.8-27.4,24.8-27.4c16.2,0,25.6,11.3,25.6,27.4C669.8,326.6,660.4,337.9,644.2,337.9z"/>
</svg>
