<svg width="664" height="373" viewBox="0 0 664 373" fill="none" xmlns="http://www.w3.org/2000/svg">
<g clip-path="url(#clip0_21_85)">
<rect width="664" height="373" fill="white"/>
<mask id="mask0_21_85" style="mask-type:luminance" maskUnits="userSpaceOnUse" x="0" y="0" width="664" height="373">
<path d="M664 0H0V373H664V0Z" fill="white"/>
</mask>
<g mask="url(#mask0_21_85)">
<path d="M664 0H0V373H664V0Z" fill="white"/>
<path d="M663.897 0.222759H0.103088V373.223H663.897V0.222759Z" fill="#C9E8F4"/>
<path d="M287.448 158.483C288.406 155.15 293.272 153.656 295.904 155.981C295.618 154.573 296.577 153.019 297.965 152.641C299.355 152.262 300.971 153.112 301.435 154.473C300.971 149.168 304.189 143.744 309.068 141.599C313.948 139.461 320.131 140.763 323.728 144.693C322.924 142.748 322.119 140.564 322.877 138.605C323.641 136.646 326.813 135.757 327.809 137.609C326.6 133.426 329.657 128.692 333.867 127.55C338.075 126.408 342.794 128.559 345.188 132.198C347.582 135.836 347.801 140.649 346.332 144.753C350.095 142.761 355.426 146.273 355.075 150.509C357.72 148.019 361.245 146.193 364.868 146.472C368.491 146.751 372.021 149.619 372.188 153.251L372.288 153.736C374.155 152.448 376.116 151.113 378.371 150.868C380.624 150.615 383.217 151.864 383.649 154.088C385.511 152.049 387.964 150.317 390.729 150.204C393.495 150.091 396.44 152.136 396.521 154.898C398.801 153.079 402.251 152.388 404.651 154.055C407.045 155.728 407.184 160.07 404.525 161.278C402.298 162.288 399.799 160.787 397.816 159.353C397.552 162.221 394.227 163.994 391.361 163.669C388.49 163.337 386.036 161.544 383.73 159.818C383.45 161.464 381.416 162.308 379.786 161.923C378.158 161.544 376.881 160.329 375.685 159.161C375 164.286 369.502 167.772 364.323 167.619C359.15 167.46 354.457 164.472 350.727 160.894C348.679 163.968 343.414 164.014 341.306 160.987L340.954 160.92C340.057 164.851 334.093 166.345 331.447 163.297C330.271 167.161 325.477 168.589 321.434 168.443C315.644 168.237 309.939 166.026 305.525 162.275C303.856 166.039 299.807 168.615 295.685 168.536C291.563 168.449 287.621 165.714 286.106 161.883C285.313 164.512 281.398 165.389 279.43 163.483C277.462 161.578 278.028 157.84 280.381 156.432C282.728 155.018 286.125 156.086 287.448 158.483Z" fill="white"/>
<path d="M321.326 148.81C321.63 148.437 321.952 148.078 322.309 147.754C323.979 146.238 326.189 145.408 328.452 145.683C330.777 145.965 332.793 147.27 334.369 148.948C334.741 147.739 335.265 146.562 336.092 145.595C337.356 144.118 339.259 143.521 341.125 144.111C342.484 144.541 343.636 145.419 344.594 146.476C344.34 145.047 343.87 143.655 343.083 142.43C341.879 140.557 339.604 138.932 337.303 139.811C334.468 140.893 333.984 144.644 334.065 147.244C334.076 147.614 333.475 147.703 333.412 147.332C333.102 145.513 332.509 143.502 331.025 142.28C328.954 140.575 326.164 141.68 324.417 143.294C324.103 143.585 323.812 143.898 323.538 144.224C323.601 144.381 323.664 144.539 323.728 144.694C323.628 144.586 323.521 144.488 323.419 144.384C322.385 145.671 321.676 147.2 321.326 148.81Z" fill="#DAF8F8"/>
<path d="M406.097 157.421C403.715 158.797 401.084 158.173 399.105 156.483C398.733 157.683 398.06 158.764 397.034 159.525C393.295 162.3 387.557 159.923 385.962 155.828C384.125 160.205 377.618 158.826 374.723 155.757C374.025 158.038 372.867 160.21 371.024 161.769C364.391 167.38 354.381 162.553 350.245 156.135C349.049 158.19 347.079 159.929 344.582 159.929C342.196 159.928 340.354 158.309 339.275 156.316C338.542 158.057 337.222 159.581 335.221 159.775C333.226 159.969 331.483 158.776 330.271 157.29C329.374 159.218 328.094 160.96 326.268 162.109C323.106 164.102 319.145 163.754 315.864 162.251C312.324 160.63 309.378 157.674 307.745 154.142C306.93 155.193 305.996 156.165 305.068 157.109C303.687 158.515 302.24 159.863 300.695 161.09C299.313 162.187 297.832 163.263 296.168 163.892C295.065 164.308 293.688 164.505 292.758 163.614C291.678 162.577 291.628 160.781 291.719 159.302C290.155 160.403 288.171 161.396 286.124 161.927C287.654 165.734 291.579 168.449 295.685 168.535C299.807 168.615 303.855 166.038 305.524 162.274C309.939 166.025 315.643 168.236 321.434 168.442C325.476 168.588 330.27 167.16 331.446 163.296C334.092 166.343 340.056 164.849 340.954 160.919L341.306 160.985C343.413 164.013 348.679 163.967 350.727 160.892C354.456 164.471 359.149 167.459 364.322 167.618C369.501 167.771 374.999 164.285 375.684 159.16C376.88 160.328 378.158 161.543 379.786 161.922C381.415 162.307 383.45 161.463 383.728 159.817C386.036 161.543 388.488 163.336 391.361 163.668C394.225 163.993 397.55 162.22 397.816 159.352C399.797 160.786 402.297 162.287 404.524 161.277C406.054 160.583 406.653 158.852 406.435 157.188C406.322 157.265 406.218 157.352 406.097 157.421Z" fill="#DAF8F8"/>
<path opacity="0.3" d="M278.242 160.522C278.253 161.625 278.628 162.706 279.43 163.483C281.384 165.374 285.252 164.523 286.082 161.939C283.284 162.657 280.373 162.495 278.242 160.522Z" fill="#DAF8F8"/>
<path d="M287.591 158.418C285.928 155.23 280.917 154.441 278.835 157.63C277.932 159.014 277.722 160.885 278.399 162.405C279.073 163.92 280.589 164.774 282.224 164.743C284.001 164.71 285.777 163.697 286.331 161.947C286.179 161.947 286.027 161.947 285.874 161.947C287.106 164.998 289.752 167.363 292.898 168.321C296.08 169.289 299.548 168.601 302.223 166.657C303.733 165.559 304.961 164.1 305.731 162.396C305.607 162.412 305.482 162.428 305.358 162.444C308.711 165.279 312.759 167.256 317.062 168.151C320.673 168.9 324.716 169.074 328.094 167.361C329.758 166.516 331.107 165.165 331.675 163.362C331.543 163.397 331.41 163.432 331.278 163.467C333.468 165.93 337.652 165.547 339.869 163.321C340.517 162.671 340.97 161.878 341.156 160.978C341.209 160.718 340.827 160.607 340.756 160.867C339.733 164.585 334.239 166.085 331.615 163.132C331.49 162.992 331.267 163.076 331.217 163.236C330.176 166.54 326.501 167.883 323.343 168.157C319.381 168.501 315.202 167.512 311.616 165.865C309.482 164.886 307.487 163.624 305.694 162.108C305.591 162.02 305.39 162.006 305.322 162.156C304.022 165.035 301.382 167.197 298.326 167.983C295.24 168.777 291.955 167.969 289.479 165.994C288.099 164.893 286.993 163.46 286.331 161.822C286.247 161.612 285.95 161.584 285.875 161.822C284.97 164.683 280.532 165.145 279.02 162.583C278.255 161.288 278.319 159.59 278.996 158.274C279.733 156.845 281.164 156.022 282.767 156.026C284.594 156.032 286.372 157.013 287.314 158.58C287.42 158.758 287.687 158.601 287.591 158.418Z" fill="#45163C"/>
<path d="M287.522 158.76C288.371 155.405 293.123 153.824 295.764 156.122C295.918 156.256 296.128 156.126 296.094 155.931C295.862 154.617 296.714 153.193 298.019 152.84C299.32 152.487 300.774 153.283 301.237 154.531C301.312 154.735 301.668 154.727 301.649 154.475C301.313 150.377 303.129 146.261 306.261 143.616C309.442 140.929 313.819 140.185 317.785 141.334C319.988 141.972 322.002 143.176 323.559 144.861C323.71 145.025 324.042 144.854 323.951 144.633C323.471 143.46 322.985 142.246 322.847 140.976C322.734 139.93 322.853 138.729 323.586 137.916C324.549 136.851 326.74 136.211 327.6 137.732C327.734 137.969 328.111 137.81 328.039 137.548C326.741 132.88 330.607 128.005 335.276 127.529C337.718 127.281 340.181 128.05 342.173 129.449C344.322 130.958 345.803 133.198 346.502 135.713C347.323 138.656 347.1 141.82 346.085 144.685C346.007 144.907 346.276 145.065 346.458 144.971C350.112 143.088 355.114 146.439 354.82 150.511C354.803 150.743 355.106 150.833 355.258 150.692C357.411 148.68 360.132 147.062 363.115 146.757C365.765 146.487 368.432 147.394 370.241 149.38C371.215 150.45 371.847 151.798 371.93 153.249C371.949 153.579 372.466 153.581 372.446 153.249C372.289 150.496 370.36 148.2 367.927 147.045C365.204 145.752 362.107 146.055 359.409 147.261C357.737 148.008 356.228 149.083 354.894 150.33C355.041 150.39 355.186 150.45 355.332 150.511C355.653 146.032 350.175 142.484 346.202 144.533C346.325 144.629 346.449 144.724 346.574 144.82C348.427 139.583 347.567 133.096 343.024 129.485C341.019 127.892 338.475 126.919 335.894 127.005C333.4 127.089 331.091 128.223 329.474 130.118C327.711 132.184 326.834 135.013 327.575 137.675C327.722 137.613 327.867 137.552 328.014 137.49C327.051 135.791 324.685 136.236 323.457 137.371C321.385 139.285 322.606 142.584 323.498 144.758C323.628 144.682 323.759 144.606 323.891 144.53C321.015 141.422 316.601 139.924 312.417 140.456C308.156 140.997 304.52 143.76 302.608 147.57C301.538 149.701 301.028 152.095 301.228 154.475C301.365 154.457 301.503 154.438 301.64 154.42C301.095 152.962 299.441 152.031 297.91 152.447C296.383 152.862 295.436 154.512 295.712 156.036C295.822 155.972 295.932 155.908 296.042 155.844C293.209 153.407 288.07 154.998 287.243 158.683C287.202 158.864 287.477 158.941 287.522 158.76Z" fill="#45163C"/>
<path d="M341.215 161.037C343.335 164.318 348.754 164.14 350.907 160.998C350.796 161.012 350.686 161.026 350.575 161.041C353.795 164.132 357.696 166.834 362.174 167.627C366.029 168.31 370.102 167.312 373.003 164.619C374.541 163.193 375.627 161.316 375.923 159.228C375.786 159.265 375.648 159.301 375.511 159.337C376.855 160.649 378.442 162.178 380.439 162.259C381.954 162.32 383.656 161.474 383.964 159.881C383.843 159.93 383.722 159.979 383.601 160.028C385.744 161.633 388.023 163.319 390.717 163.816C392.774 164.196 395.015 163.68 396.576 162.246C397.41 161.479 397.941 160.476 398.062 159.349C397.938 159.42 397.815 159.491 397.692 159.562C399.291 160.716 401.251 162.02 403.323 161.836C404.849 161.7 406.063 160.731 406.52 159.275C406.936 157.949 406.732 156.42 406.036 155.224C405.221 153.824 403.709 153.062 402.129 152.897C400.059 152.68 397.961 153.461 396.348 154.731C396.485 154.787 396.622 154.844 396.757 154.9C396.666 152.821 395.132 151.189 393.269 150.43C391.093 149.543 388.703 150.061 386.734 151.221C385.513 151.94 384.439 152.886 383.483 153.925C383.613 153.959 383.742 153.993 383.872 154.027C383.433 151.95 381.34 150.761 379.343 150.618C376.672 150.427 374.261 152.092 372.175 153.539C371.935 153.706 372.163 154.102 372.406 153.933C374.342 152.594 376.536 151.044 378.998 151.067C380.905 151.084 383.003 152.159 383.423 154.15C383.459 154.32 383.698 154.377 383.812 154.253C385.69 152.214 388.284 150.304 391.199 150.439C393.607 150.551 396.169 152.338 396.279 154.9C396.288 155.123 396.527 155.195 396.688 155.069C398.01 154.031 399.679 153.37 401.371 153.349C402.864 153.33 404.464 153.86 405.371 155.103C406.849 157.128 406.493 160.733 403.663 161.295C401.589 161.706 399.529 160.283 397.941 159.137C397.772 159.016 397.587 159.184 397.57 159.349C397.293 161.931 394.533 163.419 392.151 163.457C389.007 163.507 386.239 161.394 383.85 159.603C383.728 159.511 383.516 159.606 383.488 159.75C383.207 161.208 381.585 161.9 380.219 161.751C378.458 161.559 377.06 160.161 375.859 158.988C375.741 158.872 375.475 158.905 375.447 159.097C374.925 162.796 371.917 165.557 368.493 166.728C364.533 168.084 360.3 167.12 356.726 165.138C354.583 163.949 352.645 162.43 350.873 160.741C350.77 160.642 350.618 160.67 350.542 160.784C348.488 163.804 343.567 163.709 341.379 160.91C341.306 160.818 341.151 160.939 341.215 161.037Z" fill="#45163C"/>
<path d="M353.038 150.711C353.62 150.507 354.266 150.546 354.824 150.81C355.099 150.94 355.349 151.115 355.557 151.336C355.66 151.444 355.75 151.561 355.828 151.689C355.912 151.826 355.998 151.953 356.089 152.085C356.156 152.181 356.344 152.159 356.333 152.019C356.317 151.827 356.278 151.675 356.175 151.51C356.083 151.362 355.973 151.223 355.853 151.098C355.609 150.843 355.308 150.636 354.984 150.494C354.33 150.206 353.588 150.159 352.929 150.453C352.785 150.518 352.887 150.763 353.038 150.711Z" fill="#45163C"/>
<path d="M303.478 161.466C303.663 161.572 303.796 161.706 303.999 161.781C304.189 161.852 304.386 161.903 304.585 161.933C304.99 161.994 305.396 161.987 305.799 161.918C306.581 161.784 307.405 161.361 307.878 160.71C308 160.542 307.734 160.345 307.594 160.491C307.339 160.756 307.091 160.995 306.77 161.182C306.447 161.371 306.101 161.5 305.735 161.579C305.381 161.656 305.014 161.675 304.654 161.636C304.477 161.616 304.3 161.584 304.126 161.537C303.931 161.484 303.707 161.464 303.531 161.373C303.471 161.342 303.418 161.432 303.478 161.466Z" fill="#45163C"/>
<path d="M610.558 83.2966C610.791 83.0043 611.063 82.7522 611.376 82.5395L611.323 82.4731C610.125 80.4679 611.728 77.6794 613.961 76.9625C616.189 76.2454 618.635 77.0619 620.657 78.2437C617.533 71.7967 621.827 62.9732 628.827 61.4394C635.835 59.9122 643.428 66.1333 643.287 73.2973C644.89 69.4399 650.235 68.2647 654.018 70.0373C657.808 71.8101 660.201 75.6411 661.736 79.5251C664.815 76.4776 670.971 78.0178 672.248 82.1474C672.593 80.5605 675.04 80.1823 676.124 81.3974C677.208 82.6057 676.915 84.6306 675.805 85.8191C674.701 87.0075 673.012 87.492 671.389 87.5985C668.371 87.7908 665.293 86.8217 662.926 84.936C661.611 86.8946 658.266 86.9478 656.89 85.0354C655.308 87.4786 650.926 87.0804 649.809 84.3978C645.495 88.9989 637.496 89.4704 632.663 85.4137C631.399 87.5515 627.71 87.5052 626.506 85.3339C624.492 87.6575 621.867 89.6693 618.808 90.0544C615.75 90.4329 612.3 88.7133 611.535 85.732C610.178 86.8738 607.612 86.3827 607.233 84.6497C606.855 82.9236 609.853 81.6422 610.537 83.2754L610.558 83.2966Z" fill="white"/>
<path d="M637.011 65.1964C634.371 65.8775 633.647 69.3864 633.47 71.6737C633.443 72.024 632.886 72.1521 632.817 71.7619C632.562 70.3275 632.167 68.8148 631.277 67.6295C630.81 67.0064 630.146 66.4542 629.344 66.3737C628.631 66.3019 627.944 66.613 627.414 67.0721C625.992 68.3043 625.432 70.2747 625.277 72.1376C626.212 71.0614 627.524 70.3673 629.014 70.4598C630.671 70.5627 632.074 71.5301 633.019 72.8398C633.347 71.8289 633.852 70.8656 634.633 70.1345C636.007 68.8487 637.967 68.6 639.674 69.3363C640.746 69.7991 641.609 70.5863 642.245 71.5353C642.172 70.4277 641.957 69.3319 641.529 68.3039C640.804 66.5644 639.111 64.6548 637.011 65.1964Z" fill="#DAF8F8"/>
<path d="M676.124 81.3977C675.04 80.1831 672.593 80.5612 672.248 82.1482C672.135 81.7849 671.973 81.4492 671.791 81.1273C671.667 81.3438 671.542 81.5611 671.408 81.7717C670.719 82.8448 669.866 83.8951 668.736 84.5256C665.82 86.1527 662.936 83.771 661.051 81.626C660.632 82.1727 660.067 82.6003 659.737 83.215C659.593 83.4844 659.222 83.3873 659.13 83.1359C658.898 82.4994 658.342 82.0318 657.852 81.5907C657.508 81.2816 657.171 80.9712 656.863 80.6317C656.637 81.4039 656.273 82.1562 655.609 82.6279C654.305 83.5552 652.604 82.7775 651.451 81.98C650.138 81.0724 648.99 79.8742 648.081 78.5532C647.271 79.8953 646.361 81.1933 645.248 82.3004C643.671 83.8699 641.609 85.0109 639.323 84.6335C636.825 84.2203 634.86 82.2631 633.335 80.318C633.161 81.1265 632.857 81.923 632.249 82.4925C631.053 83.6122 629.327 83.1794 628.035 82.4811C626.666 81.7417 625.428 80.6299 624.518 79.3527C624.003 80.202 623.324 80.9729 622.648 81.6822C621.73 82.6468 620.727 83.539 619.644 84.3157C618.711 84.9864 617.66 85.6306 616.524 85.8841C615.633 86.0826 614.664 85.9797 614.029 85.259C613.405 84.5482 613.213 83.5608 613.168 82.6003C612.635 83.2717 611.955 83.8111 611.136 84.1316C609.976 84.5851 608.691 84.5281 607.521 84.1509C607.373 84.1036 607.304 83.9893 607.293 83.8691C607.205 84.1119 607.172 84.3741 607.233 84.6497C607.611 86.3824 610.178 86.8736 611.535 85.7318C612.298 88.713 615.749 90.4326 618.808 90.0537C621.865 89.6686 624.492 87.6569 626.506 85.3332C627.71 87.5042 631.399 87.5511 632.662 85.413C637.496 89.4697 645.494 88.9982 649.809 84.3972C650.925 87.0794 655.307 87.4776 656.889 85.0344C658.265 86.9464 661.609 86.8933 662.925 84.9346C665.293 86.8204 668.37 87.7898 671.388 87.597C673.011 87.4907 674.7 87.0061 675.803 85.8177C676.915 84.631 677.207 82.6061 676.124 81.3977Z" fill="#DAF8F8"/>
<path d="M610.653 83.2113C610.064 81.8176 608.142 82.3354 607.39 83.2872C606.303 84.6621 607.686 86.2363 609.11 86.4943C610.021 86.6594 610.959 86.4573 611.682 85.8743C611.568 85.8443 611.453 85.8143 611.34 85.7842C611.93 87.9911 613.878 89.5077 616.031 90.0665C618.533 90.7155 621.1 89.9605 623.213 88.57C624.507 87.7179 625.644 86.6504 626.66 85.4866C626.548 85.472 626.435 85.4575 626.321 85.443C627.657 87.7601 631.457 87.8009 632.853 85.5256C632.738 85.54 632.625 85.5549 632.512 85.5694C636.374 88.7776 642.079 89.2269 646.549 87.0517C647.827 86.43 648.987 85.5866 649.965 84.5564C649.85 84.5416 649.735 84.5267 649.619 84.5118C650.857 87.365 655.367 87.7086 657.08 85.148C656.951 85.148 656.825 85.148 656.698 85.148C658.229 87.1951 661.65 87.1505 663.117 85.051C663.001 85.0658 662.886 85.0807 662.77 85.0956C665.683 87.3895 669.903 88.5882 673.532 87.4516C675.13 86.9512 676.554 85.8443 676.938 84.1499C677.248 82.783 676.791 81.1521 675.372 80.6271C674.107 80.1585 672.384 80.6728 672.039 82.0932C672.178 82.0932 672.317 82.0932 672.456 82.0932C671.377 78.7504 667.365 77.0488 664.087 77.9539C663.147 78.2133 662.289 78.6986 661.59 79.3782C661.707 79.409 661.824 79.4398 661.941 79.4708C660.594 76.0876 658.65 72.7189 655.551 70.6584C652.905 68.9005 649.492 68.4822 646.558 69.7891C645.033 70.4688 643.76 71.6412 643.1 73.1872C643.234 73.2231 643.367 73.2591 643.5 73.2953C643.582 67.3552 638.571 62.0825 632.82 61.1423C630.016 60.684 627.166 61.341 624.853 62.9894C622.635 64.5699 620.991 66.8877 620.108 69.452C619.111 72.3469 619.134 75.5702 620.465 78.3552C620.565 78.2548 620.666 78.154 620.767 78.0534C618.531 76.7597 615.446 75.7105 613.02 77.1472C611.219 78.2137 610.027 80.6296 611.139 82.5847C611.276 82.8237 611.646 82.6086 611.509 82.3692C610.475 80.5525 611.751 78.3028 613.444 77.4183C615.71 76.2341 618.506 77.2559 620.544 78.4344C620.746 78.5515 620.938 78.3239 620.845 78.1326C618.557 73.3412 620.379 67.3242 624.313 63.963C626.372 62.2043 629.014 61.2688 631.727 61.4515C634.55 61.6414 637.245 62.9566 639.29 64.8838C641.602 67.0644 643.115 70.0836 643.072 73.2953C643.069 73.4932 643.384 73.6057 643.471 73.4033C644.647 70.6435 647.688 69.3629 650.557 69.4493C653.96 69.5518 656.795 71.6986 658.74 74.3614C659.908 75.9619 660.806 77.7458 661.537 79.5825C661.593 79.7257 661.765 79.7938 661.888 79.6749C664.895 76.7504 670.774 78.1999 672.04 82.209C672.102 82.4054 672.403 82.4238 672.458 82.209C672.743 81.0599 674.142 80.6824 675.164 81.0357C676.543 81.5116 676.788 83.2098 676.368 84.4286C675.284 87.5733 670.847 87.7007 668.158 87.1395C666.312 86.754 664.566 85.9518 663.084 84.7848C662.966 84.6922 662.825 84.7029 662.737 84.8293C661.471 86.64 658.406 86.6997 657.081 84.9263C656.98 84.7917 656.798 84.7788 656.699 84.9263C655.152 87.2406 651.099 86.8151 650.001 84.2905C649.944 84.1599 649.744 84.1524 649.655 84.2459C646.321 87.7604 640.891 88.8262 636.364 87.2538C635.075 86.8062 633.869 86.1348 632.82 85.2634C632.712 85.1736 632.557 85.1798 632.478 85.3072C631.251 87.3097 627.869 87.2552 626.696 85.2261C626.631 85.1125 626.448 85.0769 626.357 85.1826C624.701 87.0815 622.671 88.7938 620.221 89.537C618.066 90.1908 615.692 89.9228 613.835 88.6066C612.822 87.8893 612.059 86.8797 611.737 85.6768C611.692 85.5162 611.509 85.4931 611.394 85.5866C610.225 86.5323 607.485 86.2867 607.404 84.4031C607.345 83.0372 609.742 81.9306 610.43 83.3431C610.502 83.4948 610.715 83.3607 610.653 83.2113Z" fill="#45163C"/>
<path d="M610.076 84.3626C610.575 83.1152 611.759 82.2179 613.087 82.046C613.273 82.0217 613.281 81.7281 613.087 81.7465C611.631 81.8819 610.327 82.9255 609.853 84.3016C609.805 84.4441 610.023 84.4977 610.076 84.3626Z" fill="#45163C"/>
<path d="M648.434 83.1805C648.979 83.5952 649.675 83.7679 650.353 83.7109C650.685 83.683 651.005 83.6032 651.309 83.4692C651.604 83.34 651.959 83.1445 652.143 82.8735C652.226 82.7532 652.062 82.5923 651.943 82.6728C651.821 82.7543 651.72 82.8634 651.6 82.9481C651.473 83.0372 651.338 83.1145 651.197 83.1798C650.919 83.3086 650.61 83.3898 650.305 83.4177C649.688 83.4743 649.067 83.3269 648.551 82.9812C648.424 82.8966 648.319 83.0927 648.434 83.1805Z" fill="#45163C"/>
<path d="M168.513 67.1393L168.582 67.0599C168.693 64.3555 170.664 61.831 173.258 61.0573C175.852 60.2837 178.885 61.3198 180.463 63.5198C180.808 61.2231 184.298 60.2284 185.805 62.0002C185.293 58.4497 187.42 54.6818 190.727 53.2864C194.036 51.8877 198.224 52.9861 200.417 55.8249C198.965 52.2883 198.787 48.0679 200.697 44.7524C202.603 41.4369 206.866 39.4095 210.463 40.7115C210.086 35.904 211.65 30.8029 215.257 27.5978C218.867 24.3928 224.622 23.5225 228.657 26.168C233.914 29.6148 234.544 37.1508 233.126 43.2673C234.516 42.0067 236.819 41.9065 238.313 43.0394C239.81 44.1722 240.332 46.4136 239.488 48.0921C242.747 46.5586 246.79 48.5826 248.719 51.6184C250.652 54.6541 251.006 58.3946 251.31 61.976C252.845 57.8764 257.258 55.0445 261.63 55.3518C266.004 55.6592 269.975 59.0818 270.918 63.3574C271.133 61.7826 272.592 60.4702 274.183 60.4287C275.777 60.3839 277.306 61.6133 277.606 63.1744C282.87 59.4375 291.34 61.8206 293.875 67.754C295.877 67.3741 298.025 67.0287 299.889 67.8542C301.753 68.6762 302.998 71.1732 301.808 72.8241C301.265 73.577 300.352 73.9845 299.449 74.2021C296.41 74.9378 292.993 73.7635 291.049 71.3218C290.132 73.8844 287.269 75.2106 284.583 75.663C278.896 76.6197 272.807 74.7685 268.622 70.8105C268.432 72.2991 267.128 73.5736 265.635 73.7358C264.137 73.8947 262.594 72.9242 262.093 71.5047C261.148 74.468 257.487 75.4386 254.383 75.732C251.524 76.0015 248.595 76.0878 245.824 75.328C243.055 74.5648 240.439 72.8483 239.163 70.2753C239.645 71.7914 236.964 72.9277 236.203 71.5393C236.051 71.6464 235.875 71.7224 235.695 71.757V71.7604L235.736 71.9364C233.859 73.463 230.611 72.7067 229.609 70.5032C229.224 72.306 227.18 73.3871 225.345 73.2247C223.504 73.0659 221.886 71.9538 220.537 70.7001C220.005 71.7224 218.479 71.8295 217.504 71.2181C216.526 70.6068 215.969 69.5224 215.458 68.4897C214.831 69.2045 214.226 69.9402 213.552 70.6068C210.899 73.2247 207.13 74.6683 203.405 74.4923C199.683 74.3161 196.066 72.5202 193.672 69.6674C193.303 70.5861 192.269 71.1904 191.286 71.0661C190.301 70.9418 189.451 70.0991 189.319 69.1148C185.113 73.1625 177.616 73.0485 173.536 68.8765C172.612 69.6536 171.67 70.441 170.561 70.9176C169.454 71.3977 168.136 71.5359 167.055 71.0005C165.972 70.4618 165.26 69.132 165.664 67.9958C166.058 66.8906 167.656 66.3691 168.513 67.1393Z" fill="white"/>
<path d="M228.909 46.644C227.91 46.6619 226.981 47.199 226.213 47.7979C225.399 48.4334 224.689 49.198 224.035 49.9941C223.933 50.1184 223.748 50.0065 223.74 49.8718C223.731 49.7144 223.721 49.5572 223.711 49.4001C223.62 47.9171 223.49 46.4243 223.121 44.9804C222.786 43.6683 222.224 42.2146 221.038 41.4424C220.436 41.0501 219.73 40.8963 219.017 40.9243C218.168 40.9575 217.299 41.1878 216.57 41.6261C215.067 42.5306 214.181 44.1911 213.647 45.8075C213.107 47.4387 212.852 49.1752 212.85 50.8917C212.85 51.0343 212.655 51.1301 212.554 51.014C211.593 49.9078 210.574 48.7984 209.339 47.9919C208.369 47.3593 207.265 46.9621 206.096 47.0229C204.834 47.0885 203.503 47.629 202.572 48.4848C201.781 49.2115 201.275 50.1654 200.861 51.1417C201.415 50.6341 202.017 50.1813 202.681 49.8314C203.523 49.3886 204.454 49.1314 205.408 49.1348C206.352 49.1386 207.274 49.3873 208.139 49.7565C210.216 50.6431 212.013 52.132 213.729 53.5811C213.733 52.1685 213.776 50.7532 213.955 49.3506C214.134 47.9332 214.408 46.3742 215.236 45.173C215.572 44.685 216.016 44.273 216.58 44.0693C217.196 43.8476 217.876 43.9256 218.483 44.1359C220.209 44.7344 220.989 46.6954 221.459 48.2959C221.732 49.2211 221.936 50.1639 222.18 51.0964C222.365 51.8059 222.573 52.5249 222.903 53.1833C223.541 52.1226 224.418 51.1894 225.41 50.4555C226.35 49.7592 227.49 49.2001 228.683 49.2008C229.729 49.2014 230.839 49.688 231.495 50.5118C231.846 50.9522 232.071 51.4422 232.218 51.9589C232.23 51.8763 232.245 51.7938 232.256 51.711C232.402 50.5342 232.306 49.3064 231.642 48.2907C231.042 47.3727 230.045 46.6236 228.909 46.644Z" fill="#DAF8F8"/>
<path d="M301.508 69.185C301.255 69.2084 301.003 69.2302 300.748 69.2447C299.128 69.8784 297.355 70.1558 295.654 70.0901C292.706 69.9758 289.748 68.7473 288.126 66.2178C287.636 68.0691 286.72 69.8162 285.185 71.0116C282.508 73.0966 278.814 73.0175 275.681 72.199C272.456 71.3563 269.27 69.695 266.892 67.3292C266.381 68.7808 265.259 70.0431 263.569 69.6653C261.989 69.3128 260.856 67.8835 260.262 66.4338C259.55 67.9792 258.762 69.5569 257.552 70.7694C255.073 73.2534 251.102 72.9491 248.087 71.6937C244.749 70.304 242.313 67.4964 240.948 64.2105C240.733 65.4946 240.301 66.7466 239.552 67.821C238.359 69.5314 236.332 70.7007 234.208 70.2355C232.343 69.827 231.099 68.3588 230.33 66.6872C230.206 66.8726 230.083 67.0581 229.951 67.2391C229.386 68.0193 228.676 68.8927 227.702 69.1528C226.744 69.4084 225.839 68.8237 225.252 68.1105C224.532 67.2356 224.091 66.156 223.692 65.1068C223.35 64.2102 223.078 63.2633 222.643 62.4039C221.799 63.2566 220.856 64.05 219.762 64.5563C218.233 65.2643 216.566 65.2094 215.219 64.1457C213.761 62.9945 212.935 61.1775 212.375 59.4095C212.231 61.1429 211.94 62.8723 211.474 64.5449C210.967 66.3588 210.242 68.2141 208.983 69.6473C207.799 70.9964 206.144 71.6902 204.347 71.4781C202.173 71.2223 200.172 69.9576 198.587 68.5104C197.146 67.1963 195.794 65.505 195.251 63.594C194.849 64.3066 194.451 65.0239 194.004 65.7088C193.578 66.3598 192.921 67.3424 192.002 67.0782C191.52 66.9397 191.131 66.5449 190.808 66.183C190.277 65.5885 189.824 64.9251 189.387 64.2603C188.577 65.4619 187.605 66.5564 186.434 67.418C184.636 68.7397 182.344 69.4235 180.145 68.8139C177.702 68.1368 175.981 66.105 174.876 63.915C174.53 64.5459 174.118 65.1409 173.665 65.6998C171.914 67.8581 168.629 70.48 165.807 68.5874C165.697 68.5138 165.717 68.3795 165.787 68.308C165.725 68.2711 165.666 68.2324 165.606 68.194C165.343 69.283 166.035 70.4932 167.055 71.0009C168.136 71.5362 169.454 71.3981 170.561 70.918C171.671 70.4414 172.612 69.654 173.536 68.8768C177.616 73.0489 185.113 73.1629 189.319 69.1152C189.451 70.0995 190.301 70.9421 191.286 71.0665C192.269 71.1908 193.303 70.5865 193.672 69.6678C196.066 72.5206 199.683 74.3165 203.405 74.4925C207.13 74.6687 210.899 73.2251 213.552 70.6072C214.226 69.9406 214.831 69.2049 215.458 68.4901C215.969 69.5226 216.526 70.6072 217.504 71.2185C218.479 71.8298 220.005 71.7227 220.537 70.7004C221.886 71.9542 223.504 73.0661 225.345 73.2251C227.18 73.3874 229.224 72.3064 229.609 70.5035C230.611 72.7071 233.859 73.4634 235.736 71.9368L235.695 71.7606V71.7572C235.875 71.7227 236.051 71.6468 236.203 71.5397C236.964 72.928 239.645 71.7918 239.164 70.2757C240.439 72.8486 243.055 74.5652 245.824 75.3284C248.595 76.0882 251.524 76.0019 254.383 75.7324C257.487 75.4389 261.148 74.4684 262.093 71.5051C262.594 72.9246 264.137 73.8951 265.635 73.7362C267.128 73.5739 268.432 72.2995 268.622 70.8109C272.807 74.7689 278.896 76.6201 284.583 75.6634C287.269 75.211 290.132 73.8848 291.049 71.322C292.993 73.7639 296.41 74.9382 299.449 74.2025C300.352 73.9849 301.265 73.5774 301.808 72.8245C302.592 71.7373 302.317 70.2856 301.508 69.185Z" fill="#DAF8F8"/>
<path d="M168.7 67.0954C168.142 66.5034 167.292 66.4441 166.569 66.7597C165.751 67.1172 165.258 67.9181 165.313 68.8109C165.369 69.7565 165.964 70.6434 166.774 71.1196C167.785 71.7147 169.063 71.6854 170.149 71.331C171.51 70.8876 172.628 69.9505 173.706 69.045C173.592 69.045 173.479 69.045 173.366 69.045C176.666 72.38 182.015 73.1851 186.286 71.3825C187.473 70.8813 188.559 70.1758 189.493 69.2881C189.356 69.2523 189.22 69.2167 189.085 69.1808C189.258 70.2491 190.138 71.1473 191.22 71.3013C192.327 71.4588 193.441 70.8009 193.887 69.7897C193.757 69.8063 193.629 69.8228 193.501 69.8394C195.597 72.3178 198.577 74.0212 201.782 74.5627C205.039 75.1132 208.443 74.4242 211.26 72.7088C213.004 71.6468 214.304 70.1906 215.634 68.6693C215.502 68.6523 215.37 68.6354 215.238 68.6182C215.822 69.7925 216.522 71.1531 217.824 71.6558C218.851 72.0522 220.177 71.844 220.755 70.8281C220.622 70.8455 220.489 70.8624 220.356 70.8796C221.87 72.275 223.819 73.6247 225.981 73.4906C227.7 73.384 229.447 72.3278 229.857 70.5733C229.701 70.5936 229.543 70.6144 229.386 70.6347C230.513 73.0089 233.877 73.7286 235.917 72.1181C236.177 71.913 235.811 71.5517 235.554 71.7549C233.753 73.1757 230.801 72.4194 229.833 70.3748C229.737 70.1737 229.409 70.2296 229.361 70.4362C228.984 72.0422 227.321 72.9701 225.748 72.9854C223.805 73.004 222.083 71.7786 220.715 70.5211C220.597 70.4127 220.4 70.4255 220.316 70.5722C219.81 71.4674 218.548 71.52 217.723 71.0551C216.713 70.4867 216.168 69.3583 215.673 68.3636C215.604 68.2242 215.38 68.1955 215.278 68.3125C214.138 69.616 213.034 70.9121 211.592 71.8957C210.263 72.8031 208.777 73.4682 207.215 73.8595C204.117 74.6359 200.82 74.2364 197.983 72.7775C196.4 71.9641 194.997 70.8493 193.847 69.4924C193.752 69.3807 193.523 69.4032 193.462 69.5421C193.09 70.3885 192.174 70.9788 191.232 70.8116C190.351 70.6552 189.695 69.9144 189.554 69.0509C189.523 68.8613 189.267 68.8285 189.146 68.9434C185.91 72.0221 180.763 72.6518 176.745 70.8178C175.61 70.3005 174.581 69.5918 173.704 68.7055C173.608 68.6075 173.464 68.6223 173.366 68.7055C172.407 69.51 171.417 70.3522 170.228 70.7958C169.091 71.2202 167.648 71.2916 166.671 70.4586C165.921 69.8183 165.437 68.5798 166.087 67.7043C166.617 66.9904 167.77 66.6979 168.477 67.3185C168.629 67.4522 168.842 67.2446 168.7 67.0954Z" fill="#45163C"/>
<path d="M168.764 67.0591C168.927 64.442 170.774 62.0088 173.315 61.26C175.841 60.5157 178.713 61.5318 180.268 63.6338C180.37 63.7727 180.644 63.7916 180.682 63.5799C181.072 61.4293 184.171 60.5331 185.64 62.1638C185.766 62.3034 186.065 62.2022 186.04 61.9988C185.586 58.5244 187.558 54.8845 190.822 53.5075C194.084 52.1312 198.059 53.2644 200.236 56.0066C200.392 56.2038 200.76 55.99 200.666 55.7566C199.218 52.1592 198.973 47.744 201.217 44.4012C203.166 41.4969 206.994 39.7815 210.397 40.9588C210.548 41.011 210.734 40.8714 210.723 40.7112C210.256 34.3084 213.305 27.2766 219.878 25.3464C222.815 24.4837 226.111 24.7416 228.678 26.4916C231.041 28.1018 232.441 30.6948 233.07 33.4304C233.806 36.6296 233.604 40.0177 232.878 43.1982C232.819 43.4562 233.113 43.6148 233.307 43.448C234.672 42.2743 236.866 42.1576 238.274 43.3332C239.598 44.4377 239.997 46.4154 239.269 47.9613C239.156 48.2016 239.382 48.4192 239.621 48.3125C242.747 46.9079 246.366 48.759 248.233 51.3541C250.422 54.3989 250.747 58.3634 251.055 61.9777C251.079 62.272 251.453 62.3186 251.559 62.0458C253.113 58.0233 257.405 55.2683 261.726 55.6168C265.987 55.9603 269.715 59.297 270.672 63.4245C270.726 63.6604 271.124 63.6776 271.167 63.4245C271.412 61.9557 272.664 60.7393 274.186 60.6843C275.703 60.6294 277.038 61.8036 277.361 63.2421C277.396 63.3951 277.605 63.488 277.738 63.3955C282.969 59.7515 291.101 62.0517 293.653 67.8846C293.701 67.9931 293.84 68.0218 293.943 68.0023C295.983 67.6186 298.514 67.1444 300.356 68.4078C301.75 69.3638 302.716 71.5469 301.373 72.9456C300.063 74.3116 297.567 74.3517 295.847 73.9707C294.03 73.568 292.408 72.5785 291.231 71.1393C291.098 70.9756 290.864 71.0913 290.802 71.2524C289.324 75.1685 283.991 75.8485 280.385 75.6157C276.093 75.3384 271.946 73.5632 268.804 70.629C268.677 70.5102 268.408 70.5408 268.376 70.7419C268.162 72.085 267.124 73.2389 265.753 73.4623C264.313 73.6968 262.86 72.7695 262.343 71.4385C262.253 71.2047 261.934 71.1877 261.849 71.4385C260.502 75.4005 254.738 75.5998 251.306 75.6641C246.764 75.7494 241.642 74.5057 239.381 70.151C239.249 69.8971 238.853 70.0739 238.925 70.343C239.269 71.6292 237.101 72.5547 236.404 71.4205C236.247 71.1667 235.846 71.3995 236.003 71.6543C236.988 73.2558 239.869 72.0277 239.406 70.2103C239.254 70.2742 239.102 70.3381 238.95 70.402C240.655 73.778 244.31 75.5252 247.923 76.005C250.094 76.293 252.302 76.1957 254.473 75.9787C256.024 75.8236 257.585 75.5377 259.02 74.9118C260.537 74.2505 261.801 73.1705 262.343 71.5741C262.179 71.5741 262.014 71.5741 261.849 71.5741C262.438 73.0887 263.981 74.1549 265.636 73.9908C267.273 73.8284 268.616 72.4801 268.871 70.878C268.728 70.9155 268.585 70.9532 268.442 70.9909C271.046 73.4244 274.315 75.0901 277.812 75.7884C281.085 76.4422 284.817 76.3831 287.87 74.9063C289.407 74.1638 290.687 73.0051 291.298 71.3884C291.155 71.4261 291.012 71.4637 290.869 71.5013C292.996 74.104 296.759 75.3699 300.002 74.3131C301.434 73.8464 302.631 72.7505 302.528 71.146C302.439 69.7648 301.52 68.4531 300.324 67.7844C298.352 66.6821 295.91 67.1123 293.807 67.5082C293.903 67.5475 294 67.5866 294.097 67.6259C291.439 61.5529 282.919 59.1633 277.479 62.953C277.604 63.0041 277.731 63.0553 277.855 63.1064C277.483 61.4431 275.922 60.1248 274.186 60.1722C272.453 60.2194 270.954 61.6026 270.672 63.2887C270.837 63.2887 271.002 63.2887 271.167 63.2887C270.382 59.9076 267.856 57.0828 264.644 55.7939C261.271 54.44 257.439 55.1135 254.567 57.289C252.99 58.4833 251.777 60.0654 251.065 61.9098C251.232 61.9325 251.401 61.9553 251.569 61.9777C251.237 58.0826 250.871 53.7379 248.287 50.5884C246.189 48.0307 242.547 46.4381 239.363 47.8691C239.48 47.9861 239.597 48.1032 239.714 48.2203C240.566 46.4102 240.109 44.1018 238.498 42.8573C236.867 41.5981 234.478 41.766 232.945 43.0853C233.089 43.1685 233.232 43.2518 233.374 43.335C234.647 37.761 234.471 30.4844 229.637 26.5683C227.18 24.5786 223.94 23.9808 220.872 24.5759C217.668 25.1972 214.892 27.076 213.023 29.7329C210.797 32.8982 209.93 36.8883 210.21 40.7115C210.318 40.6291 210.426 40.5465 210.535 40.464C207.034 39.2528 203.115 40.9361 200.99 43.8337C198.453 47.2939 198.632 52.0701 200.171 55.8937C200.314 55.8104 200.457 55.7269 200.601 55.6436C198.302 52.7466 194.059 51.6169 190.636 53.0651C187.215 54.5125 185.088 58.3399 185.573 61.9991C185.706 61.9442 185.839 61.8893 185.972 61.834C184.28 59.9646 180.693 60.9706 180.246 63.4597C180.384 63.4418 180.522 63.4238 180.66 63.4054C178.981 61.1433 175.935 60.0347 173.204 60.8535C170.49 61.6669 168.55 64.2606 168.403 67.0595C168.389 67.2926 168.75 67.2909 168.764 67.0591Z" fill="#45163C"/>
<path d="M235.123 71.8295C235.873 72.1036 236.776 71.5663 236.887 70.7719C236.898 70.686 236.866 70.5992 236.773 70.5741C236.697 70.5529 236.59 70.6003 236.576 70.6862C236.475 71.2996 235.794 71.7815 235.176 71.6401C235.05 71.6118 235.004 71.7866 235.123 71.8295Z" fill="#45163C"/>
<path d="M249.652 61.9463C250.1 61.9559 250.546 62.0835 250.929 62.3166C251.116 62.4312 251.285 62.5693 251.436 62.7306C251.509 62.8104 251.576 62.8947 251.638 62.9852C251.666 63.028 251.691 63.0732 251.72 63.1158C251.768 63.1879 251.814 63.2017 251.874 63.2487C251.965 63.3205 252.136 63.286 252.128 63.1434C252.123 63.0598 252.134 62.9966 252.095 62.9165C252.069 62.8654 252.034 62.8187 252 62.7731C251.921 62.6671 251.837 62.5653 251.743 62.4712C251.559 62.2858 251.344 62.1248 251.114 62.0012C250.652 61.7535 250.141 61.6489 249.622 61.7215C249.49 61.7401 249.527 61.9435 249.652 61.9463Z" fill="#45163C"/>
<path d="M-16.1526 93.6961C-15.9197 93.404 -15.6472 93.1519 -15.3346 92.9392L-15.3879 92.8728C-16.5845 90.8676 -14.9822 88.0791 -12.7484 87.3621C-10.5213 86.6451 -8.07451 87.4616 -6.05346 88.6434C-9.17806 82.1964 -4.88317 73.3728 2.11719 71.8391C9.12446 70.3119 16.7169 76.533 16.5772 83.697C18.1795 79.8396 23.5246 78.6642 27.3077 80.437C31.0974 82.2098 33.4905 86.0406 35.0263 89.9248C38.1046 86.8772 44.2607 88.4175 45.5372 92.5475C45.883 90.9605 48.3295 90.5824 49.4133 91.7973C50.4968 93.0058 50.2046 95.0307 49.0941 96.2191C47.9906 97.4075 46.3019 97.8921 44.6796 97.9984C41.6612 98.1908 38.5832 97.2218 36.2164 95.336C34.9001 97.2945 31.5559 97.3478 30.1795 95.4354C28.5974 97.8786 24.2159 97.4804 23.0988 94.7983C18.7839 99.3993 10.7862 99.8707 5.95283 95.814C4.68984 97.9518 0.999796 97.9056 -0.203359 95.7342C-2.21784 98.0579 -4.84373 100.07 -7.90228 100.455C-10.9605 100.833 -14.4109 99.1136 -15.1755 96.1324C-16.5319 97.2742 -19.0979 96.783 -19.477 95.05C-19.856 93.3239 -16.8577 92.0425 -16.1729 93.6758L-16.1526 93.6961Z" fill="white"/>
<path d="M10.3007 75.596C7.66057 76.277 6.93743 79.786 6.75968 82.0734C6.73235 82.4236 6.17626 82.5522 6.10674 82.1614C5.85151 80.7272 5.45589 79.2145 4.56674 78.0291C4.09953 77.4061 3.4362 76.8539 2.63353 76.7734C1.92077 76.7018 1.23325 77.0127 0.703437 77.4717C-0.718284 78.704 -1.27887 80.6744 -1.43414 82.5373C-0.498669 81.4611 0.812733 80.7669 2.30328 80.8595C3.96051 80.9624 5.36423 81.9298 6.3087 83.2394C6.63551 82.2285 7.14113 81.2652 7.92237 80.5341C9.29637 79.2483 11.2559 78.9997 12.9629 79.736C14.0353 80.1987 14.8992 80.9858 15.5345 81.9349C15.4612 80.8274 15.2464 79.7315 14.8183 78.7036C14.0935 76.9637 12.4002 75.0541 10.3007 75.596Z" fill="#DAF8F8"/>
<path d="M49.4133 91.797C48.3295 90.5823 45.883 90.9605 45.5372 92.5475C45.4249 92.1842 45.263 91.8485 45.0804 91.5266C44.9559 91.7431 44.8325 91.9604 44.6976 92.171C44.0097 93.2441 43.1558 94.2944 42.0257 94.9249C39.11 96.552 36.2261 94.1703 34.3405 92.0252C33.9218 92.5723 33.357 92.9996 33.0271 93.6143C32.8825 93.8837 32.5111 93.7866 32.4195 93.5352C32.1874 92.8984 31.6317 92.4311 31.1416 91.99C30.7985 91.6809 30.4604 91.3705 30.1529 91.031C29.9277 91.8032 29.5622 92.5555 28.8989 93.0272C27.5951 93.9545 25.8935 93.1768 24.7402 92.3797C23.4271 91.472 22.2792 90.2739 21.3705 88.9529C20.5609 90.2949 19.6506 91.5929 18.5381 92.7001C16.9607 94.2695 14.8981 95.4106 12.6126 95.0331C10.1142 94.62 8.14852 92.6628 6.62375 90.7177C6.45083 91.5262 6.14615 92.3227 5.53852 92.8921C4.34298 94.0119 2.61691 93.579 1.32418 92.8807C-0.0449705 92.1413 -1.28201 91.0296 -2.19294 89.7524C-2.70753 90.6017 -3.38709 91.3726 -4.06285 92.0819C-4.98104 93.0465 -5.98326 93.9386 -7.06571 94.7154C-8.00016 95.3861 -9.05047 96.0301 -10.1865 96.2837C-11.0777 96.4823 -12.0471 96.3794 -12.681 95.6585C-13.306 94.9478 -13.4985 93.9604 -13.5425 92.9999C-14.0758 93.6713 -14.7557 94.2108 -15.5753 94.5312C-16.7339 94.9848 -18.0196 94.9278 -19.19 94.5506C-19.3369 94.5033 -19.4058 94.3889 -19.4171 94.2688C-19.5057 94.5115 -19.5386 94.7738 -19.478 95.0494C-19.099 96.782 -16.5329 97.2731 -15.1765 96.1313C-14.4119 99.1126 -10.9615 100.832 -7.90333 100.453C-4.84512 100.068 -2.21887 98.0565 -0.204393 95.7328C0.999108 97.9038 4.68881 97.9508 5.95179 95.8126C10.7852 99.8693 18.7832 99.3978 23.0978 94.7969C24.2146 97.4791 28.5959 97.8772 30.1785 95.4344C31.5545 97.3463 34.8987 97.2932 36.215 95.3346C38.5819 97.2203 41.6598 98.1897 44.6782 97.9971C46.3005 97.8907 47.9889 97.4062 49.0928 96.2177C50.2042 95.0303 50.4968 93.0054 49.4133 91.797Z" fill="#DAF8F8"/>
<path d="M-16.0577 93.6108C-16.647 92.2173 -18.5678 92.7349 -19.3203 93.6869C-20.4076 95.0617 -19.0246 96.6359 -17.5998 96.8939C-16.6899 97.059 -15.7513 96.857 -15.0282 96.274C-15.1423 96.244 -15.2565 96.2139 -15.3702 96.1839C-14.7802 98.3907 -12.8318 99.9072 -10.6783 100.466C-8.17654 101.115 -5.60941 100.36 -3.49741 98.9696C-2.2033 98.1176 -1.06586 97.05 -0.0494594 95.8861C-0.162546 95.8717 -0.27562 95.8572 -0.388707 95.8427C0.947246 98.1597 4.74656 98.2004 6.1427 95.9251C6.02892 95.9397 5.91514 95.9546 5.80136 95.9691C9.66397 99.1771 15.3688 99.6265 19.8387 97.4514C21.1162 96.8297 22.2775 95.9863 23.2555 94.9561C23.1401 94.9412 23.0245 94.9264 22.9094 94.9115C24.1478 97.7643 28.6575 98.1082 30.3693 95.5477C30.2421 95.5477 30.1152 95.5477 29.9879 95.5477C31.5193 97.5946 34.9396 97.5502 36.4069 95.4507C36.2914 95.4655 36.1756 95.4804 36.06 95.4951C38.9734 97.7891 43.1922 98.9879 46.8214 97.8513C48.4198 97.3509 49.8436 96.244 50.2285 94.5496C50.539 93.1825 50.0815 91.5518 48.6632 91.0268C47.3972 90.5581 45.6735 91.0724 45.3288 92.4929C45.4678 92.4929 45.6071 92.4929 45.7465 92.4929C44.6675 89.1497 40.6548 87.4484 37.3767 88.3532C36.4366 88.6126 35.579 89.0979 34.8805 89.7775C34.9972 89.8083 35.1142 89.8391 35.2311 89.8701C33.8851 86.4869 31.9409 83.1182 28.8408 81.0577C26.1955 79.2998 22.7821 78.8815 19.8488 80.1884C18.3236 80.8681 17.0506 82.0405 16.3908 83.5865C16.5239 83.6224 16.657 83.6584 16.7902 83.6945C16.8725 77.7545 11.8614 72.4818 6.11019 71.5416C3.30652 71.0833 0.45649 71.7403 -1.85679 73.3887C-4.07392 74.9692 -5.71904 77.2869 -6.60195 79.8513C-7.59829 82.7462 -7.57581 85.9695 -6.2454 88.7545C-6.14476 88.6541 -6.04378 88.5533 -5.94315 88.4527C-8.1793 87.1586 -11.2631 86.1094 -13.6891 87.5465C-15.4899 88.613 -16.683 91.0289 -15.5701 92.984C-15.4342 93.223 -15.0645 93.0079 -15.2008 92.7685C-16.2349 90.9518 -14.9583 88.7021 -13.2658 87.8176C-10.9999 86.6334 -8.20282 87.6552 -6.16586 88.8333C-5.96355 88.9504 -5.77232 88.7228 -5.86362 88.5315C-8.15304 83.7402 -6.33117 77.7231 -2.39629 74.3619C-0.337542 72.6034 2.30499 71.6677 5.01771 71.8504C7.84074 72.0405 10.5355 73.3556 12.5793 75.2827C14.892 77.4634 16.405 80.4827 16.3618 83.6942C16.3589 83.8921 16.6747 84.0048 16.7611 83.8024C17.938 81.0424 20.9782 79.7615 23.8466 79.8482C27.2514 79.9508 30.0854 82.0975 32.0301 84.7607C33.1987 86.3612 34.0963 88.1447 34.8271 89.9818C34.8842 90.125 35.0554 90.1931 35.1778 90.0742C38.1852 87.15 44.0644 88.5992 45.3298 92.6083C45.3916 92.8047 45.6939 92.8231 45.7475 92.6083C46.0342 91.4592 47.4314 91.0817 48.4544 91.435C49.8329 91.9109 50.0781 93.6091 49.6582 94.8279C48.5744 97.9726 44.138 98.1 41.4481 97.5388C39.6018 97.1533 37.856 96.3511 36.374 95.1841C36.2565 95.0915 36.1157 95.1022 36.0271 95.2286C34.7618 97.0393 31.6973 97.099 30.371 95.3256C30.2702 95.1909 30.0882 95.1781 29.9896 95.3256C28.442 97.6399 24.3893 97.2144 23.2919 94.6898C23.2352 94.5592 23.0343 94.5517 22.9457 94.6452C19.6112 98.1597 14.1813 99.2255 9.65395 97.6531C8.36538 97.2055 7.15979 96.5341 6.11052 95.6627C6.00263 95.5733 5.84769 95.5791 5.7692 95.7065C4.54078 97.709 1.15924 97.6545 -0.0138288 95.6254C-0.0795366 95.5118 -0.261106 95.4762 -0.353096 95.5819C-2.00791 97.4808 -4.03862 99.1931 -6.48851 99.9363C-8.64305 100.59 -11.0172 100.322 -12.8754 99.0059C-13.8879 98.2886 -14.6499 97.279 -14.9735 96.0761C-15.0167 95.9155 -15.2004 95.8924 -15.316 95.9859C-16.4848 96.932 -19.2242 96.686 -19.3051 94.8024C-19.3639 93.4367 -16.967 92.3299 -16.2797 93.7424C-16.2075 93.8941 -15.9945 93.76 -16.0577 93.6108Z" fill="#45163C"/>
<path d="M21.7243 93.5798C22.2689 93.9945 22.9647 94.1672 23.6436 94.1102C23.9752 94.0823 24.2948 94.0025 24.5994 93.8685C24.8931 93.7393 25.2483 93.5438 25.4333 93.2728C25.5152 93.1525 25.3524 92.9916 25.2324 93.0721C25.1107 93.1536 25.0096 93.2627 24.8893 93.3474C24.7624 93.4367 24.6271 93.5138 24.4867 93.5791C24.209 93.7079 23.8994 93.7891 23.5948 93.817C22.9779 93.8736 22.3564 93.7262 21.841 93.3805C21.7145 93.2963 21.6091 93.4924 21.7243 93.5798Z" fill="#45163C"/>
</g>
</g>
<defs>
<clipPath id="clip0_21_85">
<rect width="664" height="373" fill="white"/>
</clipPath>
</defs>
</svg>
