<?xml version="1.0" encoding="utf-8"?>
<!-- Generator: Adobe Illustrator 27.5.0, SVG Export Plug-In . SVG Version: 6.00 Build 0)  -->
<svg version="1.1" xmlns="http://www.w3.org/2000/svg" xmlns:xlink="http://www.w3.org/1999/xlink" x="0px" y="0px"
	 viewBox="0 0 500 500" style="enable-background:new 0 0 500 500;" xml:space="preserve">
<g id="BACKGROUND">
	<rect style="fill:#FFFFFF;" width="500" height="500"/>
</g>
<g id="OBJECTS">
	<g>
		<path style="fill:#C6361E;" d="M59.665,427.358h-5.108c-0.163-0.583-0.392-1.138-0.685-1.654l3.612-3.611
			c0.781-0.781,0.781-2.047,0-2.828c-0.78-0.781-2.048-0.781-2.828,0l-3.612,3.611c-0.516-0.292-1.071-0.522-1.653-0.685v-5.107
			c0-1.105-0.896-2-2-2s-2,0.895-2,2v5.107c-0.583,0.163-1.138,0.393-1.654,0.685l-3.611-3.611c-0.781-0.78-2.047-0.782-2.829,0
			c-0.781,0.78-0.781,2.047,0,2.828l3.611,3.611c-0.292,0.517-0.521,1.071-0.685,1.654h-5.107c-1.104,0-2,0.896-2,2s0.896,2,2,2
			h5.107c0.163,0.583,0.393,1.137,0.685,1.653l-3.611,3.612c-0.781,0.781-0.781,2.048,0,2.828c0.391,0.391,0.902,0.586,1.414,0.586
			c0.512,0,1.024-0.195,1.415-0.586l3.611-3.612c0.517,0.293,1.071,0.521,1.654,0.685v5.108c0,1.104,0.896,2,2,2s2-0.896,2-2v-5.108
			c0.583-0.163,1.137-0.392,1.654-0.685l3.611,3.612c0.39,0.391,0.902,0.586,1.414,0.586c0.512,0,1.024-0.195,1.414-0.586
			c0.781-0.781,0.781-2.047,0-2.828l-3.611-3.612c0.292-0.516,0.521-1.07,0.684-1.653h5.108c1.104,0,2-0.896,2-2
			S60.769,427.358,59.665,427.358z M47.39,432.806c-1.901,0-3.448-1.547-3.448-3.447s1.547-3.447,3.448-3.447
			c1.901,0,3.447,1.547,3.447,3.447S49.291,432.806,47.39,432.806z"/>
		<path style="fill:#E56730;" d="M457.228,33.346h-5.107c-0.163-0.583-0.393-1.138-0.686-1.654l3.612-3.611
			c0.781-0.781,0.781-2.047,0-2.828c-0.78-0.781-2.048-0.781-2.828,0l-3.612,3.611c-0.516-0.292-1.07-0.521-1.653-0.684v-5.108
			c0-1.104-0.896-2-2-2c-1.105,0-2,0.896-2,2v5.107c-0.583,0.163-1.138,0.393-1.653,0.685l-3.612-3.611
			c-0.781-0.781-2.047-0.781-2.828,0c-0.781,0.781-0.781,2.048,0,2.828l3.611,3.611c-0.292,0.516-0.521,1.071-0.685,1.654h-5.107
			c-1.104,0-2,0.896-2,2s0.896,2,2,2h5.107c0.163,0.583,0.393,1.137,0.685,1.653l-3.611,3.612c-0.781,0.781-0.781,2.048,0,2.828
			c0.391,0.391,0.902,0.586,1.414,0.586c0.512,0,1.024-0.195,1.415-0.586l3.61-3.612c0.517,0.293,1.071,0.522,1.654,0.685v5.108
			c0,1.104,0.895,2,2,2c1.104,0,2-0.896,2-2v-5.108c0.583-0.163,1.138-0.393,1.654-0.685l3.61,3.612
			c0.391,0.391,0.902,0.586,1.415,0.586c0.512,0,1.023-0.195,1.413-0.585c0.781-0.781,0.782-2.048,0.001-2.829L451.436,39
			c0.292-0.516,0.522-1.071,0.685-1.654h5.107c1.105,0,2-0.896,2-2S458.333,33.346,457.228,33.346z M444.954,38.793
			c-1.9,0-3.447-1.547-3.447-3.447c0-1.9,1.547-3.447,3.447-3.447c1.901,0,3.447,1.547,3.447,3.447
			C448.401,37.247,446.855,38.793,444.954,38.793z"/>
		<path style="fill:#279B9B;" d="M477.848,118.61h-3.853c-0.123-0.44-0.296-0.858-0.517-1.248l2.725-2.724
			c0.589-0.589,0.589-1.544,0-2.133c-0.589-0.589-1.545-0.589-2.134,0l-2.724,2.724c-0.39-0.22-0.808-0.393-1.248-0.516v-3.853
			c0-0.833-0.675-1.508-1.508-1.508c-0.834,0-1.509,0.675-1.509,1.508v3.853c-0.44,0.123-0.858,0.296-1.248,0.516l-2.724-2.724
			c-0.59-0.589-1.545-0.589-2.134,0c-0.589,0.589-0.589,1.545,0,2.133l2.725,2.724c-0.221,0.39-0.394,0.808-0.517,1.248h-3.854
			c-0.833,0-1.509,0.675-1.509,1.508c0,0.833,0.676,1.509,1.509,1.509h3.854c0.123,0.44,0.296,0.858,0.516,1.248l-2.724,2.724
			c-0.589,0.589-0.589,1.545,0,2.133c0.295,0.295,0.681,0.442,1.066,0.442c0.386,0,0.772-0.148,1.067-0.442l2.724-2.724
			c0.39,0.221,0.808,0.394,1.248,0.517v3.852c0,0.833,0.675,1.509,1.509,1.509c0.833,0,1.508-0.676,1.508-1.509v-3.853
			c0.44-0.122,0.858-0.296,1.248-0.516l2.724,2.724c0.295,0.295,0.681,0.442,1.066,0.442c0.387,0,0.773-0.148,1.066-0.441
			c0.59-0.589,0.59-1.545,0.001-2.134l-2.725-2.724c0.221-0.39,0.394-0.808,0.517-1.248h3.853c0.834,0,1.509-0.676,1.509-1.509
			C479.356,119.286,478.682,118.61,477.848,118.61z M468.59,122.719c-1.435,0-2.602-1.167-2.602-2.601c0-1.434,1.167-2.6,2.602-2.6
			c1.434,0,2.6,1.166,2.6,2.6C471.189,121.552,470.023,122.719,468.59,122.719z"/>
		<g>
			<g>
				<g>
					<path style="fill:#C6361E;" d="M379.106,92.238c-0.512,0-1.023-0.195-1.414-0.586c-0.781-0.781-0.781-2.047,0-2.828
						l11.668-11.667c0.781-0.781,2.047-0.781,2.828,0c0.781,0.781,0.781,2.047,0,2.828L380.52,91.652
						C380.13,92.043,379.618,92.238,379.106,92.238z"/>
				</g>
				<g>
					<path style="fill:#C6361E;" d="M390.774,92.238c-0.512,0-1.023-0.195-1.414-0.586l-11.668-11.667
						c-0.781-0.781-0.781-2.047,0-2.828c0.781-0.781,2.047-0.781,2.828,0l11.668,11.667c0.781,0.781,0.781,2.047,0,2.828
						C391.798,92.043,391.286,92.238,390.774,92.238z"/>
				</g>
			</g>
		</g>
		<g>
			<g>
				<path style="fill:#279B9B;" d="M103.234,458.05h-16.5c-1.104,0-2-0.896-2-2s0.896-2,2-2h16.5c1.104,0,2,0.896,2,2
					S104.339,458.05,103.234,458.05z"/>
			</g>
			<g>
				<path style="fill:#279B9B;" d="M94.984,466.3c-1.104,0-2-0.896-2-2v-16.5c0-1.104,0.896-2,2-2s2,0.896,2,2v16.5
					C96.984,465.404,96.089,466.3,94.984,466.3z"/>
			</g>
		</g>
		<path style="fill:#C6361E;" d="M32.63,50.519c0,2.312-1.874,4.185-4.186,4.185c-2.311,0-4.185-1.874-4.185-4.185
			c0-2.312,1.874-4.185,4.185-4.185C30.756,46.333,32.63,48.207,32.63,50.519z"/>
		<path style="fill:#279B9B;" d="M366.298,23.72c0,1.463-1.187,2.649-2.65,2.649c-1.463,0-2.648-1.186-2.648-2.649
			s1.185-2.648,2.648-2.648C365.111,21.072,366.298,22.257,366.298,23.72z"/>
		<path style="fill:#279B9B;" d="M437.603,438.761c0,1.271-1.03,2.302-2.302,2.302c-1.271,0-2.302-1.03-2.302-2.302
			c0-1.271,1.03-2.302,2.302-2.302C436.573,436.459,437.603,437.489,437.603,438.761z"/>
		<path style="fill:#279B9B;" d="M487.554,337.099c0,2.264-1.835,4.099-4.099,4.099s-4.099-1.835-4.099-4.099
			c0-2.264,1.835-4.099,4.099-4.099S487.554,334.835,487.554,337.099z"/>
		<path style="fill:#279B9B;" d="M63.278,289.702c0,2.598-2.105,4.703-4.703,4.703c-2.597,0-4.703-2.105-4.703-4.703
			c0-2.597,2.105-4.702,4.703-4.702C61.172,285,63.278,287.105,63.278,289.702z"/>
		<path style="fill:#279B9B;" d="M132.158,261.866c0,0.723-0.586,1.309-1.309,1.309c-0.723,0-1.309-0.586-1.309-1.309
			c0-0.723,0.586-1.309,1.309-1.309C131.572,260.558,132.158,261.144,132.158,261.866z"/>
		<path style="fill:#E56730;" d="M307.525,420.814c0,2.475-2.007,4.481-4.482,4.481c-2.475,0-4.48-2.007-4.48-4.481
			c0-2.474,2.006-4.48,4.48-4.48C305.519,416.333,307.525,418.34,307.525,420.814z"/>
		<g>
			<g>
				<path style="fill:#E56730;" d="M100.169,109.352c-0.512,0-1.023-0.195-1.414-0.586c-0.781-0.781-0.781-2.047,0-2.828
					l11.668-11.667c0.781-0.781,2.047-0.781,2.828,0c0.781,0.781,0.781,2.047,0,2.828l-11.668,11.667
					C101.193,109.156,100.681,109.352,100.169,109.352z"/>
			</g>
			<g>
				<path style="fill:#E56730;" d="M111.837,109.352c-0.512,0-1.023-0.195-1.414-0.586L98.755,97.099
					c-0.781-0.781-0.781-2.047,0-2.828c0.781-0.781,2.047-0.781,2.828,0l11.668,11.667c0.781,0.781,0.781,2.047,0,2.828
					C112.861,109.156,112.349,109.352,111.837,109.352z"/>
			</g>
		</g>
	</g>
	<g>
		<text transform="matrix(1 0 0 1 129.5405 225.6499)"><tspan x="0" y="0" style="fill:#212042;stroke:#212042;stroke-width:6;stroke-miterlimit:10; font-family:'Quicksand-Bold'; font-size:138.4468px; letter-spacing:-10;">4</tspan><tspan x="81.543" y="0" style="fill:#212042;stroke:#212042;stroke-width:6;stroke-miterlimit:10; font-family:'Quicksand-Bold'; font-size:138.4468px; letter-spacing:-19;">0</tspan><tspan x="160.318" y="0" style="fill:#212042;stroke:#212042;stroke-width:6;stroke-miterlimit:10; font-family:'Quicksand-Bold'; font-size:138.4468px; letter-spacing:-10;">4</tspan></text>
		<text transform="matrix(1 0 0 1 127.0742 222.3613)"><tspan x="0" y="0" style="fill:#279B9B; font-family:'Quicksand-Bold'; font-size:138.4468px; letter-spacing:-10;">4</tspan><tspan x="81.543" y="0" style="fill:#279B9B; font-family:'Quicksand-Bold'; font-size:138.4468px; letter-spacing:-19;">0</tspan><tspan x="160.318" y="0" style="fill:#279B9B; font-family:'Quicksand-Bold'; font-size:138.4468px; letter-spacing:-10;">4</tspan></text>
		<g>
			<text transform="matrix(1 0 0 1 127.0742 222.3613)"><tspan x="0" y="0" style="fill:none;stroke:#212042;stroke-width:2;stroke-miterlimit:10; font-family:'Quicksand-Bold'; font-size:138.4468px; letter-spacing:-10;">4</tspan><tspan x="81.543" y="0" style="fill:none;stroke:#212042;stroke-width:2;stroke-miterlimit:10; font-family:'Quicksand-Bold'; font-size:138.4468px; letter-spacing:-19;">0</tspan><tspan x="160.318" y="0" style="fill:none;stroke:#212042;stroke-width:2;stroke-miterlimit:10; font-family:'Quicksand-Bold'; font-size:138.4468px; letter-spacing:-10;">4</tspan></text>
		</g>
	</g>
	<g>
		<g>
			<polygon style="fill:#E56730;" points="113.803,229.511 113.426,226.922 110.424,227.359 110.889,230.553 			"/>
			<polygon style="fill:#E56730;" points="24.717,259.402 24.259,256.259 30.738,254.364 29.452,259.05 			"/>
			<path style="fill:#E56730;" d="M26.569,260.538l70.403-10.247c0,0,2.145-0.485,2.409-0.834l0.929-1.224l13.185-17.37
				c0.901-1.188-0.091-2.871-1.567-2.656l-66.783,9.72c-0.359,0.053-0.691,0.221-0.946,0.479L25.143,257.72
				C24.021,258.856,24.988,260.769,26.569,260.538z"/>
			<path style="fill:#C44127;" d="M26.184,257.896l70.403-10.247c0,0,2.145-0.485,2.409-0.834l0.929-1.224l13.185-17.37
				c0.901-1.188-0.091-2.871-1.567-2.656l-66.783,9.72c-0.359,0.052-0.691,0.22-0.946,0.479l-19.055,19.313
				C23.637,256.214,24.604,258.125,26.184,257.896z"/>
		</g>
		<path style="fill:#E56730;" d="M45.191,245.026l2.52-104.124c0.021-0.885,0.678-1.626,1.554-1.753l8.934-1.3
			c0.843-0.122,1.658,0.357,1.96,1.154l36.707,96.878c0.332,0.875-0.052,1.862-0.894,2.272c-5.395,2.63-25.052,11.143-49.153,8.73
			C45.878,246.79,45.168,245.972,45.191,245.026z"/>
		<g>
			<defs>
				<path id="SVGID_1_" d="M45.191,245.026l2.52-104.124c0.021-0.885,0.678-1.626,1.554-1.753l8.934-1.3
					c0.843-0.122,1.658,0.357,1.96,1.154l36.707,96.878c0.332,0.875-0.052,1.862-0.894,2.272c-5.395,2.63-25.052,11.143-49.153,8.73
					C45.878,246.79,45.168,245.972,45.191,245.026z"/>
			</defs>
			<clipPath id="SVGID_00000014592170683421297610000018324318418196701881_">
				<use xlink:href="#SVGID_1_"  style="overflow:visible;"/>
			</clipPath>
			<g style="clip-path:url(#SVGID_00000014592170683421297610000018324318418196701881_);">
				<g>
					<path style="fill:#FFFFFF;" d="M21.594,227.067c16.524,3.175,34.245,0.765,50.609-2.346
						c16.905-3.213,33.503-8.253,49.301-15.073c7.882-3.403,2.545-15.648-5.368-12.232c-14.743,6.365-30.08,11.092-45.857,14.09
						c-15.285,2.905-31.583,5.273-47.027,2.306c-3.541-0.681-7.033,2.387-7.456,5.798C15.326,223.393,18.04,226.384,21.594,227.067
						L21.594,227.067z"/>
				</g>
				<g>
					<path style="fill:#FFFFFF;" d="M17.747,200.636c16.524,3.175,34.245,0.765,50.609-2.346
						c16.905-3.213,33.502-8.253,49.301-15.073c7.882-3.403,2.545-15.648-5.368-12.232c-14.743,6.365-30.08,11.092-45.857,14.09
						c-15.285,2.905-31.583,5.274-47.027,2.306c-3.542-0.681-7.033,2.387-7.457,5.798C11.479,196.962,14.193,199.953,17.747,200.636
						L17.747,200.636z"/>
				</g>
				<g>
					<path style="fill:#FFFFFF;" d="M13.9,174.205c16.524,3.175,34.245,0.765,50.609-2.346c16.905-3.213,33.502-8.253,49.301-15.073
						c7.882-3.403,2.545-15.648-5.368-12.232c-14.743,6.365-30.08,11.092-45.856,14.09c-15.285,2.905-31.583,5.273-47.027,2.306
						c-3.542-0.681-7.033,2.387-7.457,5.798C7.632,170.531,10.346,173.522,13.9,174.205L13.9,174.205z"/>
				</g>
			</g>
		</g>
		<path style="fill:#C44127;" d="M59.11,138.819c0.11,0.756-2.242,1.049-5.135,1.47c-2.893,0.421-5.246,0.707-5.341,0.054
			c-0.112-0.768,2.242-1.049,5.135-1.47C56.662,138.452,59.007,138.11,59.11,138.819z"/>
	</g>
	<g>
		<g>
			<defs>
				<path id="SVGID_00000085244991311385865240000008592220524970892729_" d="M434.395,208.946c2.353-3.029,7.103-2.374,8.55,1.179
					l18.019,44.267l18.018,44.267c1.446,3.553-1.496,7.339-5.296,6.815l-47.346-6.529l-47.345-6.528
					c-3.801-0.524-5.608-4.966-3.254-7.995l29.326-37.737L434.395,208.946z"/>
			</defs>
			<use xlink:href="#SVGID_00000085244991311385865240000008592220524970892729_"  style="overflow:visible;fill:#FFFFFF;"/>
			<clipPath id="SVGID_00000169543209413055729380000014305295036912136082_">
				<use xlink:href="#SVGID_00000085244991311385865240000008592220524970892729_"  style="overflow:visible;"/>
			</clipPath>
			<g style="clip-path:url(#SVGID_00000169543209413055729380000014305295036912136082_);">
				<g>
					<g>
						<path style="fill:#279B9B;" d="M432.788,243.781c-0.021-0.002-0.043-0.003-0.064-0.006c-0.385-0.054-0.654-0.409-0.601-0.794
							l1.694-12.22c0.206-1.488,0.729-2.529,1.597-3.183c1.813-1.362,4.827-0.929,9.825-0.211c0.661,0.096,1.355,0.195,2.087,0.297
							c4.19,0.581,7.733,0.501,8.688-6.376c0.956-6.897,0.507-9.183-15.23-11.364c-9.254-1.283-14.612-3.27-16.864-6.251
							c-1.839-2.435-1.448-5.209-1.071-7.891l0.056-0.399c0.053-0.386,0.417-0.656,0.794-0.601c0.385,0.053,0.654,0.409,0.601,0.793
							l-0.057,0.402c-0.368,2.618-0.686,4.878,0.802,6.847c1.983,2.628,7.195,4.494,15.934,5.706
							c15.776,2.187,17.59,4.584,16.431,12.951c-1.13,8.15-5.898,8.184-10.275,7.578c-0.733-0.102-1.432-0.202-2.094-0.298
							c-4.477-0.644-7.435-1.07-8.778-0.058c-0.561,0.423-0.895,1.139-1.049,2.251l-1.694,12.22
							C433.468,243.538,433.147,243.798,432.788,243.781z"/>
					</g>
					<g>
						<g>
							<g>
								<path style="fill:#212042;" d="M439.33,255.566c-0.932,6.72-5.535,11.634-10.283,10.976
									c-4.748-0.658-7.842-6.639-6.91-13.359c0.932-6.719,2.338-12.077,10.283-10.975
									C440.365,243.309,440.262,248.847,439.33,255.566z"/>
							</g>
						</g>
						<g>
							<path style="fill:#279B9B;" d="M438.573,252.883c-0.011-0.001-0.021-0.002-0.032-0.003l-14.914-2.067
								c-0.193-0.027-0.327-0.205-0.301-0.396c0.026-0.194,0.203-0.322,0.396-0.301l14.915,2.067
								c0.192,0.027,0.327,0.205,0.301,0.396C438.913,252.761,438.753,252.892,438.573,252.883z"/>
						</g>
						<g>
							<path style="fill:#279B9B;" d="M431.427,250.064c-0.032-0.001-0.063-0.004-0.095-0.009c-0.969-0.135-1.513-1.589-1.264-3.384
								c0.111-0.8,0.369-1.536,0.725-2.073c0.408-0.612,0.911-0.91,1.411-0.841c0.97,0.135,1.513,1.59,1.264,3.385l0,0
								c-0.111,0.799-0.369,1.535-0.727,2.072C432.36,249.788,431.896,250.086,431.427,250.064z M432.081,244.452
								c-0.209-0.01-0.469,0.188-0.7,0.537c-0.301,0.451-0.519,1.083-0.615,1.779c-0.194,1.403,0.19,2.525,0.663,2.591
								c0.217,0.031,0.486-0.171,0.729-0.534c0.299-0.45,0.518-1.082,0.614-1.779c0.194-1.403-0.189-2.525-0.663-2.591
								C432.1,244.453,432.09,244.452,432.081,244.452z M433.12,247.094l0.007,0L433.12,247.094z"/>
						</g>
					</g>
				</g>
				<g>
					<g>
						<g>
							<path style="fill:#E0B890;" d="M435.567,290.605c-0.728-0.101-1.237-0.773-1.136-1.502l3.858-27.84
								c0.102-0.728,0.773-1.236,1.502-1.136c0.728,0.101,1.236,0.773,1.136,1.502l-3.858,27.84
								C436.968,290.197,436.295,290.706,435.567,290.605z"/>
						</g>
						<g>
							<path style="fill:#E0B890;" d="M431.386,286.289c-0.727-0.101-1.236-0.773-1.136-1.501l3.859-27.84
								c0.101-0.729,0.773-1.237,1.501-1.136c0.729,0.101,1.237,0.773,1.136,1.501l-3.858,27.84
								C432.787,285.882,432.114,286.391,431.386,286.289z"/>
						</g>
						<g>
							<path style="fill:#E0B890;" d="M426.355,283.8c-0.728-0.101-1.237-0.773-1.137-1.501l3.859-27.84
								c0.101-0.729,0.773-1.237,1.501-1.137c0.728,0.102,1.237,0.773,1.137,1.502l-3.859,27.84
								C427.756,283.393,427.083,283.901,426.355,283.8z"/>
						</g>
						<g>
							<path style="fill:#E0B890;" d="M420.715,285.706c-0.728-0.101-1.237-0.773-1.137-1.501l3.859-27.84
								c0.101-0.729,0.773-1.237,1.502-1.137c0.728,0.102,1.236,0.774,1.136,1.502l-3.859,27.84
								C422.115,285.299,421.442,285.808,420.715,285.706z"/>
						</g>
						<g>
							<path style="fill:#E0B890;" d="M422.155,285.01c-6.058-0.84-8.784-6.283-8.102-16.18c0.021-0.301,0.04-0.531,0.042-0.673
								c-0.09-0.565,0.194-1.146,0.736-1.407c0.659-0.321,1.457-0.044,1.777,0.62c0.188,0.388,0.168,0.678,0.101,1.643
								c-0.577,8.368,1.324,12.738,5.81,13.359c0.729,0.102,1.237,0.774,1.136,1.502
								C423.556,284.603,422.883,285.111,422.155,285.01z M414.211,268.526c0.001,0,0,0.001,0.001,0.001
								C414.211,268.527,414.212,268.526,414.211,268.526z M414.211,268.524C414.211,268.525,414.211,268.525,414.211,268.524
								C414.211,268.525,414.211,268.525,414.211,268.524z"/>
						</g>
					</g>
					<g>
						
							<rect x="418.809" y="274.397" transform="matrix(0.1373 -0.9905 0.9905 0.1373 89.2664 669.2605)" style="fill:#E0B890;" width="20.081" height="17.973"/>
					</g>
					<g>
						<g>
							<path style="fill:#212042;" d="M438.006,288.703c-0.23,0.043-19.562-2.712-19.562-2.712l-1.893,13.664l19.561,2.711
								l1.772-12.784"/>
						</g>
					</g>
				</g>
			</g>
		</g>
		<path style="fill:none;stroke:#C6361E;stroke-width:11;stroke-miterlimit:10;" d="M434.395,208.946
			c2.353-3.029,7.103-2.374,8.55,1.179l18.019,44.267l18.018,44.267c1.446,3.553-1.496,7.339-5.296,6.815l-47.346-6.529
			l-47.345-6.528c-3.801-0.524-5.608-4.966-3.254-7.995l29.326-37.737L434.395,208.946z"/>
	</g>
	<g>
		<text transform="matrix(1 0 0 1 161.3242 316.3018)"><tspan x="0" y="0" style="fill:#C44127; font-family:'Quicksand-Bold'; font-size:53.9399px;">Sorry, </tspan><tspan x="-61.008" y="37.398" style="fill:#E56730; font-family:'Quicksand-Bold'; font-size:31.1653px;">we’re working on it</tspan></text>
		
			<text transform="matrix(1 0 0 1 63.2773 387.833)" style="fill:#F29038; font-family:'Quicksand-Regular'; font-size:23px; letter-spacing:-1;">and we&apos;ll get it fixed as soon as we can</text>
	</g>
	<g>
		
			<text transform="matrix(1 0 0 1 204.3853 101.5183)" style="fill:#279B9B;stroke:#279B9B;stroke-width:2;stroke-linecap:round;stroke-linejoin:round;stroke-miterlimit:10; font-family:'Quicksand-Regular'; font-size:30.9663px; letter-spacing:-2;">ERROR</text>
	</g>
</g>
</svg>
