<?xml version="1.0" encoding="utf-8"?>
<!-- Generator: Adobe Illustrator 27.5.0, SVG Export Plug-In . SVG Version: 6.00 Build 0)  -->
<svg version="1.1" xmlns="http://www.w3.org/2000/svg" xmlns:xlink="http://www.w3.org/1999/xlink" x="0px" y="0px"
	 viewBox="0 0 1040 500" style="enable-background:new 0 0 1040 500;" xml:space="preserve">
<g id="BACKGROUND">
	<g>
		<defs>
			<rect id="SVGID_1_" width="1040" height="500"/>
		</defs>
		<clipPath id="SVGID_00000144297754365463569440000003603475841680564888_">
			<use xlink:href="#SVGID_1_"  style="overflow:visible;"/>
		</clipPath>
			<!-- <rect style="clip-path:url(#SVGID_00000144297754365463569440000003603475841680564888_);fill:#FFFFFF;" width="1040" height="500"/> -->
		<path style="clip-path:url(#SVGID_00000144297754365463569440000003603475841680564888_);fill:#F0F5E4;" d="M1248.186,114.574
			c-6.778-30.347-19.017-59.265-37.209-84.51c-38.208-53.021-104.302-87.12-169.205-79.46
			C966.998-40.571,890.89-30.271,811.029,59.316c-77.287,86.699-99.042,135.222-212.807,155.042
			C520,227.986,454.822,259.253,424.956,299.013c-28.11,37.423-38.642,87.581-29.901,133.366
			c11.935,62.514,55.986,116.041,110.673,148.595c54.687,32.554,119.1,45.83,182.704,48.027
			c186.534,6.444,357.654,2.087,468.298-148.227c38.742-52.632,84.894-199.218,94.65-263.839
			C1256.49,183.082,1255.644,147.964,1248.186,114.574z"/>
	</g>
</g>
<g mask="url(&quot;#SvgjsMask1105&quot;)" fill="none">
  <path d="M-37.68 660.65 a171.98 171.98 0 1 0 343.96 0 a171.98 171.98 0 1 0 -343.96 0z" fill="rgba(240, 245, 228, 1)" class="triangle-float1"></path>
  <path d="M350.4 321.48 a248.79 248.79 0 1 0 497.58 0 a248.79 248.79 0 1 0 -497.58 0z" fill="rgba(240, 245, 228, 1)" class="triangle-float1"></path>
  <path d="M-80.06 149.28 a132.39 132.39 0 1 0 264.78 0 a132.39 132.39 0 1 0 -264.78 0z" fill="rgba(240, 245, 228, 1)" class="triangle-float2"></path>
  <path d="M1072.48 749.65 a164.18 164.18 0 1 0 328.36 0 a164.18 164.18 0 1 0 -328.36 0z" fill="rgba(240, 245, 228, 1)" class="triangle-float3"></path>
</g>
<g id="OBJECTS">
	<g>
		<defs>
			<rect id="SVGID_00000028298636556260647400000005253813572979972759_" width="1040" height="500"/>
		</defs>
		<clipPath id="SVGID_00000076580427177928464310000009028562193499307184_">
			<use xlink:href="#SVGID_00000028298636556260647400000005253813572979972759_"  style="overflow:visible;"/>
		</clipPath>
		<path style="clip-path:url(#SVGID_00000076580427177928464310000009028562193499307184_);fill:#DDE6CA;" d="M1078.768,436.807
			c0,2.821-118.953,5.108-265.689,5.108s-265.689-2.287-265.689-5.108c0-2.821,118.953-5.108,265.689-5.108
			S1078.768,433.986,1078.768,436.807z"/>
		<g style="clip-path:url(#SVGID_00000076580427177928464310000009028562193499307184_);">
			<g>
				<g>
					<g>
						<g>
							<path style="fill:#67A13A;" d="M808.568,135.043c-5.38,20.712-11.902,41.735-17.309,62.185
								c-1.551,5.867-2.783,11.664-4.774,17.833c-1.991,6.169-9.926,22.056-14.07,28.445c16.429-20.825,30.783-49.276,35.913-73.728
								C810.799,157.991,810.9,144.442,808.568,135.043z"/>
						</g>
						<g>
							<path style="fill:#599035;" d="M840.146,137.254c-5.261,13.991-10.539,26.564-17.909,39.298
								c-5.389,9.311-10.156,15.336-16.787,23.882c-7.593,9.786-19.704,23.593-19.704,23.593
								c9.121-19.611,19.488-40.13,31.684-58.059C824.316,155.845,832.263,146.562,840.146,137.254z"/>
						</g>
						<path style="fill:#4E7C30;" d="M794.521,151.713c-4.545,33.105-10.375,56.341-26.283,89.602
							c-3.297,6.893-12.621,24.743-17.94,31.427c20.572-20.44,40.607-52.413,46.087-80.311
							C799.328,177.445,798.398,163.288,794.521,151.713z"/>
						<path style="fill:#4E7C30;" d="M844.419,158.051c-14.418,27.215-35.829,50.161-55.946,70.773
							c-8.072,8.271-16.347,17.534-24.771,25.988c17.555-23.212,32.774-49.171,52.629-70.022
							C825.325,175.347,834.662,166.346,844.419,158.051z"/>
					</g>
				</g>
				<g>
					<g>
						<g>
							<path style="fill:#96C335;" d="M831.641,115.071c-10.723,16.53-21.071,33.873-31.61,50.244
								c-3.024,4.697-6.163,9.178-9.16,14.308c-2.997,5.13-9.296,19.835-11.346,26.257c5.206-22.483,16.413-48.895,29.691-67.759
								C815.616,129.026,824.359,120.032,831.641,115.071z"/>
						</g>
						<g>
							<path style="fill:#80B231;" d="M815.181,97.396c-7.531,14.751-14.04,28.346-19.678,43.365
								c-4.123,10.981-6.188,18.879-9.177,29.998c-3.424,12.733-7.596,31.561-7.596,31.561c9.733-21.754,19.53-45.024,26.611-67.293
								C809.338,122.453,812.236,109.915,815.181,97.396z"/>
						</g>
						<path style="fill:#749D2D;" d="M795.692,112.072c-11.504,31.484-27.83,105.653-31.365,133.284
							c12.651-28.768,22.478-50.076,27.11-94.34C792.823,137.779,794.901,124.753,795.692,112.072z"/>
					</g>
					<path style="fill:#749D2D;" d="M826.333,137.448c-15.983,24.926-32.092,47.705-45.511,74.685
						c-3.156,6.345-19.792,41.968-21.499,49.353c3.055-24.91,23.858-75.763,39.387-97.556
						C807.052,152.223,816.798,143.167,826.333,137.448z"/>
				</g>
			</g>
			<g>
				<g>
					<path style="fill:#522A25;" d="M691.589,257.235l2.984,0.719c1.826,0.44,3.75-0.622,4.607-2.544l4.448-9.977l-14.397-3.469
						l-0.584,10.907C688.534,254.974,689.763,256.795,691.589,257.235z"/>
					<g>
						<defs>
							<path id="SVGID_00000066473696806607169010000009995748473381459093_" d="M681.037,193.196
								c-9.903,41.098-0.128,51.74,14.259,55.206c14.386,3.467,27.936-1.555,37.839-42.653
								c9.903-41.098,12.409-102.709-1.977-106.175C716.771,96.108,690.94,152.098,681.037,193.196z"/>
						</defs>
						<clipPath id="SVGID_00000165207686764847002480000013694249759258094728_">
							<use xlink:href="#SVGID_00000066473696806607169010000009995748473381459093_"  style="overflow:visible;"/>
						</clipPath>
						<path style="clip-path:url(#SVGID_00000165207686764847002480000013694249759258094728_);fill:#F0C72F;" d="M681.037,193.196
							c-9.903,41.098-0.128,51.74,14.259,55.206c14.386,3.467,27.936-1.555,37.839-42.653
							c9.903-41.098,12.409-102.709-1.977-106.175C716.771,96.108,690.94,152.098,681.037,193.196z"/>
						<g style="clip-path:url(#SVGID_00000165207686764847002480000013694249759258094728_);">
							<path style="fill:#E27F1E;" d="M689.579,247.345c-6.321-7.979-5.842-27.451,1.422-57.874
								c6.172-25.853,15.448-51.557,19.49-61.537c9.45-23.333,21.091-31.793,21.208-31.875l0.457,0.642
								c-0.114,0.082-11.58,8.433-20.932,31.53c-12.189,30.09-34.403,101.737-21.024,118.624L689.579,247.345z"/>
						</g>
						<g style="clip-path:url(#SVGID_00000165207686764847002480000013694249759258094728_);">
							<path style="fill:#E27F1E;" d="M700.867,250.064l-0.326-0.718c19.597-8.935,32.455-82.838,35.312-115.179
								c2.195-24.851-4.21-37.479-4.275-37.603l0.7-0.366c0.065,0.127,6.575,12.96,4.362,38.038
								c-0.949,10.729-4.398,37.839-10.676,63.661C718.572,228.289,710.13,245.842,700.867,250.064z"/>
						</g>
						<g style="clip-path:url(#SVGID_00000165207686764847002480000013694249759258094728_);">
							
								<rect x="629.985" y="172.786" transform="matrix(0.2339 -0.9723 0.9723 0.2339 378.1946 826.316)" style="fill:#E27F1E;" width="166.872" height="0.791"/>
						</g>
						<g style="clip-path:url(#SVGID_00000165207686764847002480000013694249759258094728_);">
							<g>
								
									<rect x="730.041" y="87.519" transform="matrix(0.2343 -0.9722 0.9722 0.2343 455.8693 791.5974)" style="fill:#E27F1E;" width="0.791" height="37.793"/>
							</g>
							<g>
								<path style="fill:#E27F1E;" d="M746.929,125.425c-11.24-1.023-32.473-6.142-39.857-9.608l0.337-0.715
									c7.324,3.439,28.416,8.518,39.593,9.535L746.929,125.425z"/>
							</g>
							<g>
								<path style="fill:#E27F1E;" d="M743.822,139.637c-12.804,0-33.674-5.146-41.622-10.375l0.435-0.66
									c7.705,5.072,28.757,10.245,41.24,10.245c0.424,0,0.836-0.006,1.237-0.018l0.025,0.791
									C744.709,139.632,744.27,139.637,743.822,139.637z"/>
							</g>
							<g>
								<path style="fill:#E27F1E;" d="M737.617,154.142c-13.825,0-32.481-5.072-40.275-11.431l0.501-0.613
									c8.638,7.049,31.973,12.666,45.388,10.923l0.102,0.784C741.564,154.033,739.643,154.142,737.617,154.142z"/>
							</g>
							<g>
								<path style="fill:#E27F1E;" d="M732.174,168.882c-14.366,0-31.835-5.264-39.678-12.719l0.544-0.573
									c9.336,8.875,33.723,14.741,48.319,11.629l0.163,0.773C738.682,168.597,735.511,168.882,732.174,168.882z"/>
							</g>
							<g>
								<path style="fill:#E27F1E;" d="M727.271,183.746c-14.779,0-31.604-5.581-39.614-14.128l0.577-0.54
									c10.054,10.727,35.448,16.838,51.258,12.338l0.218,0.758C735.941,183.246,731.697,183.746,727.271,183.746z"/>
							</g>
							<g>
								<path style="fill:#E27F1E;" d="M723.099,198.616c-15.244,0-32.12-6.013-40.278-15.539l0.599-0.515
									c10.8,12.613,37.144,18.955,54.21,13.051l0.258,0.747C733.438,197.898,728.365,198.616,723.099,198.616z"/>
							</g>
							<g>
								<path style="fill:#E27F1E;" d="M718.809,213.604c-15.654,0-32.363-6.437-40.822-17.065l0.617-0.493
									c11.563,14.527,38.815,21.084,57.167,13.764l0.294,0.733C730.839,212.628,724.904,213.604,718.809,213.604z"/>
							</g>
							<g>
								<path style="fill:#E27F1E;" d="M714.681,228.643c-16.063,0-32.724-6.893-41.524-18.641l0.631-0.475
									c12.135,16.2,40.797,23.101,60.127,14.48l0.323,0.722C728.265,227.391,721.526,228.643,714.681,228.643z"/>
							</g>
							<g>
								<path style="fill:#E27F1E;" d="M711.046,243.581c-16.602,0-33.658-7.384-42.72-20.117l0.642-0.457
									c12.931,18.168,42.411,25.267,63.095,15.195l0.345,0.711C725.894,242.087,718.516,243.581,711.046,243.581z"/>
							</g>
						</g>
						<g style="opacity:0.27;clip-path:url(#SVGID_00000165207686764847002480000013694249759258094728_);">
							<path style="fill:#FFFFFF;" d="M690.06,234.759c1.292,0.553,2.603,1.053,3.934,1.502c1.633-6.78,2.473-6.183-4.197-9.1
								C689.743,229.687,689.797,232.243,690.06,234.759z"/>
							<path style="fill:#FFFFFF;" d="M692.781,202.697c2.685,1.436,5.546,2.632,8.44,3.577c0.343-1.422,1.784-4.645,1.416-5.878
								c-0.73-2.45-5.546-3.182-8.443-4.564C693.694,198.114,693.223,200.403,692.781,202.697z"/>
							<path style="fill:#FFFFFF;" d="M697.625,221.188c1.951-8.093,1.19-6.453-6.31-10.012
								C690.24,218.339,690.528,218.854,697.625,221.188z"/>
							<path style="fill:#FFFFFF;" d="M706.515,184.299c-2.97-0.899-5.912-2-8.726-3.308c-0.813,3.077-1.853,5.08-0.303,7.29
								c0.885,1.261,6.218,2.588,7.357,2.951C705.4,188.921,705.958,186.61,706.515,184.299z"/>
							<path style="fill:#FFFFFF;" d="M701.939,166.32c-0.897,2.977-2.083,5.039-0.593,7.165c0.815,1.164,6.091,2.403,7.12,2.72
								C710.43,168.042,709.649,169.654,701.939,166.32z"/>
							<path style="fill:#FFFFFF;" d="M714.503,186.237c-0.559,2.322-1.118,4.643-1.678,6.965c2.122,0.372,5.895,1.582,7.837,0.824
								c2.641-1.031,2.339-3.211,3.093-6.665C720.66,187.188,717.552,186.802,714.503,186.237z"/>
							<path style="fill:#FFFFFF;" d="M729.259,157.338c-8.177-0.93-7.379-1.709-9.187,5.79
								C727.547,164.516,728.118,164.916,729.259,157.338z"/>
							<path style="fill:#FFFFFF;" d="M709.794,232.156c-7.252-0.591-6.202-0.639-7.832,6.129
								C707.102,239.152,707.626,236.608,709.794,232.156z"/>
							<path style="fill:#FFFFFF;" d="M709.196,208.269c7.842,1.357,8.969,1.639,10.983-6.006c-3.201-0.148-7.828-1.686-9.56,0.102
								C709.686,203.327,709.527,206.893,709.196,208.269z"/>
							<path style="fill:#FFFFFF;" d="M725.365,141.159c-0.559,2.321-1.117,4.642-1.676,6.963c2.23,0.433,4.474,0.779,6.731,1.038
								C731.324,142.382,731.942,142.516,725.365,141.159z"/>
							<path style="fill:#FFFFFF;" d="M715.74,217.242c-3.063-0.152-7.077-1.528-8.748,0.17c-0.911,0.926-1.071,4.446-1.394,5.783
								C712.983,224.455,713.415,224.139,715.74,217.242z"/>
							<path style="fill:#FFFFFF;" d="M716.451,178.152c2.023,0.362,5.687,1.597,7.532,0.891c2.526-0.967,2.164-3.338,2.774-6.68
								c-3.079-0.24-7.225-1.71-8.911-0.001C716.935,173.286,716.773,176.816,716.451,178.152z"/>
							<path style="fill:#FFFFFF;" d="M717.371,139.245c-4.338-1.193-5.154-3.149-6.943,1.467c-1.81,4.674,0.83,4.208,5.265,5.49
								C716.252,143.884,716.812,141.564,717.371,139.245z"/>
							<path style="fill:#FFFFFF;" d="M713.754,154.253c-2.44-0.694-4.843-1.497-7.21-2.411c-0.931,2.78-2.34,5.085-0.929,7.042
								c0.718,0.995,5.587,2.049,6.467,2.312C712.639,158.882,713.197,156.568,713.754,154.253z"/>
							<path style="fill:#FFFFFF;" d="M720.991,124.223c-5.252-1.359-4.546,1.028-6.394,5.576c1.558,0.51,3.128,0.982,4.709,1.417
								C719.868,128.885,720.43,126.554,720.991,124.223z"/>
							<path style="fill:#FFFFFF;" d="M730.909,118.15c0.504,0.109,1.007,0.218,1.511,0.326c-0.093-1.63-0.231-3.255-0.414-4.877
								C731.644,115.104,731.16,116.623,730.909,118.15z"/>
							<path style="fill:#FFFFFF;" d="M727.3,133.129c1.606,0.33,3.218,0.627,4.836,0.891c0.174-1.91,1.21-11.002-3.275-7.363
								C727.816,127.503,727.627,131.772,727.3,133.129z"/>
							<path style="fill:#FFFFFF;" d="M721.419,115.839c0.498,0.132,0.996,0.264,1.495,0.395c0.413-1.285,1.137-3.216,1.099-4.556
								C723.108,113.04,722.244,114.427,721.419,115.839z"/>
						</g>
					</g>
					<g>
						<path style="fill:#9AC742;" d="M702.458,111.823c0,0,2.974,7.485-3.891,52.451c-4.514,29.568-4.001,85.027-4.001,85.027
							s-22.598-4.515-23.579-31.781c-0.981-27.266,10.405-48.922,19.949-74.97C699.222,119.936,702.458,111.823,702.458,111.823z"/>
					</g>
					<g>
						<path style="fill:#8BB63C;" d="M698.568,164.273c1.542-10.103,2.585-18.3,3.279-24.959c-0.473,1.676-0.985,3.36-1.587,5.087
							c-6.247,17.925-14.656,35.48-17.768,54.318c-2.404,14.557-2.346,30.225,0.836,45.053c5.708,4.418,11.238,5.528,11.238,5.528
							S694.054,193.841,698.568,164.273z"/>
					</g>
					<g>
						<path style="fill:#8BAA3C;" d="M751.562,119.99c0,0-9.754,3.265-19.15,50.394c-5.848,29.333-37.846,78.916-37.846,78.916
							s22.079,6.599,35.721-17.029c13.642-23.628,12.727-42.487,15.244-67.101C748.455,136.584,751.562,119.99,751.562,119.99z"/>
					</g>
					<g>
						<path style="fill:#70923C;" d="M738.379,166.366c-5.568,20.154-7.732,40.809-16.605,59.987
							c-4.305,9.305-9.923,17.107-16.536,23.59c7.527-0.842,17.558-4.695,25.05-17.671c13.642-23.628,12.727-42.487,15.244-67.101
							c0.966-9.445,1.949-17.549,2.837-24.209C744.23,148.998,740.85,157.421,738.379,166.366z"/>
					</g>
					<path style="fill:#8BAA3C;" d="M692.663,250.594c-2.533-40.932,0.88-59.196,12.846-80.002
						c11.966-20.806,18.025-29.527,18.025-29.527s0.018,45.552-7.449,74.141S692.663,250.594,692.663,250.594z"/>
				</g>
			</g>
			<g>
				<g>
					<path style="fill:#522A25;" d="M660.784,231.066l3.017-0.563c1.847-0.345,3.168-2.1,3.165-4.204l-0.018-10.923l-14.557,2.718
						l3.925,10.194C657.072,230.25,658.938,231.41,660.784,231.066z"/>
					<g>
						<defs>
							<path id="SVGID_00000005951586226783916420000003803288134996635031_" d="M624.982,176.931
								c7.758,41.556,21.029,47.274,35.575,44.558c14.547-2.715,24.861-12.836,17.103-54.393
								c-7.758-41.556-30.65-98.811-45.197-96.096C617.917,73.717,617.224,135.375,624.982,176.931z"/>
						</defs>
						<clipPath id="SVGID_00000107567251255440304670000016528644353359805066_">
							<use xlink:href="#SVGID_00000005951586226783916420000003803288134996635031_"  style="overflow:visible;"/>
						</clipPath>
						<path style="clip-path:url(#SVGID_00000107567251255440304670000016528644353359805066_);fill:#F0C72F;" d="M624.982,176.931
							c7.758,41.556,21.029,47.274,35.575,44.558c14.547-2.715,24.861-12.836,17.103-54.393
							c-7.758-41.556-30.65-98.811-45.197-96.096C617.917,73.717,617.224,135.375,624.982,176.931z"/>
						<g style="clip-path:url(#SVGID_00000107567251255440304670000016528644353359805066_);">
							<path style="fill:#E27F1E;" d="M654.908,222.861c-9.03-4.699-16.551-22.666-22.354-53.402
								c-4.932-26.118-6.971-53.368-7.361-64.128c-0.911-25.158,6.256-37.636,6.329-37.758l0.68,0.399
								c-0.071,0.121-7.122,12.429-6.218,37.331c1.172,32.444,10.179,106.913,29.291,116.858L654.908,222.861z"/>
						</g>
						<g style="clip-path:url(#SVGID_00000107567251255440304670000016528644353359805066_);">
							<path style="fill:#E27F1E;" d="M666.321,220.729l-0.591-0.522c14.234-16.164-4.233-88.869-14.843-119.553
								c-8.153-23.578-19.159-32.486-19.27-32.572l0.489-0.62c0.111,0.089,11.298,9.141,19.527,32.934
								c3.519,10.18,11.45,36.332,16.273,62.465C673.581,193.62,673.05,213.089,666.321,220.729z"/>
						</g>
						<g style="clip-path:url(#SVGID_00000107567251255440304670000016528644353359805066_);">
							
								<rect x="645.963" y="61.993" transform="matrix(0.9829 -0.1839 0.1839 0.9829 -15.7218 121.376)" style="fill:#E27F1E;" width="0.791" height="166.872"/>
						</g>
						<g style="clip-path:url(#SVGID_00000107567251255440304670000016528644353359805066_);">
							<g>
								
									<rect x="615.705" y="77.144" transform="matrix(0.983 -0.1835 0.1835 0.983 -3.4526 117.7693)" style="fill:#E27F1E;" width="37.793" height="0.791"/>
							</g>
							<g>
								<path style="fill:#E27F1E;" d="M657.424,88.149c-10.677,3.66-32.148,7.666-40.304,7.52l0.016-0.79
									c8.09,0.145,29.415-3.839,40.032-7.478L657.424,88.149z"/>
							</g>
							<g>
								<path style="fill:#E27F1E;" d="M660.396,102.39c-11.686,5.233-32.837,9.065-42.228,7.541l0.128-0.781
									c9.105,1.48,30.432-2.402,41.825-7.504c0.387-0.173,0.761-0.347,1.122-0.522l0.346,0.711
									C661.203,102.022,660.805,102.206,660.396,102.39z"/>
							</g>
							<g>
								<path style="fill:#E27F1E;" d="M660.661,118.164c-12.618,5.65-31.717,8.646-41.429,6.027l0.206-0.764
									c10.764,2.903,34.357-1.507,45.888-8.58l0.413,0.674C664.219,116.452,662.51,117.336,660.661,118.164z"/>
							</g>
							<g>
								<path style="fill:#E27F1E;" d="M661.716,133.841c-13.111,5.871-31.206,8.206-41.411,4.607l0.262-0.745
									c12.148,4.285,36.803-0.328,48.852-9.134l0.465,0.639C667.54,130.921,664.763,132.477,661.716,133.841z"/>
							</g>
							<g>
								<path style="fill:#E27F1E;" d="M663.317,149.411c-13.489,6.04-31.126,7.822-41.929,3.295l0.305-0.729
									c13.56,5.682,39.234,0.881,51.824-9.688l0.509,0.603C671.025,145.411,667.356,147.603,663.317,149.411z"/>
							</g>
							<g>
								<path style="fill:#E27F1E;" d="M665.586,164.688c-13.912,6.23-31.772,7.639-43.112,2.279l0.336-0.715
									c15.011,7.098,41.647,2.119,54.81-10.244l0.541,0.577C674.729,159.807,670.392,162.536,665.586,164.688z"/>
							</g>
							<g>
								<path style="fill:#E27F1E;" d="M667.796,180.12c-14.287,6.397-32.167,7.351-44.232,1.109l0.361-0.702
									c16.49,8.533,44.042,3.38,57.8-10.801l0.568,0.549C678.376,174.313,673.358,177.629,667.796,180.12z"/>
							</g>
							<g>
								<path style="fill:#E27F1E;" d="M670.174,195.533c-14.661,6.565-32.683,7.083-45.517-0.043l0.382-0.692
									c17.695,9.826,46.676,4.411,60.794-11.357l0.59,0.527C682.06,188.839,676.422,192.735,670.174,195.533z"/>
							</g>
							<g>
								<path style="fill:#E27F1E;" d="M672.962,210.652c-15.152,6.785-33.737,7.016-47.211-0.902l0.399-0.68
									c19.227,11.296,49.034,5.728,63.795-11.918l0.605,0.508C685.903,203.22,679.779,207.6,672.962,210.652z"/>
							</g>
						</g>
						<g style="opacity:0.27;clip-path:url(#SVGID_00000107567251255440304670000016528644353359805066_);">
							<path style="fill:#FFFFFF;" d="M650.203,211.177c1.405-0.023,2.806-0.102,4.205-0.237c-1.28-6.855-0.27-6.654-7.55-6.59
								C647.841,206.678,648.935,208.988,650.203,211.177z"/>
							<path style="fill:#FFFFFF;" d="M639.583,180.803c3.038,0.213,6.138,0.136,9.165-0.185c-0.269-1.438-0.27-4.968-1.11-5.944
								c-1.668-1.938-6.362-0.637-9.571-0.715C638.544,176.247,639.049,178.528,639.583,180.803z"/>
							<path style="fill:#FFFFFF;" d="M651.561,195.699c-1.527-8.184-1.552-6.376-9.851-6.559
								C643.657,196.117,644.13,196.47,651.561,195.699z"/>
							<path style="fill:#FFFFFF;" d="M644.599,158.399c-3.078,0.393-6.213,0.591-9.316,0.547c0.516,3.141,0.385,5.394,2.702,6.777
								c1.323,0.79,6.733-0.179,7.921-0.313C645.47,163.072,645.035,160.736,644.599,158.399z"/>
							<path style="fill:#FFFFFF;" d="M633.075,143.86c0.398,3.084,0.158,5.45,2.387,6.782c1.22,0.729,6.541-0.297,7.61-0.427
								C641.529,141.961,641.474,143.751,633.075,143.86z"/>
							<path style="fill:#FFFFFF;" d="M652.682,156.902c0.438,2.348,0.877,4.695,1.315,7.043c2.088-0.528,6.027-0.965,7.489-2.451
								c1.99-2.02,0.823-3.886,0.099-7.347C658.689,155.255,655.695,156.173,652.682,156.902z"/>
							<path style="fill:#FFFFFF;" d="M654.339,124.497c-7.843,2.493-7.433,1.456-6.019,9.039
								C655.709,131.748,656.394,131.879,654.339,124.497z"/>
							<path style="fill:#FFFFFF;" d="M667.15,200.736c-6.861,2.424-5.921,1.951-4.643,8.795
								C667.552,208.222,666.991,205.685,667.15,200.736z"/>
							<path style="fill:#FFFFFF;" d="M656.842,179.18c7.712-1.966,8.856-2.169,7.569-9.97c-2.982,1.173-7.833,1.661-8.684,4
								C655.269,174.469,656.582,177.788,656.842,179.18z"/>
							<path style="fill:#FFFFFF;" d="M644.172,111.322c0.439,2.347,0.877,4.694,1.316,7.04c2.213-0.516,4.402-1.117,6.567-1.804
								C650.112,110.003,650.73,109.873,644.172,111.322z"/>
							<path style="fill:#FFFFFF;" d="M666.482,184.695c-2.857,1.113-7.084,1.497-7.914,3.73c-0.453,1.218,0.839,4.495,1.091,5.848
								C666.913,192.405,667.178,191.939,666.482,184.695z"/>
							<path style="fill:#FFFFFF;" d="M651.156,148.728c1.995-0.496,5.843-0.866,7.238-2.265c1.91-1.915,0.611-3.931-0.198-7.231
								c-2.909,1.039-7.293,1.393-8.133,3.641C649.608,144.088,650.903,147.376,651.156,148.728z"/>
							<path style="fill:#FFFFFF;" d="M636.094,112.842c-4.447,0.684-5.991-0.768-5.737,4.176c0.258,5.005,2.477,3.502,7.049,2.859
								C636.969,117.533,636.532,115.188,636.094,112.842z"/>
							<path style="fill:#FFFFFF;" d="M638.927,128.018c-2.511,0.364-5.032,0.613-7.566,0.747c0.287,2.917-0.058,5.598,2.03,6.807
								c1.062,0.615,5.937-0.413,6.847-0.533C639.801,132.698,639.364,130.358,638.927,128.018z"/>
							<path style="fill:#FFFFFF;" d="M633.259,97.652c-5.349,0.906-3.729,2.796-3.557,7.702c1.63-0.172,3.256-0.382,4.877-0.631
								C634.139,102.366,633.699,100.009,633.259,97.652z"/>
							<path style="fill:#FFFFFF;" d="M639.83,88.056c0.504-0.106,1.008-0.213,1.512-0.319c-0.751-1.449-1.541-2.877-2.371-4.283
								C639.255,84.976,639.434,86.56,639.83,88.056z"/>
							<path style="fill:#FFFFFF;" d="M642.657,103.202c1.6-0.355,3.193-0.743,4.777-1.164c-0.622-1.814-3.391-10.536-5.999-5.382
								C640.829,97.856,642.401,101.83,642.657,103.202z"/>
							<path style="fill:#FFFFFF;" d="M630.224,89.826c0.509-0.083,1.017-0.167,1.526-0.25c-0.148-1.341-0.277-3.4-0.859-4.608
								C630.621,86.581,630.399,88.2,630.224,89.826z"/>
						</g>
					</g>
					<g>
						<path style="fill:#9AC742;" d="M611.277,93.909c0,0,5.773,5.616,17.884,49.461c7.964,28.83,31.097,79.237,31.097,79.237
							s-22.47,5.114-34.508-19.37c-12.038-24.484-10.497-48.903-12.432-76.577C611.639,102.636,611.277,93.909,611.277,93.909z"/>
					</g>
					<g>
						<path style="fill:#8BB63C;" d="M629.161,143.369c-2.721-9.851-5.12-17.759-7.207-24.12c0.253,1.723,0.474,3.469,0.63,5.292
							c1.624,18.913,1.124,38.372,5.983,56.836c3.755,14.269,10.211,28.544,19.175,40.777c7.015,1.699,12.516,0.452,12.516,0.452
							S637.125,172.199,629.161,143.369z"/>
					</g>
					<g>
						<path style="fill:#8BAA3C;" d="M659.431,81.295c0,0-7.568,6.966,3.117,53.82c6.65,29.161-2.289,87.491-2.289,87.491
							s22.848-3,25.643-30.14c2.794-27.14-5.748-43.979-13.51-67.471C663.377,97.71,659.431,81.295,659.431,81.295z"/>
					</g>
					<g>
						<path style="fill:#70923C;" d="M666.351,129.01c3.155,20.669,9.621,40.405,9.36,61.535
							c-0.126,10.252-2.065,19.669-5.451,28.288c6.525-3.845,14.106-11.46,15.641-26.366c2.794-27.14-5.748-43.979-13.51-67.471
							c-2.979-9.015-5.393-16.813-7.305-23.255C664.594,110.766,664.951,119.836,666.351,129.01z"/>
					</g>
					<path style="fill:#8BAA3C;" d="M659.05,224.565c-19.04-36.322-23.389-54.386-20.971-78.266
						c2.418-23.88,4.384-34.315,4.384-34.315s18.633,41.567,23.502,70.711C670.833,211.839,659.05,224.565,659.05,224.565z"/>
				</g>
			</g>
			<g>
				<path style="fill:#F15606;" d="M742.773,163.161c-1.225-6.254,4.373-9.17,10.126-9.969c4.429-0.615,8.809,0.876,11.939,2.579
					c0,0,2.32-1.975,7.28-2.233c7.036-0.366,16.666,3.057,15.678,12.936c-0.988,9.879-7.531,16.883-19.765,15.497
					C755.797,180.586,743.977,169.306,742.773,163.161z"/>
				<path style="fill:#66400C;" d="M761.191,165.298c2.477-14.112-2.791-23.045-5.207-25.237c0,0,1.425-4.956,5.527-4.682
					c0,0,2.826,5.348,3.304,14.068c0.479,8.72-1.383,15.911-1.383,15.911L761.191,165.298z"/>
				<path style="fill:#F86B24;" d="M752.851,165.542c-5.725-7.452-13.793-7.313-19.409-1.871
					c-4.736,4.588-6.719,16.631-4.171,31.611c2.549,14.979,10.923,27.469,19.584,27.124c8.662-0.344,14.232-18.593,14.232-18.593
					L752.851,165.542z"/>
				<path style="fill:#CF591E;" d="M749.75,166.39c-0.688-0.171-3.647,4.323-4.299,5.496c-1.492,2.684-2.437,5.7-2.869,8.803
					c-0.975,7.005,0.251,14.533,1.771,21.338c1.31,5.865,3.279,11.957,0.212,17.603c-0.287,0.529-0.609,1.005-0.946,1.455
					c1.702,0.917,3.462,1.392,5.236,1.322c8.662-0.344,14.232-18.593,14.232-18.593l-10.082-37.694
					C752.094,166.561,751.002,166.702,749.75,166.39z"/>
				<path style="fill:#F07036;" d="M771.937,165.35c6.443-9.342,18.37-7.336,21.535-2.959c6.474,8.953,6.076,22.425,3.348,35.992
					c-2.728,13.567-6.68,22.025-13.286,22.163c-6.605,0.138-13.745-5.766-14.83-19.119S771.937,165.35,771.937,165.35z"/>
				<path style="fill:#D66430;" d="M783.979,213.096c-1.234-6.894-0.021-14.781,0.191-21.757c0.257-8.475-0.635-25.167-9.01-29.453
					c-1.165,0.921-2.257,2.062-3.223,3.464c0,0-4.319,22.724-3.233,36.078s8.225,19.257,14.83,19.119
					c1.328-0.028,2.544-0.407,3.67-1.081C785.597,217.915,784.431,215.619,783.979,213.096z"/>
				<path style="fill:#FF9953;" d="M754.312,159.161c-6.981,3.739-11.866,14.588-7.737,36.272
					c4.129,21.684,14.663,30.218,22.532,26.625c7.869-3.593,12.499-16.792,12.628-38.043c0.105-17.269-4.607-23.765-11.195-25.847
					C763.953,156.087,757.719,157.336,754.312,159.161z"/>
				<path style="opacity:0.49;fill:#FFC291;" d="M760.259,162.317c-6.083,2.489,2.311,16.398,7.779,25.908
					c5.468,9.51,7.707,0.077,8.018-7.263c0.31-7.34-3.826-15.308-6.032-17.183C766.542,160.82,762.807,161.274,760.259,162.317z"/>
				<path style="opacity:0.2;fill:#FFC291;" d="M790.835,164.474c-5.048,1.934,0.714,16.898,0.371,26.398
					c-0.344,9.5-3.211,18.151-1.448,17.313s4.076-12.475,4.937-21.885S794.847,162.937,790.835,164.474z"/>
			</g>
			<g>
				<g>
					<path style="fill:#648235;" d="M732.782,257.883c1.055,12.22,7.606,24.151,18.439,30.282
						c10.903,7.852,25.75,9.167,37.637,2.831c20.098-10.711,26.616-36.781,23.979-57.762c-0.24-1.912-0.462-3.7-0.69-5.339
						c-1.673-12.047-0.809-16.577-0.492-23.58c0.125-2.777-1.747-12.647-12.036-16.074c-7.86-2.618-13.484-0.488-17.192,2.683
						c-0.786,0.673-1.491,1.398-2.116,2.141c-4.826,5.737-5.265,9.334-18.451,19.691
						C748.656,223.127,731.143,238.891,732.782,257.883z"/>
					<path style="fill:#526B2C;" d="M770.227,243.205c-4.122-10.664-3.594-20.377,1.503-30.602
						c3.821-7.665,7.857-14.793,11.372-22.226c-0.231,0.179-0.457,0.361-0.675,0.547c-0.786,0.673-1.491,1.398-2.116,2.141
						c-4.826,5.737-5.265,9.334-18.451,19.691c-13.203,10.37-30.717,26.134-29.078,45.126c1.055,12.22,7.606,24.151,18.439,30.282
						c10.903,7.852,25.75,9.167,37.637,2.831c6.84-3.645,12.072-9.094,15.941-15.492C787.86,280.71,775.154,255.954,770.227,243.205
						z"/>
					<g>
						<path style="fill:#75490E;" d="M796.612,188.541c-0.102,1.417,2.626,2.8,3.999,2.684c1.149-0.097,1.243-0.615,1.124-1.726
							c-0.023-0.217-0.056-0.466-0.086-0.736c-0.179-1.638,0.445-6.261,0.658-8.512c0.171-1.803-1.9-1.892-2.289-1.522
							c-0.008-0.002-0.008,0.005-0.008,0.005c-0.637,0.638-0.534,4.38-1.013,6.625C798.519,187.605,796.713,187.132,796.612,188.541
							z"/>
					</g>
				</g>
				<path style="opacity:0.52;fill:#91B056;" d="M803.777,213.25c-1.255-8.861-14.609,6.158-20.205,20.336
					c-5.596,14.178-15.484,30.804-7.122,39.408c8.363,8.604,25.369,1.907,27.135-15.621
					C805.35,239.845,805.129,222.795,803.777,213.25z"/>
			</g>
			<g>
				<g>
					<path style="fill:#648235;" d="M766.963,252.705c-2.474,12.013-10.373,23.098-21.848,27.923
						c-11.745,6.526-26.644,6.098-37.71-1.581c-18.71-12.984-22.141-39.637-17.073-60.166c0.462-1.871,0.891-3.62,1.308-5.222
						c3.068-11.769,2.738-16.37,3.241-23.361c0.2-2.773,3.211-12.357,13.83-14.559c8.112-1.682,13.449,1.089,16.761,4.672
						c0.702,0.76,1.318,1.563,1.852,2.373c4.123,6.261,4.139,9.885,16.026,21.71C755.254,216.334,770.807,234.034,766.963,252.705z"
						/>
					<g>
						<path style="fill:#75490E;" d="M711.662,176.387c-0.064,1.419-2.935,2.474-4.285,2.199c-1.13-0.23-1.163-0.756-0.914-1.845
							c0.049-0.213,0.11-0.456,0.171-0.721c0.369-1.606,0.289-6.27,0.34-8.53c0.041-1.811,2.108-1.657,2.451-1.245
							c0.008-0.001,0.007,0.006,0.007,0.006c0.558,0.708,0.019,4.413,0.232,6.698C709.877,175.234,711.727,174.975,711.662,176.387z
							"/>
					</g>
				</g>
				<path style="opacity:0.52;fill:#91B056;" d="M701.663,200.091c2.281-8.654,13.791,7.821,17.693,22.556
					c3.903,14.735,11.783,32.4,2.473,39.97c-9.31,7.569-25.419-1.068-25.126-18.682C696.995,226.32,699.206,209.412,701.663,200.091
					z"/>
			</g>
			<g>
				<g>
					<path style="fill:#8BB43C;" d="M577.737,164.683c-0.366-1.209,0.585-12.315-0.717-17.007c0,0,2.417-0.468,3.252-3.363
						c0.785-2.724-2.551-3.208-3.141-2.719c0,0,3.14-3.295,1.718-6.031c-1.123-2.16-2.974-1.236-3.738,0.412
						c0,0-0.414-5.348-2.444-9.237c-2.03-3.889-5.12-4.352-4.751,0.078c0.369,4.43,2.888,8.909,2.888,8.909
						s-2.924-1.775-3.585,0.405c-0.661,2.18,4.633,5.373,4.633,5.373s-4.161-0.411-3.189,2.226c0.972,2.637,6.257,4.066,6.257,4.066
						s2.032,11.788,0.707,19.215L577.737,164.683z"/>
				</g>
				<g>
					<path style="fill:#8BB43C;" d="M577.048,172.221c0.441-1.184,0.188-12.328,1.782-16.928c0,0-2.383-0.619-3.035-3.561
						c-0.613-2.768,2.747-3.041,3.305-2.517c0,0-2.927-3.485-1.336-6.127c1.256-2.085,3.046-1.047,3.705,0.646
						c0,0,0.748-5.312,3.018-9.066c2.27-3.754,5.383-4.023,4.737,0.376s-3.441,8.71-3.441,8.71s3.03-1.588,3.552,0.629
						c0.523,2.217-4.961,5.072-4.961,5.072s4.179-0.149,3.043,2.422c-1.135,2.571-6.5,3.666-6.5,3.666s-2.767,11.638-1.91,19.133
						L577.048,172.221z"/>
				</g>
				<g>
					<path style="fill:#6B8C2A;" d="M577.448,157.957c0.326-1.427-0.948-14.561,0.18-20.094c0,0-3.624-0.263-4.84-3.614
						c-1.144-3.153,2.708-3.846,3.437-3.298c0,0-3.938-3.73-2.508-6.983c1.129-2.567,3.367-1.558,4.395,0.338
						c0,0,0.036-6.266,2.079-10.889c2.043-4.623,5.61-5.282,5.549-0.091c-0.06,5.191-2.625,10.522-2.625,10.522
						s3.263-2.186,4.216,0.335c0.953,2.522-4.956,6.457-4.956,6.457s4.82-0.64,3.907,2.479c-0.914,3.119-6.959,4.993-6.959,4.993
						s-1.385,13.854,0.782,22.483L577.448,157.957z"/>
				</g>
				<path style="fill:#8BB43C;" d="M582.277,116.373c0,0-7.833,27.198-2.014,49.028l-3.336-3.232
					C576.928,162.17,573.431,144.774,582.277,116.373z"/>
				<g>
					<defs>
						<path id="SVGID_00000064336649433618112620000013661434853133254567_" d="M589.279,157.355
							c2.634,5.173,0.553,17.392-0.587,25.245c-2.317,15.959-6.416,54.058-10.054,70.086c-1.404,6.184-5.961,4.328-6.821-0.604
							c-0.76-4.353-4.752-55.71-6.152-76.266c-0.44-6.455-0.984-14.57,2.63-19.621C572.417,150.433,584.52,148.01,589.279,157.355z"
							/>
					</defs>
					<clipPath id="SVGID_00000015339592546927714830000009201594836377843076_">
						<use xlink:href="#SVGID_00000064336649433618112620000013661434853133254567_"  style="overflow:visible;"/>
					</clipPath>
					<g style="clip-path:url(#SVGID_00000015339592546927714830000009201594836377843076_);">
						<path style="fill:#DF7D2E;" d="M589.279,157.355c2.634,5.173,0.553,17.392-0.587,25.245
							c-2.528,17.408-4.06,57.672-7.667,71.479c-0.976,3.735-9.267,2.96-9.771,2.316c-2.723-3.481-4.19-60.023-5.59-80.579
							c-0.44-6.455-0.984-14.57,2.63-19.621C572.417,150.433,584.52,148.01,589.279,157.355z"/>
					</g>
					<g style="opacity:0.18;clip-path:url(#SVGID_00000015339592546927714830000009201594836377843076_);">
						<path style="fill:#FFC291;" d="M585.58,161.108c3.709,14.954-1.789,31.195-3.707,46.144
							c-1.406,10.959-2.812,21.919-4.218,32.878c-0.79-11.458-1.344-22.935-1.66-34.42c-0.348-12.624-0.938-25.281-0.378-37.913
							c0.154-3.458,0.38-9.132,4.084-10.845C582.962,155.443,584.706,157.582,585.58,161.108z"/>
					</g>
					
						<path style="clip-path:url(#SVGID_00000015339592546927714830000009201594836377843076_);fill:none;stroke:#B06324;stroke-width:1.6161;stroke-linecap:round;stroke-linejoin:round;stroke-miterlimit:10;" d="
						M563.989,165.121c0,0,6.838-1.015,14.541,0.114"/>
					
						<path style="clip-path:url(#SVGID_00000015339592546927714830000009201594836377843076_);fill:none;stroke:#B06324;stroke-width:1.6161;stroke-linecap:round;stroke-linejoin:round;stroke-miterlimit:10;" d="
						M583.269,173.325c0,0,4.694-0.445,8.6,0.896"/>
					
						<path style="clip-path:url(#SVGID_00000015339592546927714830000009201594836377843076_);fill:none;stroke:#B06324;stroke-width:1.6161;stroke-linecap:round;stroke-linejoin:round;stroke-miterlimit:10;" d="
						M571.555,188.21c0,0,8.88-1.308,16.395,0.737"/>
					
						<path style="clip-path:url(#SVGID_00000015339592546927714830000009201594836377843076_);fill:none;stroke:#B06324;stroke-width:1.6161;stroke-linecap:round;stroke-linejoin:round;stroke-miterlimit:10;" d="
						M573.574,228.167c0,0,8.88-1.308,16.395,0.737"/>
					
						<path style="clip-path:url(#SVGID_00000015339592546927714830000009201594836377843076_);fill:none;stroke:#B06324;stroke-width:1.6161;stroke-linecap:round;stroke-linejoin:round;stroke-miterlimit:10;" d="
						M560.484,206.796c0,0,8.764-1.938,16.406-0.434"/>
					
						<path style="clip-path:url(#SVGID_00000015339592546927714830000009201594836377843076_);fill:none;stroke:#B06324;stroke-width:1.6161;stroke-linecap:round;stroke-linejoin:round;stroke-miterlimit:10;" d="
						M570.898,177.546c1.825-0.227,3.713-0.097,5.508,0.228"/>
					
						<path style="clip-path:url(#SVGID_00000015339592546927714830000009201594836377843076_);fill:none;stroke:#B06324;stroke-width:1.6161;stroke-linecap:round;stroke-linejoin:round;stroke-miterlimit:10;" d="
						M573.423,216.126c1.825-0.227,3.713-0.097,5.508,0.228"/>
				</g>
			</g>
			<g>
				<g>
					<path style="fill:#8BB43C;" d="M604.891,189.012c0.773-1,3.84-11.716,6.729-15.635c0,0-2.092-1.299-1.84-4.301
						c0.237-2.825,3.527-2.088,3.904-1.421c0,0-1.76-4.197,0.544-6.248c1.818-1.618,3.219-0.095,3.346,1.717
						c0,0,2.292-4.85,5.575-7.76c3.282-2.911,6.335-2.242,4.411,1.766c-1.923,4.008-5.873,7.295-5.873,7.295
						s3.365-0.617,3.205,1.655c-0.159,2.272-6.243,3.369-6.243,3.369s4.035,1.099,2.187,3.216c-1.848,2.117-7.295,1.571-7.295,1.571
						s-6.098,10.291-7.506,17.703L604.891,189.012z"/>
				</g>
				<g>
					<path style="fill:#8BB43C;" d="M602.849,196.3c0.01-1.263,4.216-11.586,4.366-16.452c0,0,2.447,0.271,4.104-2.246
						c1.559-2.368-1.484-3.821-2.192-3.529c0,0,3.976-2.214,3.431-5.249c-0.43-2.396-2.473-2.063-3.692-0.716
						c0,0,1.193-5.23,0.409-9.546c-0.784-4.316-3.597-5.676-4.56-1.336c-0.963,4.34,0.112,9.365,0.112,9.365
						s-2.265-2.563-3.543-0.678c-1.278,1.885,2.829,6.506,2.829,6.506s-3.852-1.628-3.706,1.179
						c0.145,2.806,4.767,5.741,4.767,5.741s-1.561,11.86-5.032,18.558L602.849,196.3z"/>
				</g>
				<g>
					<path style="fill:#6B8C2A;" d="M607.557,182.83c0.204-1.45,6.073-13.268,6.99-18.839c0,0,3.48,1.045,5.81-1.653
						c2.192-2.539-1.16-4.559-2.037-4.306c0,0,5.008-2.083,4.831-5.631c-0.14-2.801-2.591-2.655-4.227-1.25
						c0,0,2.199-5.868,1.936-10.915c-0.262-5.047-3.36-6.934-5.153-2.062c-1.793,4.872-1.296,10.767-1.296,10.767
						s-2.27-3.205-4.059-1.188c-1.789,2.017,2.331,7.799,2.331,7.799s-4.276-2.315-4.534,0.925c-0.257,3.24,4.724,7.144,4.724,7.144
						s-3.641,13.439-8.74,20.729L607.557,182.83z"/>
				</g>
				<path style="fill:#8BB43C;" d="M617.859,142.254c0,0-2.37,28.204-15.584,46.529l4.268-1.831
					C606.543,186.951,616.007,171.943,617.859,142.254z"/>
				<g>
					<defs>
						<path id="SVGID_00000121246619278962771360000003785661920534666388_" d="M596.717,178.053
							c-4.304,3.895-6.713,16.054-8.445,23.798c-3.52,15.738-13.263,52.797-15.573,69.07c-0.892,6.279,4.028,6.168,6.589,1.866
							c2.261-3.797,24.287-50.362,32.918-69.071c2.71-5.875,6.11-13.263,4.532-19.271
							C614.938,177.592,604.492,171.016,596.717,178.053z"/>
					</defs>
					<clipPath id="SVGID_00000008863055768757731060000015576830049662654140_">
						<use xlink:href="#SVGID_00000121246619278962771360000003785661920534666388_"  style="overflow:visible;"/>
					</clipPath>
					<g style="clip-path:url(#SVGID_00000008863055768757731060000015576830049662654140_);">
						<path style="fill:#DF7D2E;" d="M596.717,178.053c-4.304,3.895-6.713,16.054-8.445,23.798
							c-3.84,17.166-16.751,55.335-18.3,69.521c-0.419,3.837,7.604,6.067,8.304,5.645c3.784-2.283,25.298-54.592,33.929-73.301
							c2.71-5.875,6.11-13.263,4.532-19.271C614.938,177.592,604.492,171.016,596.717,178.053z"/>
					</g>
					<g style="opacity:0.18;clip-path:url(#SVGID_00000008863055768757731060000015576830049662654140_);">
						<path style="fill:#FFC291;" d="M598.836,182.877c-8.793,12.652-9.441,29.785-12.975,44.437
							c-2.59,10.741-5.181,21.482-7.771,32.223c4.82-10.425,9.426-20.951,13.813-31.571c4.822-11.672,9.882-23.289,13.86-35.291
							c1.088-3.286,2.898-8.668,0.047-11.589C603.301,178.517,600.909,179.894,598.836,182.877z"/>
					</g>
					
						<path style="clip-path:url(#SVGID_00000008863055768757731060000015576830049662654140_);fill:none;stroke:#B06324;stroke-width:1.6161;stroke-linecap:round;stroke-linejoin:round;stroke-miterlimit:10;" d="
						M617.581,194.318c0,0-6.028-3.384-13.628-5.073"/>
					
						<path style="clip-path:url(#SVGID_00000008863055768757731060000015576830049662654140_);fill:none;stroke:#B06324;stroke-width:1.6161;stroke-linecap:round;stroke-linejoin:round;stroke-miterlimit:10;" d="
						M596.643,195.115c0,0-4.228-2.088-8.355-2.227"/>
					
						<path style="clip-path:url(#SVGID_00000008863055768757731060000015576830049662654140_);fill:none;stroke:#B06324;stroke-width:1.6161;stroke-linecap:round;stroke-linejoin:round;stroke-miterlimit:10;" d="
						M602.286,213.197c0,0-7.832-4.386-15.582-5.152"/>
					
						<path style="clip-path:url(#SVGID_00000008863055768757731060000015576830049662654140_);fill:none;stroke:#B06324;stroke-width:1.6161;stroke-linecap:round;stroke-linejoin:round;stroke-miterlimit:10;" d="
						M586.166,249.813c0,0-7.832-4.386-15.582-5.152"/>
					
						<path style="clip-path:url(#SVGID_00000008863055768757731060000015576830049662654140_);fill:none;stroke:#B06324;stroke-width:1.6161;stroke-linecap:round;stroke-linejoin:round;stroke-miterlimit:10;" d="
						M606.009,234.507c0,0-7.499-4.933-15.174-6.25"/>
					
						<path style="clip-path:url(#SVGID_00000008863055768757731060000015576830049662654140_);fill:none;stroke:#B06324;stroke-width:1.6161;stroke-linecap:round;stroke-linejoin:round;stroke-miterlimit:10;" d="
						M606.698,203.467c-1.624-0.862-3.435-1.413-5.228-1.749"/>
					
						<path style="clip-path:url(#SVGID_00000008863055768757731060000015576830049662654140_);fill:none;stroke:#B06324;stroke-width:1.6161;stroke-linecap:round;stroke-linejoin:round;stroke-miterlimit:10;" d="
						M590.596,238.617c-1.624-0.862-3.435-1.413-5.227-1.749"/>
				</g>
			</g>
			<g>
				<g>
					<path style="fill:#8BB43C;" d="M550.201,186.246c-0.716-1.041-3.181-11.912-5.847-15.986c0,0,2.161-1.18,2.077-4.192
						c-0.079-2.834-3.405-2.282-3.818-1.637c0,0,1.991-4.093-0.195-6.268c-1.725-1.717-3.209-0.274-3.436,1.528
						c0,0-2.018-4.97-5.133-8.059c-3.115-3.089-6.2-2.592-4.503,1.517c1.697,4.109,5.457,7.611,5.457,7.611
						s-3.325-0.803-3.293,1.474c0.032,2.277,6.046,3.712,6.046,3.712s-4.09,0.872-2.363,3.089c1.727,2.217,7.196,1.975,7.196,1.975
						s5.515,10.615,6.507,18.094L550.201,186.246z"/>
				</g>
				<g>
					<path style="fill:#8BB43C;" d="M548.977,181.259c0.06-1.262-3.564-11.803-3.442-16.67c0,0-2.458,0.134-3.972-2.471
						c-1.425-2.451,1.694-3.732,2.385-3.401c0,0-3.847-2.432-3.133-5.432c0.563-2.368,2.585-1.922,3.726-0.509
						c0,0-0.899-5.288,0.124-9.554c1.023-4.266,3.908-5.467,4.627-1.08s-0.634,9.344-0.634,9.344s2.404-2.433,3.576-0.48
						c1.171,1.953-3.187,6.339-3.187,6.339s3.937-1.411,3.635,1.383c-0.301,2.794-5.08,5.467-5.08,5.467s0.897,11.928,3.99,18.81
						L548.977,181.259z"/>
				</g>
				<g>
					<path style="fill:#6B8C2A;" d="M548.412,179.148c-0.759-1.252-3.692-14.117-6.506-19.012c0,0,3.356-1.392,3.453-4.956
						c0.091-3.353-3.783-2.796-4.302-2.046c0,0,2.561-4.782,0.178-7.417c-1.881-2.081-3.686-0.417-4.064,1.707
						c0,0-2.01-5.935-5.406-9.678c-3.397-3.743-6.989-3.244-5.295,1.663c1.694,4.907,5.809,9.158,5.809,9.158
						s-3.786-1.046-3.895,1.648c-0.109,2.694,6.739,4.565,6.739,4.565s-4.776,0.913-2.926,3.584c1.85,2.672,8.178,2.544,8.178,2.544
						s5.682,12.711,6.347,21.583L548.412,179.148z"/>
				</g>
				<path style="fill:#8BB43C;" d="M530.718,141.208c0,0,16.009,23.34,17.369,45.892l2.147-4.119
					C550.234,182.982,548.068,165.371,530.718,141.208z"/>
				<g>
					<defs>
						<path id="SVGID_00000147933543270312736330000005566990366812199565_" d="M558.973,175.76
							c4.08,4.129,5.808,16.403,7.105,24.231c2.637,15.91,10.299,53.454,11.699,69.831c0.54,6.319-4.365,5.934-6.683,1.495
							c-2.045-3.917-21.442-51.638-29.016-70.799c-2.379-6.017-5.361-13.583-3.451-19.494
							C540.806,174.284,551.603,168.301,558.973,175.76z"/>
					</defs>
					<clipPath id="SVGID_00000023272185356785525820000006915908667232856204_">
						<use xlink:href="#SVGID_00000147933543270312736330000005566990366812199565_"  style="overflow:visible;"/>
					</clipPath>
					<g style="clip-path:url(#SVGID_00000023272185356785525820000006915908667232856204_);">
						<path style="fill:#DF7D2E;" d="M558.973,175.76c4.08,4.129,5.808,16.403,7.105,24.231
							c2.877,17.354,13.641,56.183,14.397,70.433c0.204,3.855-7.931,5.634-8.606,5.173c-3.651-2.49-22.216-55.918-29.79-75.079
							c-2.379-6.017-5.361-13.583-3.451-19.494C540.806,174.284,551.603,168.301,558.973,175.76z"/>
					</g>
					<g style="opacity:0.18;clip-path:url(#SVGID_00000023272185356785525820000006915908667232856204_);">
						<path style="fill:#FFC291;" d="M556.589,180.458c8.074,13.122,7.766,30.265,10.477,45.091
							c1.988,10.869,3.975,21.738,5.963,32.607c-4.232-10.678-8.243-21.444-12.032-32.292c-4.164-11.922-8.569-23.803-11.871-36.008
							c-0.903-3.342-2.41-8.816,0.599-11.574C552.374,175.856,554.685,177.364,556.589,180.458z"/>
					</g>
					
						<path style="clip-path:url(#SVGID_00000023272185356785525820000006915908667232856204_);fill:none;stroke:#B06324;stroke-width:1.6161;stroke-linecap:round;stroke-linejoin:round;stroke-miterlimit:10;" d="
						M537.235,190.837c0,0,6.207-3.043,13.889-4.306"/>
					
						<path style="clip-path:url(#SVGID_00000023272185356785525820000006915908667232856204_);fill:none;stroke:#B06324;stroke-width:1.6161;stroke-linecap:round;stroke-linejoin:round;stroke-miterlimit:10;" d="
						M558.096,192.8c0,0,4.338-1.849,8.466-1.758"/>
					
						<path style="clip-path:url(#SVGID_00000023272185356785525820000006915908667232856204_);fill:none;stroke:#B06324;stroke-width:1.6161;stroke-linecap:round;stroke-linejoin:round;stroke-miterlimit:10;" d="
						M551.454,210.539c0,0,8.064-3.942,15.845-4.275"/>
					
						<path style="clip-path:url(#SVGID_00000023272185356785525820000006915908667232856204_);fill:none;stroke:#B06324;stroke-width:1.6161;stroke-linecap:round;stroke-linejoin:round;stroke-miterlimit:10;" d="
						M565.509,247.997c0,0,8.064-3.942,15.844-4.275"/>
					
						<path style="clip-path:url(#SVGID_00000023272185356785525820000006915908667232856204_);fill:none;stroke:#B06324;stroke-width:1.6161;stroke-linecap:round;stroke-linejoin:round;stroke-miterlimit:10;" d="
						M546.549,231.609c0,0,7.762-4.507,15.499-5.394"/>
					
						<path style="clip-path:url(#SVGID_00000023272185356785525820000006915908667232856204_);fill:none;stroke:#B06324;stroke-width:1.6161;stroke-linecap:round;stroke-linejoin:round;stroke-miterlimit:10;" d="
						M547.591,200.578c1.67-0.77,3.508-1.219,5.317-1.455"/>
					
						<path style="clip-path:url(#SVGID_00000023272185356785525820000006915908667232856204_);fill:none;stroke:#B06324;stroke-width:1.6161;stroke-linecap:round;stroke-linejoin:round;stroke-miterlimit:10;" d="
						M561.71,236.57c1.67-0.77,3.508-1.219,5.317-1.455"/>
				</g>
			</g>
			<g>
				<g id="XMLID_74_">
					<path id="XMLID_81_" style="fill:#EBB731;" d="M751.514,296.39c-19.815,2.039-37.013-6.965-49.571-23.493
						c-5.542-7.272-7.244-14.304-7.236-20.302c0.034-7.642,2.82-13.626,4.029-16.438c2.163-5.016,3.917-4.377,5.05-4.613
						c2.206-0.44,3.151,2.513,4.221,7.082c1.083,4.557,14.816,25.447,26.866,29.703c12.038,4.267,25.708,2.295,33.232-2.072
						c7.524-4.366,13.604-6.327,17.073-8.387c3.47-2.06,6.128-5.599,10.634-8.051c4.506-2.452,6.927-4.11,7.661-1.164
						c0.202,0.836,0.379,1.473,0.446,1.989c0.191,1.268-0.079,1.982-2.527,2.821c-1.997,0.693-3.607,2.033-5.519,3.779l-0.012,0.011
						c-1.373,1.254-2.874,2.713-4.259,4.888c-3.332,5.263-1.536,9.001-6.593,16.905C781.234,284.936,772.197,294.268,751.514,296.39
						z"/>
					<path id="XMLID_80_" style="fill:#F0C72F;" d="M751.514,296.39c-19.815,2.039-37.013-6.965-49.571-23.493
						c-5.542-7.272-7.244-14.304-7.236-20.302c0.034-7.642,2.82-13.626,4.029-16.438c2.163-5.016,3.917-4.377,5.05-4.613
						c2.206-0.44,3.151,2.513,4.221,7.082c1.083,4.557,14.816,25.447,26.866,29.703c12.038,4.267,25.708,2.295,33.232-2.072
						c7.524-4.366,13.604-6.327,17.073-8.387c3.47-2.06,6.128-5.599,10.634-8.051c4.506-2.452,6.927-4.11,7.661-1.164
						c0.202,0.836,0.379,1.473,0.446,1.989c0.191,1.268-0.079,1.982-2.527,2.821c-1.997,0.693-3.607,2.033-5.519,3.779l-0.012,0.011
						c-1.373,1.254-2.874,2.713-4.259,4.888c-3.332,5.263-1.536,9.001-6.593,16.905C781.234,284.936,772.197,294.268,751.514,296.39
						z"/>
					<path style="fill:#F0A32F;" d="M795.812,249.819c-12.448,18.205-43.748,38.334-60.516,34.589
						c-10.239-2.286-24.752-15.785-29.396-25.259c-4.519-9.221-5.13-18.424-3.401-27.428c-1.023,0.239-2.299,1.04-3.764,4.436
						c-1.208,2.813-3.994,8.797-4.029,16.438c-0.008,5.997,1.694,13.029,7.236,20.302c12.558,16.527,29.756,25.532,49.571,23.493
						c20.683-2.122,29.72-11.454,33.493-17.341C787.812,274.665,795.179,252.611,795.812,249.819z"/>
					<path id="XMLID_79_" style="fill:#522A25;" d="M706.022,234.312c0.906,0.386,0.857,0.953,1.2,1.276
						c-0.463-1.552-0.812-3.163-1.607-4.04c-0.622-0.687-2.142-1.24-2.872-1.092c-0.703,0.142-2.224,0.079-2.325,1.609
						c-0.056,0.861-0.85,2.163-1.684,4.105c-0.11,0.257-0.241,0.557-0.374,0.865c0.051-0.007,0.084-0.004,0.143-0.015
						c1.441-0.276,5.742,0.96,5.839-0.282C704.343,236.737,704.912,233.839,706.022,234.312z"/>
					<path id="XMLID_78_" style="fill:#CD842E;" d="M802.383,254.614c-1.997,0.693-5.075,0.362-6.932,2.169
						c1.528-4.48,0.575-3.654,0.361-6.964c4.506-2.452,6.927-4.11,7.661-1.164c0.202,0.836,0.379,1.473,0.446,1.989
						C804.11,251.911,804.831,253.775,802.383,254.614z"/>
					<path id="XMLID_77_" style="fill:#522A25;" d="M802.383,254.614c-1.997,0.693-5.075,0.362-6.932,2.169
						c1.528-4.48,0.575-3.654,0.361-6.964c4.506-2.452,6.927-4.11,7.661-1.164c0.202,0.836,0.379,1.473,0.446,1.989
						C804.11,251.911,804.831,253.775,802.383,254.614z"/>
				</g>
				<g id="XMLID_66_">
					<path id="XMLID_73_" style="fill:#EBB731;" d="M777.016,312.379c-21.089,12.464-45.103,11.288-67.913-0.65
						c-10.056-5.245-15.686-12.197-18.857-18.877c-4.011-8.525-4.066-16.619-4.205-20.372c-0.238-6.697,2.062-6.887,3.205-7.734
						c2.235-1.625,4.857,1.177,8.476,5.712c3.627,4.516,30.064,20.706,45.802,19.244c15.73-1.443,29.979-10.671,36.083-19.402
						c6.104-8.732,11.867-14.041,14.657-18.12c2.79-4.079,3.889-9.385,7.631-14.433c3.741-5.048,5.572-8.138,7.955-5.237
						c0.669,0.827,1.205,1.445,1.553,1.985c0.885,1.313,0.962,2.246-1.333,4.44c-1.868,1.799-2.959,4.118-4.172,7.047L805.89,246
						c-0.871,2.102-1.778,4.498-2.175,7.633c-0.939,7.573,3.052,10.81,1.583,22.211
						C804.198,284.339,799.032,299.376,777.016,312.379z"/>
					
						<radialGradient id="SVGID_00000135675267788378699920000017559216581815079062_" cx="733.7095" cy="236.0646" r="72.7138" gradientTransform="matrix(0.9984 0.0573 -0.0573 0.9984 12.7611 -31.8693)" gradientUnits="userSpaceOnUse">
						<stop  offset="0.494" style="stop-color:#FFFFFF;stop-opacity:0"/>
						<stop  offset="0.8446" style="stop-color:#AB723D"/>
					</radialGradient>
					<path style="fill:url(#SVGID_00000135675267788378699920000017559216581815079062_);" d="M811.403,234.494
						c-0.348-0.54-0.884-1.158-1.553-1.985c-2.306-2.807-4.1,0.003-7.604,4.761c-0.785,2.074-1.917,3.986-3.401,5.638
						c-1.618,3.34-2.736,6.575-4.58,9.271c-1.679,2.454-4.445,5.372-7.703,9.195c-1.565,3.291-3.273,6.513-5.181,9.518
						c-7.887,12.429-23.184,23.558-37.951,25.495c-20.367,2.672-45.723-9.313-57.137-27.868c-0.207,0.979-0.311,2.258-0.251,3.96
						c0.139,3.753,0.194,11.847,4.205,20.372c3.17,6.68,8.801,13.633,18.857,18.877c22.81,11.938,46.824,13.113,67.913,0.65
						c22.016-13.003,27.181-28.04,28.283-36.535c1.469-11.4-2.522-14.638-1.583-22.211c0.397-3.135,1.303-5.53,2.175-7.633
						l0.008-0.019c1.213-2.928,2.305-5.247,4.172-7.047C812.365,236.74,812.288,235.807,811.403,234.494z"/>
					<path id="XMLID_72_" style="fill:#F0C72F;" d="M777.016,312.379c-21.089,12.464-45.103,11.288-67.913-0.65
						c-10.056-5.245-15.686-12.197-18.857-18.877c-4.011-8.525-4.066-16.619-4.205-20.372c-0.238-6.697,2.062-6.887,3.205-7.734
						c2.235-1.625,4.857,1.177,8.476,5.712c3.627,4.516,30.064,20.706,45.802,19.244c15.73-1.443,29.979-10.671,36.083-19.402
						c6.104-8.732,11.867-14.041,14.657-18.12c2.79-4.079,3.889-9.385,7.631-14.433c3.741-5.048,5.572-8.138,7.955-5.237
						c0.669,0.827,1.205,1.445,1.553,1.985c0.885,1.313,0.962,2.246-1.333,4.44c-1.868,1.799-2.959,4.118-4.172,7.047L805.89,246
						c-0.871,2.102-1.778,4.498-2.175,7.633c-0.939,7.573,3.052,10.81,1.583,22.211
						C804.198,284.339,799.032,299.376,777.016,312.379z"/>
					<path style="fill:#F0A32F;" d="M795.812,249.819c-10.804,29.23-26.107,45.288-36.372,47.513
						c-12.669,2.746-42.98,5.215-53.196-2.943c-9.943-7.94-15.505-17.87-18.342-28.783c-1.019,0.792-2.021,2.341-1.86,6.875
						c0.139,3.753,0.193,11.847,4.205,20.372c3.17,6.68,8.801,13.633,18.857,18.877c22.81,11.938,46.824,13.113,67.913,0.65
						c22.016-13.003,27.181-28.04,28.283-36.536C806.114,269.52,796.584,253.252,795.812,249.819z"/>
					<path id="XMLID_71_" style="fill:#522A25;" d="M695.234,267.479c-1.341-1.49-2.585-3.103-3.939-3.671
						c-1.06-0.444-3.053-0.278-3.792,0.262c-0.712,0.519-2.446,1.232-1.748,2.987c0.393,0.988,0.195,2.845,0.291,5.436
						c0.013,0.342,0.026,0.744,0.04,1.156c0.054-0.035,0.092-0.048,0.152-0.091c1.466-1.049,0.741-2.653,2.169-2.745
						c0,0,4.764,0.86,4.215-0.572C692.623,270.241,694.68,267.296,695.234,267.479z"/>
					<path id="XMLID_70_" style="fill:#CD842E;" d="M811.788,239.704c-1.867,1.799-5.487,3.014-6.606,5.981
						c-0.665-5.774-1.293-4.363-3.287-7.938c3.741-5.048,5.572-8.138,7.955-5.237c0.669,0.827,1.205,1.445,1.553,1.985
						C812.288,235.807,814.083,237.509,811.788,239.704z"/>
					<path id="XMLID_69_" style="fill:#522A25;" d="M811.788,239.704c-1.867,1.799-5.487,3.014-6.606,5.981
						c-0.665-5.774-1.293-4.363-3.287-7.938c3.741-5.048,5.572-8.138,7.955-5.237c0.669,0.827,1.205,1.445,1.553,1.985
						C812.288,235.807,814.083,237.509,811.788,239.704z"/>
				</g>
				<g id="XMLID_57_">
					<path id="XMLID_65_" style="fill:#EBB731;" d="M791.025,318.637c-17.502,17.14-41.102,21.734-66.103,15.59
						c-11.017-2.691-18.146-8.097-22.82-13.827c-5.932-7.32-7.918-15.167-8.949-18.778c-1.831-6.446,0.358-7.181,1.265-8.275
						c1.782-2.112,4.997-0.017,9.595,3.522c4.601,3.519,34.139,12.926,49.072,7.747c14.93-5.159,26.563-17.522,30.405-27.459
						c3.841-9.937,8.17-16.47,9.905-21.096c1.735-4.627,1.535-10.043,3.963-15.838c2.428-5.796,3.467-9.234,6.474-6.986
						c0.847,0.643,1.515,1.115,1.982,1.557c1.173,1.063,1.471,1.952-0.234,4.63c-1.384,2.193-1.89,4.706-2.368,7.839l-0.003,0.02
						c-0.344,2.25-0.652,4.792-0.289,7.931c0.897,7.578,5.546,9.768,6.842,21.19C810.723,284.917,809.298,300.752,791.025,318.637z"
						/>
					
						<radialGradient id="XMLID_00000175301557633123070060000008896080679456698796_" cx="739.0256" cy="285.9748" r="72.7206" gradientTransform="matrix(0.9831 -0.1828 0.1828 0.9831 -47.6113 118.8017)" gradientUnits="userSpaceOnUse">
						<stop  offset="0.494" style="stop-color:#FFFFFF;stop-opacity:0"/>
						<stop  offset="0.8446" style="stop-color:#AB723D"/>
					</radialGradient>
					<path id="XMLID_64_" style="fill:url(#XMLID_00000175301557633123070060000008896080679456698796_);" d="M791.025,318.637
						c-17.502,17.14-41.102,21.734-66.103,15.59c-11.017-2.691-18.146-8.097-22.82-13.827c-5.932-7.32-7.918-15.167-8.949-18.778
						c-1.831-6.446,0.358-7.181,1.265-8.275c1.782-2.112,4.997-0.017,9.595,3.522c4.601,3.519,34.139,12.926,49.072,7.747
						c14.93-5.159,26.563-17.522,30.405-27.459c3.841-9.937,8.17-16.47,9.905-21.096c1.735-4.627,1.535-10.043,3.963-15.838
						c2.428-5.796,3.467-9.234,6.474-6.986c0.847,0.643,1.515,1.115,1.982,1.557c1.173,1.063,1.471,1.952-0.234,4.63
						c-1.384,2.193-1.89,4.706-2.368,7.839l-0.003,0.02c-0.344,2.25-0.652,4.792-0.289,7.931c0.897,7.578,5.546,9.768,6.842,21.19
						C810.723,284.917,809.298,300.752,791.025,318.637z"/>
					<path id="XMLID_63_" style="fill:#F0C72F;" d="M791.025,318.637c-17.502,17.14-41.102,21.734-66.103,15.59
						c-11.017-2.691-18.146-8.097-22.82-13.827c-5.932-7.32-7.918-15.167-8.949-18.778c-1.831-6.446,0.358-7.181,1.265-8.275
						c1.782-2.112,4.997-0.017,9.595,3.522c4.601,3.519,34.139,12.926,49.072,7.747c14.93-5.159,26.563-17.522,30.405-27.459
						c3.841-9.937,8.17-16.47,9.905-21.096c1.735-4.627,1.535-10.043,3.963-15.838c2.428-5.796,3.467-9.234,6.474-6.986
						c0.847,0.643,1.515,1.115,1.982,1.557c1.173,1.063,1.471,1.952-0.234,4.63c-1.384,2.193-1.89,4.706-2.368,7.839l-0.003,0.02
						c-0.344,2.25-0.652,4.792-0.289,7.931c0.897,7.578,5.546,9.768,6.842,21.19C810.723,284.917,809.298,300.752,791.025,318.637z"
						/>
					<path style="fill:#F0A32F;" d="M799.808,255.127c-11.587,21.37-5.949,35.566-27.476,50.321
						c-9.898,6.785-42.635,11.227-54.504,5.746c-11.552-5.335-19.149-6.772-24.51-16.691c-0.8,1.012-1.403,2.756-0.164,7.12
						c1.031,3.611,3.017,11.458,8.949,18.778c4.674,5.73,11.802,11.136,22.82,13.827c25.001,6.144,48.601,1.55,66.103-15.59
						c18.273-17.885,19.697-33.721,18.738-42.233C809.044,270.07,801.378,258.277,799.808,255.127z"/>
					<path id="XMLID_62_" style="fill:#522A25;" d="M698.735,294.274c1.175-0.326,1.57,0.252,2.152,0.297
						c-1.658-1.126-3.251-2.396-4.702-2.624c-1.135-0.179-3.031,0.459-3.62,1.16c-0.567,0.674-2.082,1.781-0.984,3.318
						c0.618,0.865,0.869,2.716,1.581,5.209c0.094,0.329,0.203,0.716,0.315,1.113c0.044-0.046,0.078-0.069,0.126-0.124
						c1.173-1.369,6.282-3.487,5.407-4.746C699.01,297.876,697.297,294.673,698.735,294.274z"/>
					<path id="XMLID_61_" style="fill:#CD842E;" d="M807.433,239.761c-1.383,2.193-4.608,4.237-4.986,7.386
						c-2.024-5.448-2.298-3.928-5.088-6.923c2.428-5.796,3.467-9.234,6.474-6.986c0.847,0.643,1.515,1.115,1.982,1.557
						C806.988,235.857,809.137,237.082,807.433,239.761z"/>
					<path id="XMLID_60_" style="fill:#522A25;" d="M807.433,239.761c-1.383,2.193-4.608,4.237-4.986,7.386
						c-2.024-5.448-2.298-3.928-5.088-6.923c2.428-5.796,3.467-9.234,6.474-6.986c0.847,0.643,1.515,1.115,1.982,1.557
						C806.988,235.857,809.137,237.082,807.433,239.761z"/>
				</g>
				<g id="XMLID_49_">
					<path id="XMLID_56_" style="fill:#F0C72F;" d="M805.361,321.417c-14.342,19.859-36.821,28.388-62.502,26.572
						c-11.314-0.784-19.256-4.903-24.833-9.758c-7.087-6.208-10.375-13.605-12.003-16.988c-2.897-6.043-0.865-7.137-0.156-8.37
						c1.398-2.384,4.922-0.864,10.053,1.844c5.131,2.688,35.836,6.951,49.675-0.686c13.839-7.616,23.207-21.773,25.308-32.217
						c2.101-10.444,5.259-17.616,6.185-22.47c0.925-4.854-0.19-10.158,1.22-16.281c1.41-6.123,1.851-9.688,5.195-7.982
						c0.944,0.49,1.682,0.842,2.217,1.198c1.337,0.849,1.781,1.674,0.555,4.603c-0.992,2.396-1.064,4.958-1.005,8.127l0,0.02
						c0.042,2.275,0.17,4.834,1.06,7.865c2.169,7.316,7.122,8.686,10.337,19.723C819.056,284.845,820.337,300.693,805.361,321.417z"
						/>
					<path id="XMLID_55_" style="fill:#F0C72F;" d="M805.361,321.417c-14.342,19.859-36.821,28.388-62.502,26.572
						c-11.314-0.784-19.256-4.903-24.833-9.758c-7.087-6.208-10.375-13.605-12.003-16.988c-2.897-6.043-0.865-7.137-0.156-8.37
						c1.398-2.384,4.922-0.864,10.053,1.844c5.131,2.688,35.836,6.951,49.675-0.686c13.839-7.616,22.601-14.182,25.308-32.217
						c1.582-10.535,5.259-17.616,6.185-22.47c0.925-4.854-0.19-10.158,1.22-16.281c1.41-6.123,1.851-9.688,5.195-7.982
						c0.944,0.49,1.682,0.842,2.217,1.198c1.337,0.849,1.781,1.674,0.555,4.603c-0.992,2.396-1.064,4.958-1.005,8.127l0,0.02
						c0.042,2.275,0.17,4.834,1.06,7.865c2.169,7.316,7.122,8.686,10.337,19.723C819.056,284.845,820.337,300.693,805.361,321.417z"
						/>
					<path style="fill:#F0A32F;" d="M806.33,256.896c6.748,26.155,1.446,51.973-25.417,69.743
						c-10.812,7.152-34.984,9.991-47.611,6.602c-12.289-3.299-21.359-10.176-28.325-19.042c-0.617,1.133-0.916,2.954,1.046,7.044
						c1.628,3.384,4.917,10.781,12.003,16.989c5.578,4.854,13.52,8.974,24.833,9.758c25.681,1.816,48.16-6.713,62.502-26.572
						c14.976-20.725,13.695-36.572,11.305-44.799C814.884,270.497,808.411,259.734,806.33,256.896z"/>
					<path id="XMLID_54_" style="fill:#522A25;" d="M712.447,312.983c-1.825-0.829-3.61-1.81-5.078-1.789
						c-1.149,0.016-2.909,0.966-3.371,1.757c-0.444,0.761-1.749,2.108-0.407,3.437c0.755,0.748,1.317,2.529,2.441,4.865
						c0.149,0.309,0.321,0.671,0.499,1.043c0.035-0.053,0.065-0.081,0.103-0.144c0.924-1.548-0.382-2.728,0.89-3.384
						c0,0,4.71-1.118,3.634-2.211C711.158,316.558,711.865,313.037,712.447,312.983z"/>
					<path id="XMLID_53_" style="fill:#CD842E;" d="M808.157,240.901c-0.992,2.396-3.823,4.957-3.662,8.124
						c-2.919-5.026-2.93-3.481-6.188-5.961c1.41-6.123,1.851-9.688,5.195-7.982c0.944,0.49,1.682,0.842,2.217,1.198
						C807.056,237.129,809.382,237.972,808.157,240.901z"/>
					<path id="XMLID_52_" style="fill:#522A25;" d="M808.157,240.901c-0.992,2.396-3.823,4.957-3.662,8.124
						c-2.919-5.026-2.93-3.481-6.188-5.961c1.41-6.123,1.851-9.688,5.195-7.982c0.944,0.49,1.682,0.842,2.217,1.198
						C807.056,237.129,809.382,237.972,808.157,240.901z"/>
				</g>
			</g>
			<g>
				<g>
					<g>
						<path style="fill:#BBDE76;" d="M623.116,223.645c13.418-26.72,50.359-26.045,71.318-9.404
							c9.284,7.371,15.214,18.799,18.283,30.488c1.54,5.868-0.228,12.612-1.781,18.26c-1.426,5.183-3.248,15.8-7.282,19.796
							c-5.253,5.204-11.385,0.928-17.753,0.798c-5.174-0.105-9.948,2.288-15.221,2.461c-5.487,0.181-14.423-3.209-18.61-6.826
							c-5.3-4.579-1.754-8.988-4.809-13.486c-4.163-6.129-15.099-5.272-16.957-15.164c-1.023-5.443,4.156-10.54,0.251-15.314
							c-1.415-1.729-5.501-0.614-7.377-2.931C621.369,230.089,621.896,226.07,623.116,223.645z"/>
						<path style="fill:#D8EB96;" d="M693.211,231.389c0,0,1.417,6.067,1.439,9.988c0.022,3.922,1.448,7.582,2.602,10.696
							c0.36,0.973,0.685,2.318,0.924,3.808c-1.676-3.013-5.826-11.468-6.951-24.876c-0.192-2.284-0.697-2.953-0.697-2.953
							s-0.835,1.799-4.993,6.254c-0.269,0.288-0.535,0.555-0.799,0.806c-0.941-1.197,3.189-5.288,4.01-6.516
							c0.821-1.228,0.224-2.908-0.255-5.069c-0.479-2.161-3.231-6.275-3.231-6.275s-2.962,4.56-8.467,8.474
							c-0.375-0.388,6.72-8.821,7.268-9.557c1.336-1.795-1.785-4.65-5.005-5.259c-2.495-0.471-10.072,4.33-10.072,4.33
							s-0.013-1.288,0.76-1.72c2.748-1.536,6.78-4.939,6.494-5.429c-0.286-0.491-6.4-2.89-6.4-2.89s-7.9,2.732-7.117,2.307
							c1.905-1.034,5.157-3.293,5.157-3.293s-8.196-3.091-12.673-2.121c0,0,4.381-3.36,9.485-2.845
							c5.104,0.515,8.1,1.567,12.256,4.4c4.156,2.833,8.112,7.765,9.49,9.283c1.378,1.518,3.88,3.156,4.482,4.614
							c0.603,1.458,4.436,4.088,6.048,6.099c1.612,2.011,2.914,3.891,2.914,3.891s-2.801-2.815-4.896-4.395
							c-2.095-1.579-4.777-3.159-5.042-2.823c-0.265,0.335,1.942,5.983,1.942,5.983s5.971,6.091,6.793,7.969
							c0.822,1.878,4.407,5.91,5.331,8.889c0.923,2.979,3.139,4.57,2.638,10.621c-0.501,6.051-0.744,12.449-0.744,12.449
							s-0.766-5.991-0.621-9.313c0.145-3.323,1.452-5.263-0.723-9.5c-2.175-4.238-2.529-7.307-5.084-9.987
							C696.917,234.749,693.211,231.389,693.211,231.389z"/>
					</g>
					<g>
						<path style="fill:#70923C;" d="M660.866,317.515c28.488,6.799,52.269-20.205,54.158-46.672
							c0.923-12.936-3.199-22.293-9.748-33.385c-3.808-6.449-10.082-9.735-16.763-12.71c-4.86-2.164-13.009-6.71-18.359-6.88
							c-8.763-0.278-8.834,5.775-13.124,11.711c-3.244,4.488-8.043,6.641-11.939,10.615c-4.534,4.624-7.074,12.027-7.652,18.468
							c-0.673,7.5,3.53,7.164,6.073,12.835c3.04,6.78-4.768,14.877,0.829,22.651c3.165,4.397,11.096,4.191,12.44,9.823
							c0.624,2.616-3.324,4.819-2.526,7.954C654.966,314.724,658.088,316.852,660.866,317.515z"/>
						<path style="fill:#D8EB96;" d="M705.589,294.13c0,0,2.214-6.208,2.028-6.742c-0.186-0.534-5.477,0.365-8.478,1.476
							c-0.8,0.296,8.591-2.973,8.193-5.449c-0.398-2.475,0.41-6.9-0.688-7.236c-1.099-0.336-11.654,0.642-14.363,1.5
							c-0.248,0.079-0.492,0.173-0.736,0.275c-0.262-0.439-0.532-0.876-0.811-1.31c0.676-0.188,1.38-0.391,2.14-0.621
							c7.358-2.232,13.742-1.467,13.742-1.467s-1.318-4.782-2.663-6.555c-1.345-1.773-2.24-3.327-3.741-3.488
							c-1.501-0.161-6.246,0.557-6.032,1.559c0.214,1.002-3.809-2.609-0.532-2.78c6.223-0.325,8.185,0.192,8.185,0.192
							s-0.449-0.556-1.812-2.461c-1.362-1.904-4.922-5.893-7.051-6.335c-1.436-0.298-5.57,0.057-9.418,0.446
							c-0.256-0.321-0.512-0.642-0.773-0.957c4.962-0.39,9.423-1.077,9.154-1.731c-0.46-1.118-4.718-5.988-16.737-11.119
							c-12.018-5.13-18.779-5.353-23.582-5.064c0,0,9.425-0.709,19.348,1.626c9.923,2.335,14.721,6.527,14.721,6.527
							s-2.815-5.736-5.61-8.102s-7.944-3.26-10.196-4.909c-2.252-1.649-6.574-5.131-6.574-5.131s9.517,5.738,13.856,7.023
							c4.339,1.285,8.966,6.387,10.606,9.316c1.64,2.929,3.516,6.426,6.539,8.996c3.023,2.57,6.76,7.621,6.76,7.621
							s-0.095-5.073-0.44-8.819c-0.345-3.746-2.489-6.024-4.309-10.497c-1.82-4.473-4.22-4.706-6.903-6.752
							s-6.828-6.535-6.828-6.535s5.141,3.956,10.194,7.498c5.053,3.541,4.785,6.327,6.475,8.995
							c1.69,2.667,4.698,6.889,5.053,10.087c0.354,3.199-0.205,10.365-0.205,10.365s2.879,5.378,3.317,5.389
							c0.438,0.011,1.025-3.092,1.226-5.749c0.202-2.657-0.07-6.679-0.07-6.679s0.569,2.242,1.028,4.806
							c0.459,2.564-0.103,7.248,0.608,8.657c0.71,1.409,1.079-1.906,1.146-5.403c0.067-3.498-0.089-5.806-0.089-5.806
							s1.828,7.231,0.787,10.508c-1.04,3.276-1.569,5.104-1.333,7.146c0.236,2.042,1.357,8.265,0.762,13.262
							c-0.595,4.997-1.769,7.952-4.736,12.154c-2.967,4.201-8.414,5.364-8.414,5.364c3.681-2.763,6.714-10.962,6.714-10.962
							C705.268,295.407,705.376,294.982,705.589,294.13z"/>
					</g>
					<path style="fill:#9AC742;" d="M623.055,323.627c-35.012-3.282-50.637-45.182-41.872-75.372
						c2.036-7.012,3.683-15.129,8.536-20.813c4.914-5.755,12.285-9.451,18.086-14.119c14.15-11.389,33.032-10.938,49.525-10.029
						c11.755,0.647,13.073,5.057,14.523,15.112c1.094,7.586,4.874,13.217,8.291,20.406c3.968,8.349,2.968,16.241,0.966,25.35
						c-2.124,9.664-5.875,7.385-13.054,13.269c-6.071,4.975-1.725,5.153-3.087,9.671c-1.907,6.325-5.251,14.139-11.619,17.238
						c-6.137,2.987-15.017-0.184-18.506,6.675c-1.607,3.159,1.638,5.855-1.277,9.308
						C631.316,322.989,626.529,323.953,623.055,323.627z"/>
					<path style="fill:#8BB43C;" d="M642.294,259.967c-5.61-8.699-0.067-11.471,7.189-16.679c2.46-0.945,4.41-2.47,5.848-4.557
						c0.609-1.429,0.864-2.907,0.771-4.418c-0.12,0.116,4.279-2.82,4.024-2.3c2.067-4.211,0.956-2.138,0.759-7.194
						c-0.06-1.544,0.328-5.396-0.016-6.895c-0.766-3.338-2.806-6.941-4.9-9.618c-1.045-1.336-5.605-4.467-5.667-6.021
						c4.019-0.916,14.966,2.309,18.224,4.478c4.523,3.01,5.016,7.887,8.804,10.139c5.008,2.977,8.111,1.924,12.779,7.604
						c1.866,2.27,3.414,4.96,5.203,7.313c2.835,3.73,6.417,5.737,9.079,8.919c-3.719,3.384-13.421-9.21-19.266-3.611
						c-3.22,3.085-3.258,14.404-3.31,18.916c-0.036,3.182,2.31,12.344-0.192,13.779c-4.818,2.762-7.766-8.004-10.151-9.645
						c-3.544-2.439-7.262-0.255-11.44,0.734c-2.74,0.648-11.405,4.205-13.428,3.63C645.512,264.231,640.818,256.964,642.294,259.967
						z"/>
					<path style="fill:#8BB43C;" d="M676.07,241.745c2.351,1.263-4.139-4.244-5.789-4.791c-4.497-1.493-6.922,1.75-10.508,1.04
						c-5.479-1.086-5.51-5.83-11.542-4.132c-3.243,0.913-4.736,6.192-8.208,6.113c-4.475-0.103-3.304-3.914-6.247-4.538
						c-2.919-0.619-6.267,1.195-9.758,0.507c-3.176-0.626-6.894-3.333-11.462-1.697c-10.216,3.661-6.011,12.569-10.32,19.106
						c-4.27,6.478-11.748,7.683-14.549,15.427c-3.032,8.382-4.416,17.904-4.598,26.226c4.692-1.978,7.389-11.151,12.419-15.073
						c4.015-3.13,10.419-6.78,15.928-7.423c6.737-0.786,13.186,4.203,20.24,3.939c8.198-0.307,12.318-8.646,20.356-8.475
						c6.226,0.133,10.622,5.969,16.969,6.43c3.597,0.261,13.331-1.051,15.045-4.866c1.3-2.893-4.236-10.443-5.239-13.667
						C677.366,251.234,676.766,246.46,676.07,241.745z"/>
					<path style="fill:#D8EB96;" d="M639.335,260.23c-3.978-1.199-7.988-2.225-12.014-2.945c-5.034-2.209-9.358-5.208-11.542-6.154
						c-3.076-1.332-5.328,1.25,0.257,4.7c0.21,0.13,0.439,0.272,0.662,0.41c-0.738-0.008-1.472-0.03-2.21-0.007
						c-0.173,0.005-0.339,0.028-0.511,0.036c-3.777-3.285-4.531-6.658-3.845-7.639c0.773-1.106-4.694-4.13-6.599-4.603
						c-1.905-0.473-3.755,1.017-6.241,2.576c-0.568,0.356-1.224,0.906-1.895,1.533c-0.101-1.193-0.199-2.383-0.289-3.568
						c1.883-1.482,4.149-3.421,4.149-3.421s2.817-8.95,4.935-12.547c2.118-3.597,2.792-7.385,4.743-9.797
						c1.951-2.412,5.624-4.444,5.624-4.444s-4.751,2.898-5.723,6.991s-4.467,9.722-2.37,7.947c2.097-1.775,5.826-7.785,9.311-10.066
						c3.485-2.281,4.646-5.549,12.596-7.262c7.949-1.714,16.036-3.872,16.036-3.872s-7.185,3.192-11.467,4.294
						c-4.283,1.103-7.316,0.26-11.876,4.523c-4.56,4.263-8.424,5.909-10.818,10.13c-2.393,4.221-5.137,10.213-5.137,10.213
						s7.27-4.257,12.336-5.882c5.066-1.625,9.174-4.841,12.675-7.472c3.501-2.631,11.671-6.361,17.477-5.863
						c5.806,0.498,19.546-1.386,19.546-1.386s-6.586,1.908-10.016,2.667c-3.43,0.76-9.977-0.596-14.513,0.844
						c-4.536,1.439-10.883,6.772-10.883,6.772s8.073-2.691,20.984-0.802c12.91,1.888,23.07,7.209,23.07,7.209
						c-5.196-2.591-12.854-5.607-29.817-5.191c-16.963,0.416-24.888,4.193-26.035,5.297c-1.147,1.104,15.009,8.864,21.759,10.826
						c6.75,1.961,12.43-3.414,18.879-3.562c1.242-0.028,2.499-0.042,3.716-0.046c5.1-0.014,9.526,0.124,9.526,0.124
						s-6.729,0.449-10.737,0.806c-4.007,0.357-3.837-0.16-7.065,1.76c-3.229,1.919-6.286,3.334-6.921,3.117
						c-0.635-0.217,2.048,2.213,10.15,3.966c8.103,1.753,14.181,5.538,14.181,5.538s-16.164-4.542-20.611-6.075
						c-4.448-1.533-13.481-4.336-18.216-6.617c-4.734-2.281-14.25-7.215-17.104-7.67c-2.854-0.456-9.334,2.627-12.003,4.27
						c-2.669,1.643-3.426,2.167-3.426,2.167s2.648,0.252,10.146,3.484c7.498,3.232,8.38,7.664,17.458,10.438
						c9.077,2.774,21.206,2.874,27.823,5.325c6.617,2.452,8.692,4.43,8.692,4.43s-8.091-3.606-14.783-4.507
						C646.624,260.584,643.47,260.664,639.335,260.23z"/>
					<path style="fill:#70923C;" d="M580.435,265.486c-12.507,33.422,17.045,66.034,48.274,72.353
						c7.201,1.457,13.909,3.479,21.288,1.519c7.369-1.957,14.961-6.026,22.07-8.776c8.385-3.244,13.218-8.013,18.378-15.278
						c4.846-6.825,11.571-16.857,14.08-25c3.279-10.643-2.438-12.097-9.517-17.611c-6.166-4.803-8.758-10.997-13.541-17.175
						c-5.135-6.633-11.343-10.406-19.873-11.902c-6.842-1.2-11.618-0.077-17.645,3.056c-3.619,1.881-4.418,4.04-9.2,3.118
						c-1.453-0.28-1.142-2.245-2.462-2.577c-6.197-1.556-14.643-2.745-20.503,0.751c-6.899,4.116-7.388,14.229-15.98,12.786
						c-3.303-0.555-3.846-3.437-7.801-2.667C584.663,258.734,581.67,262.356,580.435,265.486z"/>
					<path style="fill:#8BB43C;" d="M619.45,330.64c1.85-0.987,7.074,0.005,8.978,0.617c2.732,0.878,3.915-1.552,6.57-0.533
						c4.07,1.563,6.932,2.171,11.249,2.044c7.47-0.219,12.972-3.457,19.105-7.368c1.543-0.984,2.943-1.907,4.602-2.746
						c1.261-0.638,2.989-1.064,4.112-1.783c3.276-2.096,5.913-7.458,7.486-10.838c0.996-2.141,1.847-4.383,2.593-6.611
						c1.191-3.557-0.051-6.544-2.002-9.66c-2.248-3.589-4.204-6.606-4.599-11.213c-0.392-4.576-1.849-8.318-3.37-12.698
						c-2.545-7.328-7.352-14.209-16.312-11.76c-4.223,1.154-5.734,6.64-9.211,9.15c-2.424,1.75-5.812,2.344-8.552,3.471
						c-3.668,1.51-6.619,3.21-9.776,5.541c-1.872,1.382-4.261,2.58-5.328,4.731c-1.027,2.071-1.048,5.067-1.428,7.325
						c-0.476,2.834-5.497,8.516-6.412,10.015c-2.527,4.144-0.924,8.225-1.436,12.597c-0.349,2.986-1.429,6.069-0.507,9.063
						C616.14,322.994,617.341,328.673,619.45,330.64z"/>
					<path style="fill:#688737;" d="M607.808,252.522c-1.955,2.876-4.457,5.031-6.603,7.604c-3.14-0.251-4.563,0.919-4.329,3.501
						c0.03,1.398-0.404,2.673-1.132,3.787c-2.719,4.157-3.948,7.706-7.779,10.621c-8.979,6.83-11.18,7.035-6.656,20.866
						c7.856,24.015,33.55,35.408,56.385,40.757c-3.258-3.159-26.442-8.452-20.703-14.726c-6.531,0.071-10.303-3.06-11.676-8.878
						c-0.671-2.841,1.829-5.561,0.921-8.302c-0.507-1.53-3.546-1.578-3.731-2.24c-2.146-7.696,5.842-17.297,6.542-26.865
						c0.255-3.487-1.473-10.271,0.774-13.325c2.026-2.753,6.57-3.86,8.44-4.592c1.665-0.651,4.658-1.581,7.18-2.386
						c3.082-0.984,5.245-1.289,8.045-2.477c0.904-0.384,1.542-3.036,3.393-3.799c2.532-1.044,5.194,1.182,7.891,0.287
						c4.624-1.534,7.166-5.711,10.389-8.814c-6.019-1.193-16.544,4.434-22.872,3.676
						C622.63,246.056,615.018,241.884,607.808,252.522z"/>
					<path style="fill:#D8EB96;" d="M684.919,263.209c-0.297,5.849-1.396,14.091-10.034,28.57
						c-8.639,14.479-15.801,19.294-17.334,19.74c-1.533,0.446,0.81-13.977,2.382-20.63c1.572-6.653-0.926-13.437,1.479-21.359
						c2.406-7.922,2.091-15.156,2.091-15.156s-3.953,16.414-4.755,21.02c-0.802,4.607-2.701,13.772-2.942,18.921
						c-0.241,5.149-0.395,15.609-1.353,18.241c-0.957,2.632-10.172,6.933-10.172,6.933s0.927-3.813,0.403-9.608
						c-0.716-7.917-4.351-8.28-2.475-17.404c1.877-9.124,7.639-19.688,8.681-26.645c1.042-6.958,0.304-9.745,0.304-9.745
						s-0.751,8.835-3.192,15.089c-2.44,6.254-4.586,9.017-6.868,16.18c-2.282,7.162-0.969,16.016-1.24,19.277
						c-0.271,3.261,0.981,11.956,0.508,13.834c-0.473,1.877-2.639,2.678-5.162,4.03c-2.523,1.352-8.939,2.352-8.939,2.352
						s2.101-7.888,0.493-17.343c-1.608-9.455-1.26-12.847,0.062-23.755c1.321-10.909,4.104-24.425,4.104-24.425
						s-1.922,4.972-3.333,12.503c-1.411,7.53-3.244,24.903-3.934,26.544c-0.69,1.641,0.422,4.713,1.062,8.192
						c0.64,3.48,0.075,16.762-0.548,18.087c-0.623,1.324-6.154-0.328-9.35-0.216c-3.197,0.112-4.549-13.03-4.549-13.03
						s-2.84-11.644-1.001-19.91c1.839-8.266,4.288-23.598,4.288-23.598s-6.253,17.666-6.542,22.858
						c-0.289,5.193,1.396,18.983,2.303,22.807c0.907,3.824,1.161,10.456,0.464,10.599c-0.697,0.142-7.975-3.592-7.975-3.592
						c-0.469-3.289-0.77-4.872-1.185-8.288c0,0,2.392-12.844,2.438-20.544c0.046-7.7-0.777-12.727-0.777-12.727
						s-0.501,10.019-0.814,16.783c-0.313,6.764-1.398,9.191-1.969,10.706c-0.571,1.515-3.947-3.701-4.676-12.112
						c-0.728-8.411,0.637-16.571,0.637-16.571s-2.246,12.582-2.031,17.636c0.215,5.054,4.051,13.988,4.638,16.634
						c0.588,2.646,1.257,7.462,1.257,7.462s-9.144-5.174-11.772-10.044c0,0,0.526,6.651,4.933,11.024
						c4.407,4.373,7.724,6.388,13.784,7.995c6.06,1.607,14.195,1.185,16.856,1.195c2.66,0.011,4.922,0.942,8.978,2.732
						c4.056,1.79,13.735,0.665,13.735,0.665s-3.017-0.147-7.525-0.828c-4.508-0.681-8.741-1.574-6.79-2.272
						c1.95-0.698,7.908,0.78,11.307,0.628c3.399-0.152,6.403-0.616,6.403-0.616s-5.255-0.187-8.657-0.886
						c-3.402-0.699-7.309-1.954-7.216-2.504c0.092-0.55,7.546-3.189,7.546-3.189s9.193,1.66,13.394,1.578
						c4.201-0.082,7.897,1.144,10.995,0.673c3.098-0.471,6.712-2.545,6.712-2.545s-4.914,2.551-9.034,1.422
						c-4.12-1.128-10.782-0.852-8.206-1.768c2.576-0.917,9.719-1.181,13.453-3.006c3.734-1.824,7.249-1.191,12.695-7.107
						c5.446-5.916,11.26-11.951,11.26-11.951s-6.316,4.733-9.412,7.854c-3.096,3.121-3.83,6.094-9.892,7.878
						c-6.061,1.785-9.39,4.227-14.294,4.235c-4.904,0.008-11.506-0.491-11.506-0.491s7.221-4.105,11.097-7.61
						c3.875-3.505,8.737-5.456,12.802-7.174c4.065-1.719,11.423-6.924,13.793-12.204c2.37-5.281,10.929-16.428,10.929-16.428
						s-5.025,4.854-7.427,7.483c-2.401,2.629-4.341,9.011-7.85,12.233c-3.509,3.222-11.393,6.084-11.393,6.084
						s6.326-5.56,10.927-17.716C684.592,274.73,684.919,263.209,684.919,263.209z"/>
					<path style="fill:#688737;" d="M684.949,326.6c-1.304,0.952-7.295,5.449-9.412,4.152c-1.473-0.903,1.421-4.407,1.769-5.695
						c0.374-1.383-0.896-3.984,0.203-5.371c2.492-3.148,5.123-1.771,7.926-3.871c3.441-2.578,3.395-5.568,3.959-8.96
						c0.966-5.808,1.337-6.859,4.316-13.402c3.48-7.645-2.389-10.681-6.133-19.084c-1.004-2.254-2.881-5.496-3.668-7.845
						c-0.726-2.167-0.061-5.774-0.801-7.451c-0.386-0.876-3.686-2.494-4.228-3.611c-0.593-1.222-1.453-5.958-2.113-6.843
						c0.372,0.499-1.958-7.893,0.829-7.621c5.664,0.555,7.499,5.059,10.534,9.463c6.401,9.287,7.748,20.688,13.732,29.13
						c3.909,5.515,6.856,5.902,5.262,13.254c-1.33,6.137-6.787,8.966-8.846,13.746c-1.378,3.2-0.855,5.688-2.225,8.673
						C693.85,320.065,689.069,323.591,684.949,326.6z"/>
					<g>
						<path style="fill:#688737;" d="M681.393,235.594c0.019,0.966,0.318,7.578-1.655,8.039c-2.574,0.601-1.277-1.602-3.332-2.974
							c-7.94-5.299-1.814-8.589-4.298-14.681c-1.428-3.502-5.025-3.604-7.239-5.993c-3.488-3.765-1.984-8.975-6.578-11.363
							c0.242,0.126-2.674,1.175-3.455,1.023c-2.856-0.555-5.703-1.241-8.519-1.743c-3.849-0.686-8.349-3.238-11.464-3.669
							c-2.272-0.314-9.098,0.484-11.474,1.493c-1.323,0.562-3.142,3.606-5.102,4.637c-1.54,0.81-9.166,0.35-9.9,1.654
							c1.172-2.083,5.326-4.111,7.046-5.922c2.722-2.867,3.912-6.096,8.423-7.661c9.443-3.278,18.673,1.17,27.644,2.717
							c4.374,0.754,10.304-1.377,14.2,0.199c5.196,2.102,5.534,8.555,7.491,12.672C676.546,221.105,681.203,225.988,681.393,235.594
							z"/>
						<path style="fill:#9AC83A;" d="M680.6,328.359c1.274-1.626,0.279-3.865,1.28-5.406c2.161-3.328,4.302-0.946,7.168-3.626
							c2.4-2.245,5.665-5.789,6.666-8.965c0.859-2.728,0.203-6.438,0.729-8.818c0.65-2.942,5.789-8.599,5.823-12.843
							c0.057-7.191-3.992-3.854-6.023-7.665c-2.512-4.712-5.653-12.451-6.997-17.209c-2.052-7.263-3.57-8.896-5.807-12.201
							c-0.592-0.875-6.001-13.657-5.779-16.376c0.29-3.547,0.33-10.507-2.61-15.229c-1.065-1.71-4.531-2.276-5.754-3.856
							c-1.895-2.447-2.452-8.057-5.07-10.177c-5.717-4.629-6.156,0.785-10.227,0.359c-4.356-0.456-10.456-3.422-13.339-3.992
							c0.338,0.067-19.444-2.939-19.119-0.475c3.636-3.912,4.888-5.388,12.354-5.665c0.594-0.022,4.876-0.336,5.55-0.383
							c1.698,0.628,28.178,3.633,30.468,6.257c3.52,4.033,1.758,8.855,4.084,13.859c2.112,4.545,5.907,7.669,8.098,12.983
							c0.96,2.327,2.677-1.727,3.463,3.918c1.073,7.712-4.139,6.454,1.753,15.555c6.537,10.098,11.256,16.574,14.868,25.547
							c1.254,3.117,5.293,6.37,6.436,9.871c3.027,9.273,1.234,7.927-4.265,15.266c-1.939,2.588-3.951,5.441-5.655,8.752
							c-0.989,1.923,1.078,3.667,0.265,5.32c-1.371,2.788-4.421,4.523-5.714,7.128c-3.595,7.243-17.249,12.745-17.901,11.618
							C674.293,330.092,679.919,329.228,680.6,328.359z"/>
					</g>
					<g>
						<path style="fill:#BBDE76;" d="M607.029,214.252c-13.655,8.384-29.991,18.402-35.493,33.562
							c-3.43,9.453-3.02,21.192,0.15,30.845c3.459,10.534,11.112,18.472,14.382,28.98c14.904-9.322,4.451-34.004,7.016-47.05
							c1.354-6.888,6.623-13.003,8.015-20.538C602.818,230.751,603.357,222.213,607.029,214.252z"/>
						<path style="fill:#8BB43C;" d="M607.029,214.252c-13.655,8.384-29.991,18.402-35.493,33.562
							c-3.43,9.453-3.02,21.192,0.15,30.845c3.459,10.534,11.112,18.472,14.382,28.98c5.467-2.073,6.654-7.111,6.499-13.771
							c-0.101-4.363,3.747-15.521,2.191-19.472c-1.083-2.752-1.805-2.322-3.346-2.56c-7.816-1.205-7.834,12.041-11.043,15.113
							c-2.725-3.583-2.288-6.831-4.14-10.703c-1.276-2.667-2.737-5.598-3.766-7.806c-1.986-4.258-0.471-13.388,0.849-17.848
							c1.233-4.164,3.053-4.851,4.846-8.132c1.401-2.562,3.133-6.466,4.41-8.637c1.185-2.016,14.24-9.534,15.34-8.907
							c2.82,1.607-3.04,12.226-3.038,14.736c0.002,3.211-0.535,5.105-0.709,8.972c-0.178,3.974-1.491,3.825-0.329,9.462
							c2.917-8.322,6.496-13.801,7.807-22.677C602.768,227.77,603.966,220.829,607.029,214.252z"/>
						<path style="fill:#D8EB96;" d="M573.73,281.124c0.138-1.51-1.921-5.599-2.419-8.088c-0.498-2.49-0.776-4.741-0.776-4.741
							s1.132,3.786,2.222,6.147c1.09,2.362,2.597,5.007,2.959,4.859c0.362-0.148,0.973-5.964,0.973-5.964s-2.787-6.407-3.5-9.486
							c-0.713-3.079,0.697-7.982,1.468-11.006c0.771-3.024-0.308-5.579,3.503-10.385c3.811-4.806,7.633-9.902,7.633-9.902
							s-2.75,5.312-4.724,8.005c-1.974,2.693-4.199,3.632-4.612,8.374c-0.413,4.741-1.676,7.553-0.845,11.145
							c0.831,3.592,2.285,8.302,2.285,8.302s1.756-5.858,3.735-9.196c1.979-3.339,2.732-7.168,3.449-10.386
							c0.716-3.218,3.661-9.32,7.266-11.817c3.605-2.496,10.729-10.557,10.729-10.557s-3.04,4.418-4.654,6.603
							c-1.613,2.184-6.027,4.577-7.969,7.6c-1.942,3.023-3.008,9.189-3.008,9.189s3.302-5.348,11.592-10.574
							c1.809-1.141,3.591-2.162,5.378-2.996c-0.149,0.404-0.297,0.809-0.448,1.214c-2.385,1.538-4.92,3.628-7.861,6.246
							c-9.496,8.449-12.019,14.323-12.122,15.503c-0.082,0.949,7.888-0.881,13.635-2.752c-0.116,0.45-0.236,0.895-0.344,1.351
							c-0.173,0.047-0.364,0.108-0.527,0.148c-3.736,0.922-11.302,2.571-13.066,3.656c-1.764,1.084-3.775,5.922-4.349,8.09
							c-0.57,2.156-0.747,2.838-0.747,2.838s1.469-1.099,6.987-2.76c3.904-1.175,6.416-0.474,9.725-0.883
							c-0.08,0.506-9.198,4.613-9.323,3.62c-0.125-0.993-4.445-0.163-5.673,0.458c-1.228,0.621-1.48,2.332-2.021,4.371
							c-0.541,2.04-0.209,6.858-0.209,6.858s5.078-2.693,12.048-2.878c0.782-0.021,1.503-0.05,2.189-0.086
							c-0.2,0.503-12.977,3.824-13.779,4.465c-0.802,0.641,1.154,4.469,1.542,6.863c0.002,0.015,0.013,0.026,0.017,0.041
							c-1.707-1.893-3.339-3.828-4.884-5.837C574.731,285.023,573.592,282.634,573.73,281.124z"/>
						<path style="fill:#688737;" d="M588.436,291.535c1.425-1.927-0.001-8.832-0.266-10.508c0.221,1.405,0.074-5.552,0.076-4.101
							c-0.003-1.979-1.397-2.906-0.863-5.874c0.435-2.412,3.819-6.293,4.236-8.712c0.164-0.949-2.234-0.916-1.576-2.904
							c0.586-1.77,1.657-3.18,2.631-4.786c0.975-1.608,2.907-2.292,4.093-4.475c-1.143,2.105,1.159-7.705,1.385-5.616
							c-0.381-3.512-2.93-4.211-1.326-8.172c0.657-1.621,3.601-0.829,4.35-2.676c0.683-1.683-1.513-3.064-1.381-3.649
							c0.45-1.993,1.101-8.614,0.23-10.435c-0.924-1.932-6.99-2.001-1.805-5.269c2.954-1.862,3.87,0.159,5.444,1.883
							c5.154,5.649,3.118,15.492,1.542,23.788c-1.71,9.002-3.656,15.85-8.537,25.285c-4.732,9.146-0.22,29.562-11.72,31.914
							C584.344,295.576,588.269,290.691,588.436,291.535z"/>
						<path style="fill:#9AC83A;" d="M604.562,225.941c0.105,3.649-0.854,7.57-1.623,11.775c-1.684,9.206-5.521,15.664-8.627,24.193
							c-1.58,4.339-4.043,9.328-3.76,14.118c0.15,2.536-0.06,9.917-0.613,11.755c-1.096,3.639-7.979,18.018-3.541,21.145
							c2.266-1.274,3.843-8.87,5.714-11.142c1.178-1.431,4.679-3.07,5.511-4.811c1.076-2.252-0.744-2.843-0.417-4.913
							c0.274-1.732,2.38-1.904,2.03-3.997c-0.359-2.144-2.456-3.868-2.824-6.154c-0.06-0.37,1.571-3.009,1.622-2.339
							c-0.162-2.146-0.374-5.074-0.379-6.894c-0.002-0.777,1.244-5.117,1.772-5.9c1.514-2.247,4.243-3.4,5.747-5.566
							c0.258-0.371,0.224-7.199,0.273-7.725c-0.104-0.815-0.206-1.628-0.307-2.438c-1.172-1.887-0.716-3.322,1.487-4.247
							c0.518-2.204,2.642-5.144,2.759-8.137c0.094-2.384,0.598-4.772,0.322-7.281c-0.318-2.891-1.484-12.645-5.183-13.565
							C599.046,212.479,604.558,225.796,604.562,225.941z M586.264,305.38c-0.033,0.271-0.158,0.72-0.253,1.184
							C586.457,302.832,586.441,303.951,586.264,305.38z"/>
					</g>
					<path style="fill:#9AC83A;" d="M674.086,219.48c1.572,3.033,7.595,5.834,10.242,7.601c0.796,0.531,4.885,3.074,5.789,3.529
						c0.049,0.025,4.221,2.035,3.356,1.172c1.153,1.151,4.316,4.626,5.384,5.891c0.193,0.228,2.394-0.484,3.207,0.469
						c1.45,1.698-0.197,4.478,1.877,7.026c1.282,1.575,3.753,0.674,4.258,1.701c1.305,2.654-0.291,4.087,0.645,6.589
						c0.031,0.083,6.503,7.098,5.455,6.952c2.845,0.395,1.72-1.45,1.726-4.463c0.008-4.829-3.105-10.435-5.842-13.927
						c-3.779-4.822-7.47-8.456-11.622-12.741c-5.121-5.287-6.572-3.954-12.506-5.842
						C683.227,222.534,675.887,215.593,674.086,219.48z"/>
					<path style="fill:#688737;" d="M714.436,257.941c1.587,4.823,2.883,5.139-0.18,10.202c-3.446-2.179,0.12-6.13-1.256-8.989
						c-0.627-1.303-1.862-2.072-2.5-3.127c1.12,1.852-5.019-3.912-3.06-2.426c1.766,1.34-2.201-3.948-1.375-2.623
						c-0.696,0.237-1.431,0.267-2.205,0.087c-1.314-0.977-1.86-2.338-1.63-4.052c-0.602-0.969,0.962-2.742,0.058-4.238
						c-0.821-1.359-3.377,0.304-4.608-0.633c-1.605-1.221-4.564-6.05-6.018-7.929c-0.124,1.258-0.28,2.518-0.467,3.779
						c-2.47-2.078-4.057-6.866-6.428-9.447c-1.894-2.06-6.086-4.23-6.468-7.014c3.463-1.227,7.72,4.283,10.718,5.308
						c3.604,1.232,5.278,0.381,8.245,2.728c0.589,0.466,0.577,3.585,1.292,4.494c0.417,0.53,2.292-0.572,2.603-0.253
						c0.161,0.165,1.44,3.013,1.465,3.033c-0.201-0.155,2.818,1.714,2.886,1.847c1.214,2.365,0.699,5.525,1.988,7.553
						c1.402,2.206,2.367-0.026,4.16,2.611C712.945,250.751,713.641,255.527,714.436,257.941z"/>
				</g>
			</g>
			<g>
				<path style="fill:#F15606;" d="M704.365,231.537c-2.555-4.94,1.945-8.788,7.07-10.9c3.946-1.626,8.327-1.472,11.602-0.828
					c0,0,1.69-2.238,6.208-3.697c6.408-2.069,16.072-1.61,17.411,6.924c1.339,8.535-3.102,16.05-14.705,17.952
					C720.35,242.892,706.875,236.39,704.365,231.537z"/>
				<path style="fill:#66400C;" d="M721.843,228.716c-0.929-12.459-7.825-18.633-10.553-19.867c0,0,0.186-4.515,4.033-5.312
					c0,0,3.825,3.778,6.253,10.974s2.348,13.694,2.348,13.694L721.843,228.716z"/>
				<path style="fill:#F86B24;" d="M714.204,231.01c-6.979-4.817-14.391-2.679-18.333,3.293c-3.324,5.036-2.41,15.635,3.353,27.563
					c5.764,11.928,16.334,20.307,24.247,17.848c7.913-2.459,8.894-19.163,8.894-19.163L714.204,231.01z"/>
				<path style="fill:#CF591E;" d="M711.536,232.498c-0.673,0.029-2.38,4.541-2.714,5.688c-0.765,2.626-0.95,5.392-0.641,8.103
					c0.696,6.121,3.543,12.129,6.495,17.457c2.544,4.592,5.749,9.209,4.206,14.714c-0.145,0.516-0.333,0.996-0.541,1.457
					c1.779,0.343,3.511,0.3,5.131-0.203c7.913-2.459,8.894-19.163,8.894-19.163l-17.888-29.096
					C713.738,232.054,712.762,232.445,711.536,232.498z"/>
				<path style="fill:#F07036;" d="M731.768,226.067c3.815-9.451,15.277-10.756,19.194-7.877
					c8.012,5.889,10.714,17.29,11.288,29.355c0.574,12.065-1.146,20.151-7.208,21.921c-6.063,1.771-13.994-1.394-18.037-12.324
					C732.961,246.212,731.768,226.067,731.768,226.067z"/>
				<path style="fill:#D66430;" d="M753.755,263.105c-2.709-5.474-3.386-12.395-4.78-18.3c-1.693-7.174-6.319-20.954-15.022-22.451
					c-0.865,1.065-1.612,2.296-2.185,3.713c0,0,1.192,20.145,5.236,31.076c4.044,10.93,11.975,14.095,18.038,12.324
					c1.219-0.356,2.255-0.979,3.139-1.827C756.346,266.742,754.746,265.108,753.755,263.105z"/>
				<path style="fill:#FF9953;" d="M714.099,225.291c-5.588,4.886-7.624,15.211,1.125,32.367
					c8.749,17.156,20.412,21.677,26.853,16.691c6.441-4.986,7.706-17.218,2.984-35.078c-3.837-14.513-9.664-18.782-16.216-18.878
					C722.292,220.296,716.826,222.906,714.099,225.291z"/>
				<path style="opacity:0.49;fill:#FFC291;" d="M720.304,226.448c-5.045,3.612,5.868,13.177,13.079,19.786
					c7.211,6.608,7.128-1.866,5.742-8.102c-1.386-6.235-7.016-11.883-9.479-12.904C725.76,223.619,722.418,224.935,720.304,226.448z
					"/>
				<path style="opacity:0.2;fill:#FFC291;" d="M749.003,220.598c-4.217,2.887,4.508,13.997,6.356,22.052
					c1.847,8.056,1.173,16.031,2.608,14.887c1.435-1.144,0.918-11.486-0.431-19.596S752.355,218.303,749.003,220.598z"/>
			</g>
			<g>
				<g>
					
						<path style="fill:none;stroke:#BAC7DF;stroke-width:4.6173;stroke-linecap:round;stroke-linejoin:round;stroke-miterlimit:10;" d="
						M822.962,167.651l-284.224,16.675c-1.346,0.079-2.237,1.431-1.779,2.699l14.969,41.42l30.256,92.865l202.211,21.413
						l52.364-229.069c0.918-4.341,4.39-7.683,8.763-8.434l52.063-11.503"/>
					
						<line style="fill:none;stroke:#BAC7DF;stroke-width:1.1721;stroke-linecap:round;stroke-linejoin:round;stroke-miterlimit:10;" x1="597.607" y1="180.57" x2="627.211" y2="325.933"/>
					
						<line style="fill:none;stroke:#BAC7DF;stroke-width:1.1721;stroke-linecap:round;stroke-linejoin:round;stroke-miterlimit:10;" x1="659.652" y1="176.625" x2="673.138" y2="330.407"/>
					
						<line style="fill:none;stroke:#BAC7DF;stroke-width:1.1721;stroke-linecap:round;stroke-linejoin:round;stroke-miterlimit:10;" x1="722.181" y1="172.649" x2="718.24" y2="336.487"/>
					
						<line style="fill:none;stroke:#BAC7DF;stroke-width:1.1721;stroke-linecap:round;stroke-linejoin:round;stroke-miterlimit:10;" x1="796.002" y1="168.642" x2="762.54" y2="338.931"/>
				</g>
				
					<line style="fill:none;stroke:#BAC7DF;stroke-width:1.1721;stroke-linecap:round;stroke-linejoin:round;stroke-miterlimit:10;" x1="809.301" y1="220.542" x2="551.928" y2="228.445"/>
				
					<line style="fill:none;stroke:#BAC7DF;stroke-width:1.1721;stroke-linecap:round;stroke-linejoin:round;stroke-miterlimit:10;" x1="795.659" y1="289.425" x2="568.513" y2="281.325"/>
				
					<path style="fill:none;stroke:#BAC7DF;stroke-width:4.6173;stroke-linecap:round;stroke-linejoin:round;stroke-miterlimit:10;" d="
					M784.395,342.724l21.767,55.858c1.803,3.722-0.908,8.048-5.044,8.048H612.01"/>
				<g>
					<path style="fill:#284761;" d="M628.705,421.429c0,8.644-7.007,15.652-15.651,15.652s-15.652-7.007-15.652-15.652
						c0-8.644,7.008-15.652,15.652-15.652S628.705,412.785,628.705,421.429z"/>
					
						<linearGradient id="SVGID_00000152254296894031820260000015543904869048669080_" gradientUnits="userSpaceOnUse" x1="-300.4389" y1="421.4289" x2="-285.7771" y2="421.4289" gradientTransform="matrix(1 0 0 1 906.1615 0)">
						<stop  offset="0" style="stop-color:#EEF3FA"/>
						<stop  offset="0.2473" style="stop-color:#E6EDF8"/>
						<stop  offset="1" style="stop-color:#D2DFF1"/>
					</linearGradient>
					<path style="fill:url(#SVGID_00000152254296894031820260000015543904869048669080_);" d="M620.384,421.429
						c0,4.049-3.282,7.331-7.331,7.331s-7.331-3.282-7.331-7.331c0-4.048,3.282-7.331,7.331-7.331S620.384,417.38,620.384,421.429z"
						/>
				</g>
				<path style="fill:#BAC7DF;" d="M613.054,425.199L613.054,425.199c-4.284,0-8.036-2.874-9.151-7.01l-3.804-14.097h25.91
					l-3.803,14.097C621.089,422.325,617.337,425.199,613.054,425.199z"/>
				<g>
					<circle style="fill:#284761;" cx="771.027" cy="421.429" r="15.652"/>
					
						<linearGradient id="SVGID_00000070100503883390691200000005330861724199523752_" gradientUnits="userSpaceOnUse" x1="-142.4654" y1="421.4289" x2="-127.804" y2="421.4289" gradientTransform="matrix(1 0 0 1 906.1615 0)">
						<stop  offset="0" style="stop-color:#EEF3FA"/>
						<stop  offset="0.2473" style="stop-color:#E6EDF8"/>
						<stop  offset="1" style="stop-color:#D2DFF1"/>
					</linearGradient>
					<circle style="fill:url(#SVGID_00000070100503883390691200000005330861724199523752_);" cx="771.027" cy="421.429" r="7.331"/>
				</g>
				<path style="fill:#BAC7DF;" d="M771.027,425.199L771.027,425.199c-4.284,0-8.036-2.874-9.152-7.01l-3.803-14.097h25.909
					l-3.803,14.097C779.063,422.325,775.311,425.199,771.027,425.199z"/>
				
					<polyline style="fill:none;stroke:#BAC7DF;stroke-width:4.6173;stroke-linecap:round;stroke-linejoin:round;stroke-miterlimit:10;" points="
					787.359,356.658 595.875,333.432 582.184,321.311 				"/>
				<path style="fill:#BAC7DF;" d="M906.586,100.31l-38.518,5.144c-1.468,0.196-2.817-0.835-3.013-2.303l-0.848-6.353
					c-0.196-1.468,0.835-2.816,2.303-3.012l38.518-5.144c1.468-0.196,2.816,0.835,3.012,2.302l0.848,6.354
					C909.084,98.766,908.053,100.114,906.586,100.31z"/>
				<path style="fill:#A8B4C9;" d="M865.055,103.151c0.157,1.179,1.062,2.064,2.172,2.27c3.807-2.901,8.451-4.91,12.598-5.895
					c9.724-2.308,19.375-3.363,28.401-7.191l-0.186-1.392c-0.196-1.468-1.545-2.498-3.012-2.302l-38.518,5.144
					c-1.468,0.196-2.499,1.545-2.303,3.013L865.055,103.151z"/>
			</g>
		</g>
		<g style="clip-path:url(#SVGID_00000076580427177928464310000009028562193499307184_);">
			<g>
				<path style="fill:#EDBFB0;" d="M1095.307,332.042c-6.965,3.372-14.085,6.464-21.571,8.923
					c13.946,20.688,25.689,38.584,26.747,42.418c2.58,9.344-13.03,31.32-13.03,31.32s12.229-0.169,19.588-5.726
					c20.516-15.491,13.149-29.632,13.149-29.632C1112.439,373.196,1103.665,353.236,1095.307,332.042z"/>
				<path style="fill:#284761;" d="M1120.19,379.345c0,0-2.206,16.737-16.121,27.501c-8.775,6.788-14.385,2.984-14.385,2.984
					s-4.099,5.062-8.148,11.548c-4.224,6.765-1.469,8.453-1.469,8.453s8.653,2.166,23.77-10.284
					c15.117-12.451,21.97-20.784,27.548-29.32C1133.519,386.959,1120.19,379.345,1120.19,379.345z"/>
			</g>
			<g>
				<path style="fill:#EDBFB0;" d="M969.029,346.639c-9.461-1.05-18.76-3.014-27.734-6.016c-0.724,31.626-0.614,62.855-2.802,67.456
					c-4.212,8.857-23.489,12.207-23.489,12.207s13.902,10.07,22.919,7.679c9.017-2.391,18.32-9.931,18.32-9.931
					C953.434,403.178,963.475,373.866,969.029,346.639z"/>
				<path style="fill:#284761;" d="M956.472,413.914c0,0-12.393,7.369-23.286,10.069c-10.893,2.7-16.065-4.612-16.065-4.612
					s-11.573,4.728-19.054,7.752c-8.809,3.561,7.334,10.189,27.141,10.671c19.807,0.481,30.467-2.411,30.467-2.411L956.472,413.914z
					"/>
			</g>
			<g>
				<path style="fill:#8A3A41;" d="M1041.36,103.732c2.49,3.441-11.319,10.911-19.863,14.186l-26.126-39.407
					C995.371,78.511,1027.933,85.178,1041.36,103.732z"/>
			</g>
			<path style="fill:#81ABE2;" d="M966.469,93.673c-10.202,21.295-15.762,47.582-17.841,57.514s-5.856,64.445-8.606,98.24
				s-2.669,119.636-2.669,119.636s15.876,9.313,27.326,7.122c0,0,9.857-23.555,13.455-46.85c3.599-23.296,2.165-42.524,5.725-60.305
				c3.561-17.781,18.956-82.15,18.956-82.15l21.859-70.729L966.469,93.673z"/>
			<path style="fill:#81ABE2;" d="M976.997,120.326l8.033-18.504c0,0,14.088-2.486,33.236-11.263c0,0,22.34,26.094,26.329,50.148
				c3.989,24.053,21.542,122.691,22.34,129.621c0.798,6.93,18.345,24.534,28.522,45.998c10.417,21.97,18.217,42.661,18.217,42.661
				s-6.967,10.784-22.669,10.395c0,0-47.526-54.291-58.696-71.844c-11.17-17.553-19.628-31.303-34.788-66.083
				C982.363,196.674,976.997,120.326,976.997,120.326z"/>
			<path style="fill:#372B2C;" d="M964.636-122.994c0,0-18.394,2.35-18.754,22.99c-0.359,20.64,8.223,35.495,5.136,65.185
				c-3.087,29.691,33.352,52.717,55.651,25.159c22.299-27.558,36.333-33.141,36.333-33.141l-42.326-43.764L964.636-122.994z"/>
			<path style="fill:#EDBFB0;" d="M977.179-34.521c2.693-3.186,5.843-3.655,2.245-12.411l23.038-5.467
				c0,0,3.328,10.042,9.178,17.878c5.85,7.836-17.861,59.265-32.221,61.603c-14.36,2.337-19.37-15.696-19.37-15.696l11.186-40.54
				C971.235-29.154,975.886-32.992,977.179-34.521z"/>
			<path style="fill:#EDBFB0;" d="M972.584-53.888c5.499,2.825,12.846,15.515,14.182,22.862h31.392c0,0-10.687-18.026-16.698-32.06
				c-6.012-14.034-4.163-20.858-4.163-20.858L972.584-53.888z"/>
			<path style="fill:#EDBFB0;" d="M951.211-105.832c-2.442,4.927-2.337,11.536-2.003,14.541c0.334,3.005,2.254,5.677,0.96,8.683
				c-1.294,3.005-6.637,8.683-6.971,10.353c-0.334,1.67,4.675,4.007,5.343,5.009c0.668,1.002,4.161,9.531,5.83,13.873
				c1.67,4.341,11.869,2.49,18.214-0.515c6.345-3.005,15.028-10.687,18.368-13.692c3.34-3.005,6.345-16.364,6.345-16.364v-25.047
				c0,0-6.679-12.356-21.707-9.351C960.562-115.336,954.111-111.681,951.211-105.832z"/>
			<path style="fill:#372B2C;" d="M954.232-110.767c0,0,12.375,29.019,28.578,32.212c0,0,12.627,32.624,28.83,44.034
				c16.203,11.41,17.893,22.271,16.325,34.815c0,0,30.421-18.007,25.802-39.563c-5.161-24.082-22.826-17.862-30.666-31.944
				c-7.84-14.082,0.025-39.283-21.413-50.898C965.92-141.49,954.232-110.767,954.232-110.767z"/>
			<path style="fill:#C4525C;" d="M1011.64-34.521c0,0-9.846,4.289-18.379,14.36c-8.533,10.071-19.118,18.423-22.357,17.11
				c-3.238-1.313,0.695-27.02,6.274-31.471c0,0-6.492,4.06-8.01,6.038c-5.177,6.745-7.35,23.317-11.65,31.194
				c-4.299,7.877-10.863,18.784-10.207,29.084c0.657,10.3,7.549,24.741,6.892,33.603c-0.656,8.861,1.516,39.825,1.516,39.825
				s17.849,6.203,39.838,4.522c21.989-1.681,38.581-10.235,45.802-6.011c0,0-8.716-25.843-15.279-40.459
				c-6.564-14.615,2.298-31.025,5.579-48.748c3.282-17.723,7.428-27.683,1.192-36.544C1026.616-30.88,1011.64-34.521,1011.64-34.521
				z"/>
			<g>
				<path style="fill:#EDBFB0;" d="M856.415,95.232c2.233-3.187,1.365-5.831,7.47-9.065c6.105-3.234,12.095-1.692,22.367-5.524
					c10.272-3.831,21.598-9.484,21.598-9.484s0.11,0,0.271,0.001c3.017,4.11,6.035,8.22,9.031,12.345
					c-5.176,1.947-25.552,10.47-30.421,11.334c-6.147,1.092-13.291-1.132-17.788,3.227c-4.497,4.358-0.186,4.819-1.717,7.355
					c-1.531,2.535-8.152-1.165-9.038-3.005C857.303,100.576,854.181,98.419,856.415,95.232z"/>
				<path style="fill:#CF6D7C;" d="M1013.987-25.415c8.546-5.171,18.672-0.526,17.824,16.33
					c-0.847,16.855-37.608,69.663-59.763,80.245c-16.456,7.86-34.11,10.331-61.249,17.021c0,0-5.911-11.236-9.687-13.812
					c0,0,53.358-23.523,61.003-27.196c0,0,14.617-20.834,26.665-38.861C1000.581-9.346,1004.898-19.916,1013.987-25.415z"/>
			</g>
			<path style="fill:none;stroke:#5687C7;stroke-width:1.634;stroke-miterlimit:10;" d="M1032.31,297.538
				c0,0-14.513-21.538-24.65-43.811s-21.626-47.864-26.646-61.565c-5.02-13.701-10.775-46.67-10.775-46.67"/>
			<path style="fill:none;stroke:#5687C7;stroke-width:1.634;stroke-miterlimit:10;" d="M960.05,117.919
				c9.202,1.827,34.462,1.768,49.543,0c15.081-1.768,22.717-5.087,22.717-5.087"/>
			<path style="fill:none;stroke:#5687C7;stroke-width:1.634;stroke-miterlimit:10;" d="M1041.36,204.315
				c10.092,27.401,20.516,54.907,27.776,83.227"/>
			<path style="fill:none;stroke:#5687C7;stroke-width:1.634;stroke-miterlimit:10;" d="M959.718,338.391
				c1.604-6.417,16.128-47.401,18.883-59.721"/>
			<path style="fill:none;stroke:#5687C7;stroke-width:1.634;stroke-miterlimit:10;" d="M996.174,110.646
				c-0.005,2.811,0.089,5.614-0.255,8.414"/>
			<path style="fill:none;stroke:#5687C7;stroke-width:1.634;stroke-miterlimit:10;" d="M988.78,130.023
				c0.536,3.025,15.505,15.47,34.929,10.453"/>
			<path style="fill:#5687C7;" d="M935.729,369.392c0.054,3.398,0.683,7.141,1.624,8.325c0.941,1.184,15.775,4.932,22.365,5.524
				c6.59,0.592,8.678-0.592,9.311-3.354c0.633-2.762,1.054-9.814,1.054-9.814s-13.636-1.758-20.738-3.101
				c-7.102-1.342-12.755-2.105-12.755-2.105S935.688,366.793,935.729,369.392z"/>
		</g>
	</g>
</g>
 <defs>
    <mask id="SvgjsMask1097">
      <rect width="1538" height="783" fill="#ffffff"></rect>
    </mask>
    <style>
      @keyframes float1 {
        0% {
          transform: translate(0, 0)
        }

        50% {
          transform: translate(-10px, 0)
        }

        100% {
          transform: translate(0, 0)
        }
      }

      .triangle-float1 {
        animation: float1 5s infinite;
      }

      @keyframes float2 {
        0% {
          transform: translate(0, 0)
        }

        50% {
          transform: translate(-5px, -5px)
        }

        100% {
          transform: translate(0, 0)
        }
      }

      .triangle-float2 {
        animation: float2 4s infinite;
      }

      @keyframes float3 {
        0% {
          transform: translate(0, 0)
        }

        50% {
          transform: translate(0, -10px)
        }

        100% {
          transform: translate(0, 0)
        }
      }

      .triangle-float3 {
        animation: float3 6s infinite;
      }
    </style>
  </defs>
</svg>
