<svg id="visual" viewBox="0 0 845 776" width="845" height="776" xmlns="http://www.w3.org/2000/svg" xmlns:xlink="http://www.w3.org/1999/xlink" version="1.1"><path d="M251 0L215.2 18.5C179.3 37 107.7 74 73.3 111C39 148 42 185 41.8 222C41.7 259 38.3 296 56.8 332.8C75.3 369.7 115.7 406.3 148.8 443.2C182 480 208 517 197.8 554C187.7 591 141.3 628 126.2 665C111 702 127 739 135 757.5L143 776L0 776L0 757.5C0 739 0 702 0 665C0 628 0 591 0 554C0 517 0 480 0 443.2C0 406.3 0 369.7 0 332.8C0 296 0 259 0 222C0 185 0 148 0 111C0 74 0 37 0 18.5L0 0Z" fill="#d39a57"></path><path d="M42 0L58.3 18.5C74.7 37 107.3 74 113.7 111C120 148 100 185 79 222C58 259 36 296 48.2 332.8C60.3 369.7 106.7 406.3 131.8 443.2C157 480 161 517 136.8 554C112.7 591 60.3 628 50.5 665C40.7 702 73.3 739 89.7 757.5L106 776L0 776L0 757.5C0 739 0 702 0 665C0 628 0 591 0 554C0 517 0 480 0 443.2C0 406.3 0 369.7 0 332.8C0 296 0 259 0 222C0 185 0 148 0 111C0 74 0 37 0 18.5L0 0Z" fill="#ffffff"></path></svg>