<svg id="visual" viewBox="0 0 1526 300" width="1526" height="300" xmlns="http://www.w3.org/2000/svg" xmlns:xlink="http://www.w3.org/1999/xlink" version="1.1"><path d="M0 103L28.3 103.7C56.7 104.3 113.3 105.7 169.8 100.8C226.3 96 282.7 85 339.2 94.2C395.7 103.3 452.3 132.7 508.8 132.8C565.3 133 621.7 104 678.2 93.2C734.7 82.3 791.3 89.7 847.8 89.3C904.3 89 960.7 81 1017.2 82.8C1073.7 84.7 1130.3 96.3 1186.8 91.7C1243.3 87 1299.7 66 1356.2 70.7C1412.7 75.3 1469.3 105.7 1497.7 120.8L1526 136L1526 301L1497.7 301C1469.3 301 1412.7 301 1356.2 301C1299.7 301 1243.3 301 1186.8 301C1130.3 301 1073.7 301 1017.2 301C960.7 301 904.3 301 847.8 301C791.3 301 734.7 301 678.2 301C621.7 301 565.3 301 508.8 301C452.3 301 395.7 301 339.2 301C282.7 301 226.3 301 169.8 301C113.3 301 56.7 301 28.3 301L0 301Z" fill="#ffffff"></path><path d="M0 139L28.3 133.7C56.7 128.3 113.3 117.7 169.8 117.8C226.3 118 282.7 129 339.2 144.3C395.7 159.7 452.3 179.3 508.8 172.3C565.3 165.3 621.7 131.7 678.2 130.8C734.7 130 791.3 162 847.8 167.7C904.3 173.3 960.7 152.7 1017.2 137.3C1073.7 122 1130.3 112 1186.8 107.7C1243.3 103.3 1299.7 104.7 1356.2 113.5C1412.7 122.3 1469.3 138.7 1497.7 146.8L1526 155L1526 301L1497.7 301C1469.3 301 1412.7 301 1356.2 301C1299.7 301 1243.3 301 1186.8 301C1130.3 301 1073.7 301 1017.2 301C960.7 301 904.3 301 847.8 301C791.3 301 734.7 301 678.2 301C621.7 301 565.3 301 508.8 301C452.3 301 395.7 301 339.2 301C282.7 301 226.3 301 169.8 301C113.3 301 56.7 301 28.3 301L0 301Z" fill="#fff9f1"></path><path d="M0 163L28.3 163.2C56.7 163.3 113.3 163.7 169.8 168C226.3 172.3 282.7 180.7 339.2 188.5C395.7 196.3 452.3 203.7 508.8 208.5C565.3 213.3 621.7 215.7 678.2 207C734.7 198.3 791.3 178.7 847.8 169.5C904.3 160.3 960.7 161.7 1017.2 160.8C1073.7 160 1130.3 157 1186.8 154.8C1243.3 152.7 1299.7 151.3 1356.2 156.7C1412.7 162 1469.3 174 1497.7 180L1526 186L1526 301L1497.7 301C1469.3 301 1412.7 301 1356.2 301C1299.7 301 1243.3 301 1186.8 301C1130.3 301 1073.7 301 1017.2 301C960.7 301 904.3 301 847.8 301C791.3 301 734.7 301 678.2 301C621.7 301 565.3 301 508.8 301C452.3 301 395.7 301 339.2 301C282.7 301 226.3 301 169.8 301C113.3 301 56.7 301 28.3 301L0 301Z" fill="#fff3e3"></path><path d="M0 220L28.3 218.5C56.7 217 113.3 214 169.8 222.8C226.3 231.7 282.7 252.3 339.2 256.2C395.7 260 452.3 247 508.8 241.5C565.3 236 621.7 238 678.2 241.8C734.7 245.7 791.3 251.3 847.8 246.2C904.3 241 960.7 225 1017.2 219.3C1073.7 213.7 1130.3 218.3 1186.8 225.5C1243.3 232.7 1299.7 242.3 1356.2 243.8C1412.7 245.3 1469.3 238.7 1497.7 235.3L1526 232L1526 301L1497.7 301C1469.3 301 1412.7 301 1356.2 301C1299.7 301 1243.3 301 1186.8 301C1130.3 301 1073.7 301 1017.2 301C960.7 301 904.3 301 847.8 301C791.3 301 734.7 301 678.2 301C621.7 301 565.3 301 508.8 301C452.3 301 395.7 301 339.2 301C282.7 301 226.3 301 169.8 301C113.3 301 56.7 301 28.3 301L0 301Z" fill="#ffedd5"></path></svg>