<svg id="visual" viewBox="0 0 960 340" width="960" height="340" xmlns="http://www.w3.org/2000/svg" xmlns:xlink="http://www.w3.org/1999/xlink" version="1.1"><path d="M0 236L20 237.7C40 239.3 80 242.7 120 248.3C160 254 200 262 240 247C280 232 320 194 360 196.3C400 198.7 440 241.3 480 262.7C520 284 560 284 600 260.5C640 237 680 190 720 173.2C760 156.3 800 169.7 840 187.5C880 205.3 920 227.7 940 238.8L960 250L960 0L940 0C920 0 880 0 840 0C800 0 760 0 720 0C680 0 640 0 600 0C560 0 520 0 480 0C440 0 400 0 360 0C320 0 280 0 240 0C200 0 160 0 120 0C80 0 40 0 20 0L0 0Z" fill="#ffffff"></path><path d="M0 239L20 222C40 205 80 171 120 168.5C160 166 200 195 240 206C280 217 320 210 360 206C400 202 440 201 480 188C520 175 560 150 600 145.7C640 141.3 680 157.7 720 172.2C760 186.7 800 199.3 840 188.3C880 177.3 920 142.7 940 125.3L960 108L960 0L940 0C920 0 880 0 840 0C800 0 760 0 720 0C680 0 640 0 600 0C560 0 520 0 480 0C440 0 400 0 360 0C320 0 280 0 240 0C200 0 160 0 120 0C80 0 40 0 20 0L0 0Z" fill="#dfecc3"></path><path d="M0 157L20 147.8C40 138.7 80 120.3 120 116.7C160 113 200 124 240 128.3C280 132.7 320 130.3 360 123C400 115.7 440 103.3 480 110C520 116.7 560 142.3 600 158C640 173.7 680 179.3 720 161.5C760 143.7 800 102.3 840 87.5C880 72.7 920 84.3 940 90.2L960 96L960 0L940 0C920 0 880 0 840 0C800 0 760 0 720 0C680 0 640 0 600 0C560 0 520 0 480 0C440 0 400 0 360 0C320 0 280 0 240 0C200 0 160 0 120 0C80 0 40 0 20 0L0 0Z" fill="#bcd888"></path><path d="M0 119L20 109.8C40 100.7 80 82.3 120 68.2C160 54 200 44 240 42.7C280 41.3 320 48.7 360 57.3C400 66 440 76 480 82.3C520 88.7 560 91.3 600 88.2C640 85 680 76 720 66.3C760 56.7 800 46.3 840 47C880 47.7 920 59.3 940 65.2L960 71L960 0L940 0C920 0 880 0 840 0C800 0 760 0 720 0C680 0 640 0 600 0C560 0 520 0 480 0C440 0 400 0 360 0C320 0 280 0 240 0C200 0 160 0 120 0C80 0 40 0 20 0L0 0Z" fill="#97c54b"></path></svg>