<svg id="visual" viewBox="0 0 1526 250" width="1526" height="250" xmlns="http://www.w3.org/2000/svg" xmlns:xlink="http://www.w3.org/1999/xlink" version="1.1"><path d="M0 182L36.3 169.5C72.7 157 145.3 132 218 131.8C290.7 131.7 363.3 156.3 436 166.5C508.7 176.7 581.3 172.3 654 143.7C726.7 115 799.3 62 872 36.5C944.7 11 1017.3 13 1090 11.7C1162.7 10.3 1235.3 5.7 1308 24.5C1380.7 43.3 1453.3 85.7 1489.7 106.8L1526 128L1526 251L1489.7 251C1453.3 251 1380.7 251 1308 251C1235.3 251 1162.7 251 1090 251C1017.3 251 944.7 251 872 251C799.3 251 726.7 251 654 251C581.3 251 508.7 251 436 251C363.3 251 290.7 251 218 251C145.3 251 72.7 251 36.3 251L0 251Z" fill="#97c54b" stroke-linecap="round" stroke-linejoin="miter"></path></svg>