<svg id="visual" viewBox="0 0 1500 300" width="1500" height="300" xmlns="http://www.w3.org/2000/svg" xmlns:xlink="http://www.w3.org/1999/xlink" version="1.1"><path d="M0 209L31.3 209.8C62.7 210.7 125.3 212.3 187.8 206.8C250.3 201.3 312.7 188.7 375.2 176.3C437.7 164 500.3 152 562.8 152.3C625.3 152.7 687.7 165.3 750.2 169.3C812.7 173.3 875.3 168.7 937.8 162.5C1000.3 156.3 1062.7 148.7 1125.2 158.7C1187.7 168.7 1250.3 196.3 1312.8 199.8C1375.3 203.3 1437.7 182.7 1468.8 172.3L1500 162L1500 0L1468.8 0C1437.7 0 1375.3 0 1312.8 0C1250.3 0 1187.7 0 1125.2 0C1062.7 0 1000.3 0 937.8 0C875.3 0 812.7 0 750.2 0C687.7 0 625.3 0 562.8 0C500.3 0 437.7 0 375.2 0C312.7 0 250.3 0 187.8 0C125.3 0 62.7 0 31.3 0L0 0Z" fill="#ffffff"></path><path d="M0 141L31.3 140C62.7 139 125.3 137 187.8 142.3C250.3 147.7 312.7 160.3 375.2 154.3C437.7 148.3 500.3 123.7 562.8 108.8C625.3 94 687.7 89 750.2 100.7C812.7 112.3 875.3 140.7 937.8 151.2C1000.3 161.7 1062.7 154.3 1125.2 150C1187.7 145.7 1250.3 144.3 1312.8 134.7C1375.3 125 1437.7 107 1468.8 98L1500 89L1500 0L1468.8 0C1437.7 0 1375.3 0 1312.8 0C1250.3 0 1187.7 0 1125.2 0C1062.7 0 1000.3 0 937.8 0C875.3 0 812.7 0 750.2 0C687.7 0 625.3 0 562.8 0C500.3 0 437.7 0 375.2 0C312.7 0 250.3 0 187.8 0C125.3 0 62.7 0 31.3 0L0 0Z" fill="#cee2a6"></path><path d="M0 45L31.3 44C62.7 43 125.3 41 187.8 51C250.3 61 312.7 83 375.2 87.3C437.7 91.7 500.3 78.3 562.8 69.8C625.3 61.3 687.7 57.7 750.2 62.7C812.7 67.7 875.3 81.3 937.8 89.8C1000.3 98.3 1062.7 101.7 1125.2 94.8C1187.7 88 1250.3 71 1312.8 71.2C1375.3 71.3 1437.7 88.7 1468.8 97.3L1500 106L1500 0L1468.8 0C1437.7 0 1375.3 0 1312.8 0C1250.3 0 1187.7 0 1125.2 0C1062.7 0 1000.3 0 937.8 0C875.3 0 812.7 0 750.2 0C687.7 0 625.3 0 562.8 0C500.3 0 437.7 0 375.2 0C312.7 0 250.3 0 187.8 0C125.3 0 62.7 0 31.3 0L0 0Z" fill="#97c54b"></path></svg>