<svg id="visual" viewBox="0 0 960 250" width="960" height="250" xmlns="http://www.w3.org/2000/svg" xmlns:xlink="http://www.w3.org/1999/xlink" version="1.1"><path d="M0 134L22.8 134.3C45.7 134.7 91.3 135.3 137 129.7C182.7 124 228.3 112 274 101.2C319.7 90.3 365.3 80.7 411.2 98C457 115.3 503 159.7 548.8 155.8C594.7 152 640.3 100 686 68.2C731.7 36.3 777.3 24.7 823 22.3C868.7 20 914.3 27 937.2 30.5L960 34L960 251L937.2 251C914.3 251 868.7 251 823 251C777.3 251 731.7 251 686 251C640.3 251 594.7 251 548.8 251C503 251 457 251 411.2 251C365.3 251 319.7 251 274 251C228.3 251 182.7 251 137 251C91.3 251 45.7 251 22.8 251L0 251Z" fill="#97c54b" stroke-linecap="round" stroke-linejoin="miter"></path></svg>